<?xml version="1.0" encoding="UTF-8"?>
<svg width="20px" height="2px" viewBox="0 0 20 2" version="1.1" xmlns="http://www.w3.org/2000/svg" xmlns:xlink="http://www.w3.org/1999/xlink">
    <!-- Generator: Sketch 59.1 (86144) - https://sketch.com -->
    <title>Group</title>
    <desc>Created with Sketch.</desc>
    <g id="Page-2" stroke="none" stroke-width="1" fill="none" fill-rule="evenodd">
        <g id="Split-Map" transform="translate(-137.000000, -421.000000)" fill="#453A3B">
            <g id="Group-2">
                <g id="Filter" transform="translate(116.000000, 201.000000)">
                    <g id="Group" transform="translate(21.000000, 220.000000)">
                        <path d="M1.7395,0.2985 C2.1375,0.6965 2.1375,1.3415 1.7395,1.7395 C1.3415,2.1375 0.6965,2.1375 0.2985,1.7395 C-0.0995,1.3415 -0.0995,0.6965 0.2985,0.2985 C0.6965,-0.0995 1.3415,-0.0995 1.7395,0.2985" id="Fill-358"></path>
                        <path d="M7.7395,0.2985 C8.1375,0.6965 8.1375,1.3415 7.7395,1.7395 C7.3415,2.1375 6.6965,2.1375 6.2985,1.7395 C5.9005,1.3415 5.9005,0.6965 6.2985,0.2985 C6.6965,-0.0995 7.3415,-0.0995 7.7395,0.2985" id="Fill-358-Copy"></path>
                        <path d="M13.7395,0.2985 C14.1375,0.6965 14.1375,1.3415 13.7395,1.7395 C13.3415,2.1375 12.6965,2.1375 12.2985,1.7395 C11.9005,1.3415 11.9005,0.6965 12.2985,0.2985 C12.6965,-0.0995 13.3415,-0.0995 13.7395,0.2985" id="Fill-358-Copy-2"></path>
                        <path d="M19.7395,0.2985 C20.1375,0.6965 20.1375,1.3415 19.7395,1.7395 C19.3415,2.1375 18.6965,2.1375 18.2985,1.7395 C17.9005,1.3415 17.9005,0.6965 18.2985,0.2985 C18.6965,-0.0995 19.3415,-0.0995 19.7395,0.2985" id="Fill-358-Copy-3"></path>
                    </g>
                </g>
            </g>
        </g>
    </g>
</svg>