<svg width="708" height="708" viewBox="0 0 708 708" fill="none" xmlns="http://www.w3.org/2000/svg">
<path d="M284.913 234V227.098H286.283L288.285 231.574H288.305L290.306 227.098H291.687V234H290.385V229.76H290.365L288.403 234H288.186L286.224 229.76H286.205V234H284.913ZM293.162 234V228.774H294.444V234H293.162ZM293.162 228.015V226.802H294.444V228.015H293.162ZM299.064 231.86V230.904C299.064 230.588 298.962 230.322 298.758 230.105C298.561 229.888 298.288 229.78 297.94 229.78C297.565 229.78 297.273 229.915 297.062 230.184C296.859 230.454 296.757 230.855 296.757 231.387C296.757 231.913 296.859 232.314 297.062 232.59C297.273 232.86 297.565 232.994 297.94 232.994C298.288 232.994 298.561 232.886 298.758 232.669C298.962 232.445 299.064 232.176 299.064 231.86ZM299.143 234V233.497H299.123C299.09 233.543 299.041 233.602 298.975 233.675C298.916 233.747 298.765 233.846 298.522 233.97C298.285 234.089 298.025 234.148 297.743 234.148C297.053 234.148 296.5 233.898 296.086 233.399C295.679 232.899 295.475 232.229 295.475 231.387C295.475 230.539 295.698 229.869 296.145 229.376C296.592 228.876 297.118 228.626 297.723 228.626C297.999 228.626 298.246 228.682 298.462 228.794C298.686 228.899 298.837 229.004 298.916 229.109L299.044 229.277H299.064V226.802H300.346V234H299.143ZM305.617 234V228.331H303.596V227.098H308.97V228.331H306.948V234H305.617ZM310.205 232.58C310.416 232.856 310.705 232.994 311.073 232.994C311.441 232.994 311.73 232.856 311.941 232.58C312.151 232.298 312.256 231.9 312.256 231.387C312.256 230.874 312.148 230.48 311.931 230.204C311.721 229.921 311.435 229.78 311.073 229.78C310.712 229.78 310.422 229.918 310.205 230.194C309.995 230.47 309.89 230.868 309.89 231.387C309.89 231.906 309.995 232.304 310.205 232.58ZM312.828 233.418C312.368 233.905 311.783 234.148 311.073 234.148C310.363 234.148 309.778 233.905 309.318 233.418C308.858 232.932 308.628 232.255 308.628 231.387C308.628 230.533 308.865 229.859 309.338 229.366C309.811 228.873 310.39 228.626 311.073 228.626C311.757 228.626 312.335 228.873 312.809 229.366C313.282 229.859 313.518 230.533 313.518 231.387C313.518 232.255 313.288 232.932 312.828 233.418ZM315.84 230.845V231.92C315.84 232.222 315.941 232.478 316.145 232.689C316.349 232.892 316.622 232.994 316.964 232.994C317.338 232.994 317.644 232.856 317.881 232.58C318.124 232.304 318.245 231.906 318.245 231.387C318.245 230.868 318.127 230.47 317.89 230.194C317.654 229.918 317.345 229.78 316.964 229.78C316.622 229.78 316.349 229.885 316.145 230.095C315.941 230.299 315.84 230.549 315.84 230.845ZM314.558 236.218V228.774H315.78V229.277H315.8C315.813 229.257 315.83 229.234 315.849 229.208C315.869 229.175 315.918 229.123 315.997 229.05C316.083 228.978 316.175 228.912 316.273 228.853C316.372 228.794 316.503 228.741 316.668 228.695C316.839 228.649 317.019 228.626 317.21 228.626C317.828 228.626 318.367 228.876 318.827 229.376C319.294 229.869 319.527 230.539 319.527 231.387C319.527 232.242 319.304 232.915 318.857 233.408C318.41 233.901 317.867 234.148 317.23 234.148C317.039 234.148 316.862 234.125 316.697 234.079C316.54 234.033 316.411 233.98 316.313 233.921C316.214 233.855 316.129 233.793 316.056 233.734C315.984 233.668 315.932 233.612 315.899 233.566L315.859 233.497H315.84V236.218H314.558Z" fill="#7986A3"/>
<path d="M169.589 281L169.194 279.866H166.562L166.167 281H164.846L167.341 274.098H168.474L170.959 281H169.589ZM167.873 276.07L166.936 278.762H168.82L167.893 276.07H167.873ZM174.261 281V274.098H175.592V279.768H178.442V281H174.261ZM180.508 279.58C180.718 279.856 181.007 279.994 181.376 279.994C181.744 279.994 182.033 279.856 182.243 279.58C182.454 279.298 182.559 278.9 182.559 278.387C182.559 277.874 182.45 277.48 182.233 277.204C182.023 276.921 181.737 276.78 181.376 276.78C181.014 276.78 180.725 276.918 180.508 277.194C180.298 277.47 180.192 277.868 180.192 278.387C180.192 278.906 180.298 279.304 180.508 279.58ZM183.131 280.418C182.67 280.905 182.085 281.148 181.376 281.148C180.666 281.148 180.081 280.905 179.62 280.418C179.16 279.932 178.93 279.255 178.93 278.387C178.93 277.533 179.167 276.859 179.64 276.366C180.113 275.873 180.692 275.626 181.376 275.626C182.059 275.626 182.638 275.873 183.111 276.366C183.584 276.859 183.821 277.533 183.821 278.387C183.821 279.255 183.591 279.932 183.131 280.418ZM186.142 277.904V278.86C186.142 279.176 186.24 279.445 186.438 279.669C186.641 279.886 186.918 279.994 187.266 279.994C187.641 279.994 187.93 279.86 188.134 279.59C188.344 279.314 188.449 278.913 188.449 278.387C188.449 277.855 188.344 277.454 188.134 277.184C187.93 276.915 187.641 276.78 187.266 276.78C186.918 276.78 186.641 276.888 186.438 277.105C186.24 277.322 186.142 277.588 186.142 277.904ZM184.86 281V273.802H186.142V276.277H186.162C186.175 276.257 186.191 276.234 186.211 276.208C186.231 276.175 186.28 276.123 186.359 276.05C186.444 275.978 186.533 275.912 186.625 275.853C186.724 275.794 186.849 275.741 187 275.695C187.157 275.649 187.322 275.626 187.493 275.626C188.137 275.626 188.669 275.883 189.09 276.395C189.517 276.902 189.731 277.565 189.731 278.387C189.731 279.229 189.524 279.899 189.11 280.399C188.702 280.898 188.153 281.148 187.463 281.148C187.18 281.148 186.924 281.095 186.694 280.99C186.464 280.878 186.306 280.77 186.221 280.665L186.083 280.497H186.063V281H184.86ZM192.044 277.904V278.86C192.044 279.176 192.143 279.445 192.34 279.669C192.544 279.886 192.82 279.994 193.168 279.994C193.543 279.994 193.832 279.86 194.036 279.59C194.246 279.314 194.352 278.913 194.352 278.387C194.352 277.855 194.246 277.454 194.036 277.184C193.832 276.915 193.543 276.78 193.168 276.78C192.82 276.78 192.544 276.888 192.34 277.105C192.143 277.322 192.044 277.588 192.044 277.904ZM190.763 281V273.802H192.044V276.277H192.064C192.077 276.257 192.094 276.234 192.113 276.208C192.133 276.175 192.182 276.123 192.261 276.05C192.347 275.978 192.435 275.912 192.527 275.853C192.626 275.794 192.751 275.741 192.902 275.695C193.06 275.649 193.224 275.626 193.395 275.626C194.039 275.626 194.572 275.883 194.992 276.395C195.42 276.902 195.633 277.565 195.633 278.387C195.633 279.229 195.426 279.899 195.012 280.399C194.605 280.898 194.056 281.148 193.366 281.148C193.083 281.148 192.827 281.095 192.597 280.99C192.366 280.878 192.209 280.77 192.123 280.665L191.985 280.497H191.965V281H190.763ZM196.877 283.218L197.922 280.744L195.832 275.774H197.133L198.484 279.314H198.504L199.854 275.774H201.156L198.149 283.218H196.877Z" fill="#7986A3"/>
<path d="M133.376 367L132.982 365.866H130.349L129.955 367H128.634L131.128 360.098H132.262L134.747 367H133.376ZM131.661 362.07L130.724 364.762H132.607L131.68 362.07H131.661ZM138.049 367V360.098H139.419L141.421 364.574H141.44L143.442 360.098H144.822V367H143.521V362.76H143.501L141.539 367H141.322L139.36 362.76H139.34V367H138.049ZM149.276 367V366.497H149.256C149.243 366.517 149.227 366.543 149.207 366.576C149.187 366.602 149.138 366.652 149.059 366.724C148.98 366.796 148.891 366.862 148.793 366.921C148.694 366.98 148.559 367.033 148.389 367.079C148.218 367.125 148.034 367.148 147.836 367.148C147.205 367.148 146.732 367 146.417 366.704C146.108 366.402 145.953 366.034 145.953 365.6C145.953 365.146 146.088 364.801 146.357 364.565C146.627 364.328 147.084 364.131 147.728 363.973C148.326 363.828 148.701 363.713 148.852 363.628C149.003 363.542 149.079 363.421 149.079 363.263C149.079 363.105 149.003 362.974 148.852 362.869C148.707 362.764 148.487 362.711 148.191 362.711C147.843 362.711 147.593 362.79 147.442 362.948C147.291 363.099 147.172 363.306 147.087 363.569L146.022 363.125C146.147 362.685 146.39 362.326 146.752 362.05C147.113 361.768 147.587 361.626 148.172 361.626C148.809 361.626 149.332 361.794 149.739 362.129C150.147 362.464 150.351 362.984 150.351 363.687V367H149.276ZM147.984 364.86C147.656 364.939 147.439 365.035 147.333 365.146C147.235 365.252 147.186 365.373 147.186 365.511C147.186 365.866 147.442 366.044 147.955 366.044C148.342 366.044 148.632 365.971 148.822 365.827C149.02 365.675 149.118 365.491 149.118 365.275V364.367H149.098C149.072 364.42 149.043 364.463 149.01 364.496C148.983 364.522 148.885 364.571 148.714 364.643C148.543 364.709 148.3 364.782 147.984 364.86ZM151.633 367V361.774H152.914V367H151.633ZM151.633 361.015V359.802H152.914V361.015H151.633ZM154.29 367V361.774H155.523V362.277H155.542C155.687 362.093 155.884 361.939 156.134 361.814C156.384 361.689 156.647 361.626 156.923 361.626C157.501 361.626 157.955 361.801 158.283 362.149C158.612 362.491 158.776 362.967 158.776 363.579V367H157.495V363.894C157.495 363.533 157.426 363.263 157.288 363.086C157.15 362.902 156.913 362.81 156.578 362.81C156.262 362.81 156.016 362.902 155.838 363.086C155.661 363.263 155.572 363.503 155.572 363.805V367H154.29Z" fill="#7986A3"/>
<path d="M71.8781 544L71.4837 542.866H68.8511L68.4567 544H67.1355L69.63 537.098H70.7639L73.2486 544H71.8781ZM70.1625 539.07L69.2258 541.762H71.109L70.1822 539.07H70.1625ZM76.5506 544V537.098H79.3508C80.0607 537.098 80.6326 537.299 81.0664 537.7C81.5068 538.094 81.727 538.626 81.727 539.297C81.727 539.796 81.5955 540.22 81.3326 540.569C81.0763 540.917 80.7213 541.164 80.2677 541.308L81.7369 544H80.2973L78.9071 541.436H77.8816V544H76.5506ZM77.8816 540.283H79.2423C79.9982 540.283 80.3762 539.954 80.3762 539.297C80.3762 538.633 79.9982 538.301 79.2423 538.301H77.8816V540.283ZM85.698 544V543.497H85.6783C85.6652 543.517 85.6487 543.543 85.629 543.576C85.6093 543.602 85.56 543.652 85.4811 543.724C85.4022 543.796 85.3135 543.862 85.2149 543.921C85.1163 543.98 84.9815 544.033 84.8106 544.079C84.6397 544.125 84.4557 544.148 84.2585 544.148C83.6274 544.148 83.1542 544 82.8386 543.704C82.5297 543.402 82.3752 543.034 82.3752 542.6C82.3752 542.146 82.51 541.801 82.7795 541.565C83.049 541.328 83.5058 541.131 84.15 540.973C84.7482 540.828 85.1229 540.713 85.274 540.628C85.4252 540.542 85.5008 540.421 85.5008 540.263C85.5008 540.105 85.4252 539.974 85.274 539.869C85.1294 539.764 84.9092 539.711 84.6134 539.711C84.265 539.711 84.0153 539.79 83.8641 539.948C83.7129 540.099 83.5946 540.306 83.5091 540.569L82.4442 540.125C82.5691 539.685 82.8123 539.326 83.1739 539.05C83.5354 538.768 84.0087 538.626 84.5937 538.626C85.2313 538.626 85.7539 538.794 86.1614 539.129C86.569 539.464 86.7727 539.984 86.7727 540.687V544H85.698ZM84.4064 541.86C84.0777 541.939 83.8608 542.035 83.7556 542.146C83.657 542.252 83.6077 542.373 83.6077 542.511C83.6077 542.866 83.8641 543.044 84.3768 543.044C84.7646 543.044 85.0538 542.971 85.2445 542.827C85.4417 542.675 85.5403 542.491 85.5403 542.275V541.367H85.5205C85.4942 541.42 85.4647 541.463 85.4318 541.496C85.4055 541.522 85.3069 541.571 85.136 541.643C84.9651 541.709 84.7219 541.782 84.4064 541.86ZM88.3209 544V539.859H87.5124V538.774H88.3505V538.035C88.3505 537.588 88.4655 537.272 88.6956 537.088C88.9322 536.898 89.274 536.802 89.721 536.802H90.7464V537.936H89.9872C89.8295 537.936 89.7177 537.969 89.652 538.035C89.5928 538.094 89.5633 538.199 89.5633 538.35V538.774H90.8845V539.859H89.6027V544H88.3209ZM91.8451 542.136V539.859H91.0365V538.774H91.8746V537.492H93.0874V538.774H94.4086V539.859H93.1071V542.018C93.1071 542.294 93.1531 542.488 93.2452 542.6C93.3372 542.712 93.5245 542.768 93.8072 542.768H94.2312V544H93.6889C92.9855 544 92.5024 543.852 92.2395 543.556C91.9765 543.261 91.8451 542.787 91.8451 542.136ZM98.7837 542.196L99.6809 542.984C99.1485 543.76 98.4287 544.148 97.5216 544.148C96.792 544.148 96.1971 543.898 95.737 543.399C95.2768 542.892 95.0468 542.222 95.0468 541.387C95.0468 540.552 95.2735 539.885 95.7271 539.386C96.1872 538.879 96.7657 538.626 97.4624 538.626C98.1592 538.626 98.7311 538.879 99.1781 539.386C99.6316 539.885 99.8584 540.552 99.8584 541.387V541.772H96.3483C96.368 542.173 96.4764 542.482 96.6736 542.698C96.8774 542.909 97.1535 543.014 97.5019 543.014C97.7977 543.014 98.0409 542.942 98.2315 542.797C98.4287 542.646 98.6128 542.445 98.7837 542.196ZM96.3483 540.815H98.616C98.5832 540.48 98.4681 540.22 98.271 540.036C98.0738 539.846 97.8042 539.75 97.4624 539.75C97.1469 539.75 96.8873 539.852 96.6835 540.056C96.4863 540.26 96.3746 540.513 96.3483 540.815ZM100.89 544V538.774H102.103V539.326H102.122C102.221 539.129 102.366 538.971 102.556 538.853C102.753 538.735 102.967 538.676 103.197 538.676C103.361 538.676 103.519 538.709 103.67 538.774L103.473 540.017C103.329 539.964 103.194 539.938 103.069 539.938C102.471 539.938 102.172 540.335 102.172 541.131V544H100.89ZM104.116 542.275L105.27 541.979C105.362 542.708 105.753 543.073 106.443 543.073C106.758 543.073 107.008 543.024 107.192 542.925C107.383 542.82 107.478 542.675 107.478 542.491C107.478 542.34 107.406 542.229 107.261 542.156C107.117 542.077 106.814 541.972 106.354 541.841C106.229 541.808 106.134 541.782 106.068 541.762C105.463 541.591 105.02 541.39 104.737 541.16C104.454 540.924 104.313 540.611 104.313 540.224C104.313 539.79 104.487 539.415 104.836 539.1C105.191 538.784 105.674 538.626 106.285 538.626C107.455 538.626 108.188 539.139 108.484 540.164L107.419 540.49C107.327 540.24 107.196 540.043 107.025 539.898C106.86 539.754 106.617 539.681 106.295 539.681C106.045 539.681 105.845 539.731 105.694 539.829C105.549 539.921 105.477 540.033 105.477 540.164C105.477 540.309 105.562 540.424 105.733 540.51C105.91 540.588 106.348 540.727 107.044 540.924C107.656 541.088 108.07 541.298 108.287 541.555C108.51 541.805 108.622 542.127 108.622 542.521C108.622 542.942 108.438 543.32 108.07 543.655C107.708 543.984 107.182 544.148 106.492 544.148C105.769 544.148 105.21 543.967 104.816 543.606C104.428 543.237 104.195 542.794 104.116 542.275Z" fill="#7986A3"/>
<path d="M179 544L178.606 542.866H175.973L175.579 544H174.258L176.752 537.098H177.886L180.371 544H179ZM177.285 539.07L176.348 541.762H178.231L177.305 539.07H177.285ZM184.521 544L183.18 537.098H184.531L185.418 541.791H185.448L187.035 537.098H187.706L189.293 541.791H189.323L190.21 537.098H191.531L190.19 544H188.81L187.39 539.711H187.331L185.901 544H184.521ZM192.52 544V538.774H193.801V544H192.52ZM192.52 538.015V536.802H193.801V538.015H192.52ZM195.177 544V538.774H196.41V539.277H196.429C196.574 539.093 196.771 538.939 197.021 538.814C197.271 538.689 197.534 538.626 197.81 538.626C198.388 538.626 198.842 538.801 199.17 539.149C199.499 539.491 199.663 539.967 199.663 540.579V544H198.382V540.894C198.382 540.533 198.313 540.263 198.174 540.086C198.036 539.902 197.8 539.81 197.465 539.81C197.149 539.81 196.903 539.902 196.725 540.086C196.548 540.263 196.459 540.503 196.459 540.805V544H195.177ZM204.237 541.86V540.904C204.237 540.588 204.135 540.322 203.931 540.105C203.734 539.888 203.461 539.78 203.113 539.78C202.738 539.78 202.446 539.915 202.235 540.184C202.031 540.454 201.93 540.855 201.93 541.387C201.93 541.913 202.031 542.314 202.235 542.59C202.446 542.86 202.738 542.994 203.113 542.994C203.461 542.994 203.734 542.886 203.931 542.669C204.135 542.445 204.237 542.176 204.237 541.86ZM204.316 544V543.497H204.296C204.263 543.543 204.214 543.602 204.148 543.675C204.089 543.747 203.938 543.846 203.695 543.97C203.458 544.089 203.198 544.148 202.916 544.148C202.225 544.148 201.673 543.898 201.259 543.399C200.852 542.899 200.648 542.229 200.648 541.387C200.648 540.539 200.871 539.869 201.318 539.376C201.765 538.876 202.291 538.626 202.896 538.626C203.172 538.626 203.418 538.682 203.635 538.794C203.859 538.899 204.01 539.004 204.089 539.109L204.217 539.277H204.237V536.802H205.519V544H204.316ZM208.128 542.58C208.338 542.856 208.627 542.994 208.996 542.994C209.364 542.994 209.653 542.856 209.863 542.58C210.074 542.298 210.179 541.9 210.179 541.387C210.179 540.874 210.07 540.48 209.853 540.204C209.643 539.921 209.357 539.78 208.996 539.78C208.634 539.78 208.345 539.918 208.128 540.194C207.917 540.47 207.812 540.868 207.812 541.387C207.812 541.906 207.917 542.304 208.128 542.58ZM210.751 543.418C210.29 543.905 209.705 544.148 208.996 544.148C208.286 544.148 207.701 543.905 207.24 543.418C206.78 542.932 206.55 542.255 206.55 541.387C206.55 540.533 206.787 539.859 207.26 539.366C207.733 538.873 208.312 538.626 208.996 538.626C209.679 538.626 210.258 538.873 210.731 539.366C211.204 539.859 211.441 540.533 211.441 541.387C211.441 542.255 211.211 542.932 210.751 543.418ZM213.239 544L212.086 538.774H213.338L214.028 542.265H214.058L215.221 538.774H216.385L217.459 542.255H217.479L218.268 538.774H219.5L218.248 544H216.986L215.793 540.243H215.773L214.482 544H213.239Z" fill="#7986A3"/>
<path d="M222.148 513L221.753 511.866H219.121L218.726 513H217.405L219.9 506.098H221.034L223.518 513H222.148ZM220.432 508.07L219.495 510.762H221.379L220.452 508.07H220.432ZM229.423 513.148C228.536 513.148 227.813 512.842 227.254 512.231C226.702 511.613 226.426 510.683 226.426 509.441C226.426 508.349 226.718 507.495 227.303 506.877C227.895 506.259 228.598 505.95 229.413 505.95C230.11 505.95 230.702 506.161 231.188 506.581C231.681 507.002 231.977 507.574 232.075 508.297L230.744 508.514C230.58 507.626 230.14 507.183 229.423 507.183C228.97 507.183 228.585 507.38 228.27 507.774C227.954 508.169 227.796 508.724 227.796 509.441C227.796 510.282 227.947 510.906 228.25 511.314C228.559 511.715 228.95 511.915 229.423 511.915C229.85 511.915 230.186 511.794 230.429 511.551C230.679 511.307 230.804 510.966 230.804 510.525H229.522V509.391H232.075V510.308C232.075 511.182 231.829 511.876 231.336 512.389C230.843 512.895 230.205 513.148 229.423 513.148ZM236.141 513V512.497H236.121C236.108 512.517 236.092 512.543 236.072 512.576C236.052 512.602 236.003 512.652 235.924 512.724C235.845 512.796 235.756 512.862 235.658 512.921C235.559 512.98 235.424 513.033 235.254 513.079C235.083 513.125 234.899 513.148 234.701 513.148C234.07 513.148 233.597 513 233.282 512.704C232.973 512.402 232.818 512.034 232.818 511.6C232.818 511.146 232.953 510.801 233.222 510.565C233.492 510.328 233.949 510.131 234.593 509.973C235.191 509.828 235.566 509.713 235.717 509.628C235.868 509.542 235.944 509.421 235.944 509.263C235.944 509.105 235.868 508.974 235.717 508.869C235.572 508.764 235.352 508.711 235.056 508.711C234.708 508.711 234.458 508.79 234.307 508.948C234.156 509.099 234.037 509.306 233.952 509.569L232.887 509.125C233.012 508.685 233.255 508.326 233.617 508.05C233.978 507.768 234.452 507.626 235.037 507.626C235.674 507.626 236.197 507.794 236.604 508.129C237.012 508.464 237.216 508.984 237.216 509.687V513H236.141ZM234.849 510.86C234.521 510.939 234.304 511.035 234.199 511.146C234.1 511.252 234.051 511.373 234.051 511.511C234.051 511.866 234.307 512.044 234.82 512.044C235.208 512.044 235.497 511.971 235.687 511.827C235.885 511.675 235.983 511.491 235.983 511.275V510.367H235.963C235.937 510.42 235.908 510.463 235.875 510.496C235.848 510.522 235.75 510.571 235.579 510.643C235.408 510.709 235.165 510.782 234.849 510.86ZM238.498 513V507.774H239.71V508.326H239.73C239.829 508.129 239.973 507.971 240.164 507.853C240.361 507.735 240.575 507.676 240.805 507.676C240.969 507.676 241.127 507.709 241.278 507.774L241.081 509.017C240.936 508.964 240.802 508.938 240.677 508.938C240.078 508.938 239.779 509.335 239.779 510.131V513H238.498ZM245.362 510.86V509.904C245.362 509.588 245.26 509.322 245.056 509.105C244.859 508.888 244.586 508.78 244.238 508.78C243.863 508.78 243.571 508.915 243.36 509.184C243.157 509.454 243.055 509.855 243.055 510.387C243.055 510.913 243.157 511.314 243.36 511.59C243.571 511.86 243.863 511.994 244.238 511.994C244.586 511.994 244.859 511.886 245.056 511.669C245.26 511.445 245.362 511.176 245.362 510.86ZM245.441 513V512.497H245.421C245.388 512.543 245.339 512.602 245.273 512.675C245.214 512.747 245.063 512.846 244.82 512.97C244.583 513.089 244.323 513.148 244.041 513.148C243.351 513.148 242.798 512.898 242.384 512.399C241.977 511.899 241.773 511.229 241.773 510.387C241.773 509.539 241.996 508.869 242.443 508.376C242.89 507.876 243.416 507.626 244.021 507.626C244.297 507.626 244.544 507.682 244.761 507.794C244.984 507.899 245.135 508.004 245.214 508.109L245.342 508.277H245.362V505.802H246.644V513H245.441ZM251.412 511.196L252.31 511.984C251.777 512.76 251.057 513.148 250.15 513.148C249.421 513.148 248.826 512.898 248.366 512.399C247.905 511.892 247.675 511.222 247.675 510.387C247.675 509.552 247.902 508.885 248.356 508.386C248.816 507.879 249.394 507.626 250.091 507.626C250.788 507.626 251.36 507.879 251.807 508.386C252.26 508.885 252.487 509.552 252.487 510.387V510.772H248.977C248.997 511.173 249.105 511.482 249.302 511.698C249.506 511.909 249.782 512.014 250.131 512.014C250.426 512.014 250.67 511.942 250.86 511.797C251.057 511.646 251.241 511.445 251.412 511.196ZM248.977 509.815H251.245C251.212 509.48 251.097 509.22 250.9 509.036C250.702 508.846 250.433 508.75 250.091 508.75C249.776 508.75 249.516 508.852 249.312 509.056C249.115 509.26 249.003 509.513 248.977 509.815ZM253.519 513V507.774H254.751V508.277H254.771C254.915 508.093 255.113 507.939 255.362 507.814C255.612 507.689 255.875 507.626 256.151 507.626C256.73 507.626 257.183 507.801 257.512 508.149C257.841 508.491 258.005 508.967 258.005 509.579V513H256.723V509.894C256.723 509.533 256.654 509.263 256.516 509.086C256.378 508.902 256.141 508.81 255.806 508.81C255.491 508.81 255.244 508.902 255.067 509.086C254.889 509.263 254.8 509.503 254.8 509.805V513H253.519Z" fill="#7986A3"/>
<path d="M221.49 388V381.098H222.861L224.863 385.574H224.882L226.884 381.098H228.264V388H226.963V383.76H226.943L224.981 388H224.764L222.802 383.76H222.782V388H221.49ZM229.74 388V382.774H231.022V388H229.74ZM229.74 382.015V380.802H231.022V382.015H229.74ZM235.642 385.86V384.904C235.642 384.588 235.54 384.322 235.336 384.105C235.139 383.888 234.866 383.78 234.517 383.78C234.143 383.78 233.85 383.915 233.64 384.184C233.436 384.454 233.334 384.855 233.334 385.387C233.334 385.913 233.436 386.314 233.64 386.59C233.85 386.86 234.143 386.994 234.517 386.994C234.866 386.994 235.139 386.886 235.336 386.669C235.54 386.445 235.642 386.176 235.642 385.86ZM235.72 388V387.497H235.701C235.668 387.543 235.619 387.602 235.553 387.675C235.494 387.747 235.342 387.846 235.099 387.97C234.863 388.089 234.603 388.148 234.32 388.148C233.63 388.148 233.078 387.898 232.664 387.399C232.256 386.899 232.053 386.229 232.053 385.387C232.053 384.539 232.276 383.869 232.723 383.376C233.17 382.876 233.696 382.626 234.301 382.626C234.577 382.626 234.823 382.682 235.04 382.794C235.264 382.899 235.415 383.004 235.494 383.109L235.622 383.277H235.642V380.802H236.923V388H235.72ZM244.817 385.259L246.198 385.565C246.086 386.367 245.794 386.998 245.32 387.458C244.847 387.918 244.229 388.148 243.467 388.148C242.579 388.148 241.856 387.842 241.297 387.231C240.745 386.613 240.469 385.683 240.469 384.441C240.469 383.349 240.762 382.495 241.347 381.877C241.938 381.259 242.642 380.95 243.457 380.95C244.167 380.95 244.768 381.174 245.261 381.621C245.761 382.061 246.05 382.656 246.129 383.405L244.808 383.612C244.748 383.192 244.61 382.85 244.393 382.587C244.177 382.317 243.868 382.183 243.467 382.183C243.013 382.183 242.629 382.38 242.313 382.774C241.998 383.169 241.84 383.724 241.84 384.441C241.84 385.282 241.991 385.906 242.293 386.314C242.602 386.715 242.993 386.915 243.467 386.915C244.242 386.915 244.693 386.363 244.817 385.259ZM247.186 386.146V382.774H248.468V386.008C248.468 386.337 248.531 386.57 248.655 386.708C248.78 386.846 248.981 386.915 249.257 386.915C249.566 386.915 249.816 386.837 250.006 386.679C250.197 386.514 250.292 386.258 250.292 385.91V382.774H251.574V388H250.351V387.497H250.332C250.01 387.931 249.556 388.148 248.971 388.148C248.366 388.148 247.916 387.967 247.62 387.606C247.331 387.244 247.186 386.758 247.186 386.146ZM254.237 384.904V385.86C254.237 386.176 254.336 386.445 254.533 386.669C254.737 386.886 255.013 386.994 255.361 386.994C255.736 386.994 256.025 386.86 256.229 386.59C256.439 386.314 256.544 385.913 256.544 385.387C256.544 384.855 256.439 384.454 256.229 384.184C256.025 383.915 255.736 383.78 255.361 383.78C255.013 383.78 254.737 383.888 254.533 384.105C254.336 384.322 254.237 384.588 254.237 384.904ZM252.955 388V380.802H254.237V383.277H254.257C254.27 383.257 254.286 383.234 254.306 383.208C254.326 383.175 254.375 383.123 254.454 383.05C254.539 382.978 254.628 382.912 254.72 382.853C254.819 382.794 254.944 382.741 255.095 382.695C255.253 382.649 255.417 382.626 255.588 382.626C256.232 382.626 256.764 382.883 257.185 383.395C257.612 383.902 257.826 384.565 257.826 385.387C257.826 386.229 257.619 386.899 257.205 387.399C256.797 387.898 256.248 388.148 255.558 388.148C255.276 388.148 255.019 388.095 254.789 387.99C254.559 387.878 254.401 387.77 254.316 387.665L254.178 387.497H254.158V388H252.955ZM260.139 384.904V385.86C260.139 386.176 260.238 386.445 260.435 386.669C260.639 386.886 260.915 386.994 261.263 386.994C261.638 386.994 261.927 386.86 262.131 386.59C262.341 386.314 262.447 385.913 262.447 385.387C262.447 384.855 262.341 384.454 262.131 384.184C261.927 383.915 261.638 383.78 261.263 383.78C260.915 383.78 260.639 383.888 260.435 384.105C260.238 384.322 260.139 384.588 260.139 384.904ZM258.858 388V380.802H260.139V383.277H260.159C260.172 383.257 260.189 383.234 260.208 383.208C260.228 383.175 260.277 383.123 260.356 383.05C260.442 382.978 260.531 382.912 260.623 382.853C260.721 382.794 260.846 382.741 260.997 382.695C261.155 382.649 261.319 382.626 261.49 382.626C262.134 382.626 262.667 382.883 263.088 383.395C263.515 383.902 263.728 384.565 263.728 385.387C263.728 386.229 263.521 386.899 263.107 387.399C262.7 387.898 262.151 388.148 261.461 388.148C261.178 388.148 260.922 388.095 260.692 387.99C260.461 387.878 260.304 387.77 260.218 387.665L260.08 387.497H260.061V388H258.858ZM264.972 390.218L266.017 387.744L263.927 382.774H265.228L266.579 386.314H266.599L267.949 382.774H269.251L266.244 390.218H264.972Z" fill="#7986A3"/>
<path d="M272.48 333V326.098H273.851L275.852 330.574H275.872L277.873 326.098H279.254V333H277.952V328.76H277.933L275.97 333H275.754L273.791 328.76H273.772V333H272.48ZM280.73 333V327.774H282.011V333H280.73ZM280.73 327.015V325.802H282.011V327.015H280.73ZM286.631 330.86V329.904C286.631 329.588 286.529 329.322 286.325 329.105C286.128 328.888 285.855 328.78 285.507 328.78C285.132 328.78 284.84 328.915 284.63 329.184C284.426 329.454 284.324 329.855 284.324 330.387C284.324 330.913 284.426 331.314 284.63 331.59C284.84 331.86 285.132 331.994 285.507 331.994C285.855 331.994 286.128 331.886 286.325 331.669C286.529 331.445 286.631 331.176 286.631 330.86ZM286.71 333V332.497H286.69C286.657 332.543 286.608 332.602 286.542 332.675C286.483 332.747 286.332 332.846 286.089 332.97C285.852 333.089 285.593 333.148 285.31 333.148C284.62 333.148 284.068 332.898 283.653 332.399C283.246 331.899 283.042 331.229 283.042 330.387C283.042 329.539 283.266 328.869 283.713 328.376C284.16 327.876 284.685 327.626 285.29 327.626C285.566 327.626 285.813 327.682 286.03 327.794C286.253 327.899 286.404 328.004 286.483 328.109L286.611 328.277H286.631V325.802H287.913V333H286.71ZM295.807 330.259L297.187 330.565C297.076 331.367 296.783 331.998 296.31 332.458C295.837 332.918 295.219 333.148 294.456 333.148C293.569 333.148 292.846 332.842 292.287 332.231C291.735 331.613 291.459 330.683 291.459 329.441C291.459 328.349 291.751 327.495 292.336 326.877C292.928 326.259 293.631 325.95 294.446 325.95C295.156 325.95 295.758 326.174 296.251 326.621C296.75 327.061 297.04 327.656 297.118 328.405L295.797 328.612C295.738 328.192 295.6 327.85 295.383 327.587C295.166 327.317 294.857 327.183 294.456 327.183C294.003 327.183 293.618 327.38 293.303 327.774C292.987 328.169 292.829 328.724 292.829 329.441C292.829 330.282 292.981 330.906 293.283 331.314C293.592 331.715 293.983 331.915 294.456 331.915C295.232 331.915 295.682 331.363 295.807 330.259ZM301.203 333V332.497H301.183C301.17 332.517 301.154 332.543 301.134 332.576C301.114 332.602 301.065 332.652 300.986 332.724C300.907 332.796 300.818 332.862 300.72 332.921C300.621 332.98 300.486 333.033 300.316 333.079C300.145 333.125 299.961 333.148 299.763 333.148C299.132 333.148 298.659 333 298.344 332.704C298.035 332.402 297.88 332.034 297.88 331.6C297.88 331.146 298.015 330.801 298.284 330.565C298.554 330.328 299.011 330.131 299.655 329.973C300.253 329.828 300.628 329.713 300.779 329.628C300.93 329.542 301.006 329.421 301.006 329.263C301.006 329.105 300.93 328.974 300.779 328.869C300.634 328.764 300.414 328.711 300.118 328.711C299.77 328.711 299.52 328.79 299.369 328.948C299.218 329.099 299.099 329.306 299.014 329.569L297.949 329.125C298.074 328.685 298.317 328.326 298.679 328.05C299.04 327.768 299.514 327.626 300.099 327.626C300.736 327.626 301.259 327.794 301.666 328.129C302.074 328.464 302.278 328.984 302.278 329.687V333H301.203ZM299.911 330.86C299.583 330.939 299.366 331.035 299.261 331.146C299.162 331.252 299.113 331.373 299.113 331.511C299.113 331.866 299.369 332.044 299.882 332.044C300.27 332.044 300.559 331.971 300.749 331.827C300.947 331.675 301.045 331.491 301.045 331.275V330.367H301.025C300.999 330.42 300.97 330.463 300.937 330.496C300.91 330.522 300.812 330.571 300.641 330.643C300.47 330.709 300.227 330.782 299.911 330.86ZM303.826 331.136V328.859H303.017V327.774H303.855V326.492H305.068V327.774H306.389V328.859H305.088V331.018C305.088 331.294 305.134 331.488 305.226 331.6C305.318 331.712 305.505 331.768 305.788 331.768H306.212V333H305.67C304.966 333 304.483 332.852 304.22 332.556C303.957 332.261 303.826 331.787 303.826 331.136ZM308.132 333L306.978 327.774H308.23L308.921 331.265H308.95L310.114 327.774H311.277L312.352 331.255H312.372L313.16 327.774H314.393L313.141 333H311.879L310.686 329.243H310.666L309.374 333H308.132ZM318.256 333V332.497H318.236C318.223 332.517 318.206 332.543 318.187 332.576C318.167 332.602 318.118 332.652 318.039 332.724C317.96 332.796 317.871 332.862 317.772 332.921C317.674 332.98 317.539 333.033 317.368 333.079C317.197 333.125 317.013 333.148 316.816 333.148C316.185 333.148 315.712 333 315.396 332.704C315.087 332.402 314.933 332.034 314.933 331.6C314.933 331.146 315.068 330.801 315.337 330.565C315.607 330.328 316.063 330.131 316.708 329.973C317.306 329.828 317.68 329.713 317.832 329.628C317.983 329.542 318.058 329.421 318.058 329.263C318.058 329.105 317.983 328.974 317.832 328.869C317.687 328.764 317.467 328.711 317.171 328.711C316.823 328.711 316.573 328.79 316.422 328.948C316.27 329.099 316.152 329.306 316.067 329.569L315.002 329.125C315.127 328.685 315.37 328.326 315.731 328.05C316.093 327.768 316.566 327.626 317.151 327.626C317.789 327.626 318.311 327.794 318.719 328.129C319.127 328.464 319.33 328.984 319.33 329.687V333H318.256ZM316.964 330.86C316.635 330.939 316.418 331.035 316.313 331.146C316.215 331.252 316.165 331.373 316.165 331.511C316.165 331.866 316.422 332.044 316.934 332.044C317.322 332.044 317.611 331.971 317.802 331.827C317.999 331.675 318.098 331.491 318.098 331.275V330.367H318.078C318.052 330.42 318.022 330.463 317.989 330.496C317.963 330.522 317.864 330.571 317.694 330.643C317.523 330.709 317.279 330.782 316.964 330.86ZM320.612 333V325.802H321.943V333H320.612ZM323.328 333V325.802H324.609V329.934H324.629L326.532 327.774H328.139L326.256 329.894L328.307 333H326.887L325.29 330.614H325.27L324.609 331.363V333H323.328Z" fill="#7986A3"/>
<path d="M320.359 362V355.098H321.729L323.731 359.574H323.751L325.752 355.098H327.133V362H325.831V357.76H325.811L323.849 362H323.632L321.67 357.76H321.651V362H320.359ZM328.609 362V356.774H329.89V362H328.609ZM328.609 356.015V354.802H329.89V356.015H328.609ZM334.51 359.86V358.904C334.51 358.588 334.408 358.322 334.204 358.105C334.007 357.888 333.734 357.78 333.386 357.78C333.011 357.78 332.719 357.915 332.508 358.184C332.305 358.454 332.203 358.855 332.203 359.387C332.203 359.913 332.305 360.314 332.508 360.59C332.719 360.86 333.011 360.994 333.386 360.994C333.734 360.994 334.007 360.886 334.204 360.669C334.408 360.445 334.51 360.176 334.51 359.86ZM334.589 362V361.497H334.569C334.536 361.543 334.487 361.602 334.421 361.675C334.362 361.747 334.211 361.846 333.968 361.97C333.731 362.089 333.471 362.148 333.189 362.148C332.499 362.148 331.946 361.898 331.532 361.399C331.125 360.899 330.921 360.229 330.921 359.387C330.921 358.539 331.144 357.869 331.591 357.376C332.038 356.876 332.564 356.626 333.169 356.626C333.445 356.626 333.692 356.682 333.909 356.794C334.132 356.899 334.283 357.004 334.362 357.109L334.49 357.277H334.51V354.802H335.792V362H334.589ZM343.686 359.259L345.066 359.565C344.955 360.367 344.662 360.998 344.189 361.458C343.716 361.918 343.098 362.148 342.335 362.148C341.448 362.148 340.725 361.842 340.166 361.231C339.614 360.613 339.338 359.683 339.338 358.441C339.338 357.349 339.63 356.495 340.215 355.877C340.807 355.259 341.51 354.95 342.325 354.95C343.035 354.95 343.637 355.174 344.13 355.621C344.629 356.061 344.918 356.656 344.997 357.405L343.676 357.612C343.617 357.192 343.479 356.85 343.262 356.587C343.045 356.317 342.736 356.183 342.335 356.183C341.882 356.183 341.497 356.38 341.182 356.774C340.866 357.169 340.708 357.724 340.708 358.441C340.708 359.282 340.859 359.906 341.162 360.314C341.471 360.715 341.862 360.915 342.335 360.915C343.111 360.915 343.561 360.363 343.686 359.259ZM347.337 360.58C347.547 360.856 347.836 360.994 348.204 360.994C348.572 360.994 348.862 360.856 349.072 360.58C349.282 360.298 349.387 359.9 349.387 359.387C349.387 358.874 349.279 358.48 349.062 358.204C348.852 357.921 348.566 357.78 348.204 357.78C347.843 357.78 347.553 357.918 347.337 358.194C347.126 358.47 347.021 358.868 347.021 359.387C347.021 359.906 347.126 360.304 347.337 360.58ZM349.959 361.418C349.499 361.905 348.914 362.148 348.204 362.148C347.494 362.148 346.909 361.905 346.449 361.418C345.989 360.932 345.759 360.255 345.759 359.387C345.759 358.533 345.996 357.859 346.469 357.366C346.942 356.873 347.521 356.626 348.204 356.626C348.888 356.626 349.466 356.873 349.94 357.366C350.413 357.859 350.649 358.533 350.649 359.387C350.649 360.255 350.419 360.932 349.959 361.418ZM351.639 360.146V356.774H352.921V360.008C352.921 360.337 352.984 360.57 353.109 360.708C353.234 360.846 353.434 360.915 353.71 360.915C354.019 360.915 354.269 360.837 354.459 360.679C354.65 360.514 354.745 360.258 354.745 359.91V356.774H356.027V362H354.805V361.497H354.785C354.463 361.931 354.009 362.148 353.424 362.148C352.819 362.148 352.369 361.967 352.073 361.606C351.784 361.244 351.639 360.758 351.639 360.146ZM357.408 362V356.774H358.621V357.326H358.641C358.739 357.129 358.884 356.971 359.075 356.853C359.272 356.735 359.485 356.676 359.716 356.676C359.88 356.676 360.038 356.709 360.189 356.774L359.992 358.017C359.847 357.964 359.712 357.938 359.587 357.938C358.989 357.938 358.69 358.335 358.69 359.131V362H357.408ZM361.391 360.136V357.859H360.583V356.774H361.421V355.492H362.634V356.774H363.955V357.859H362.653V360.018C362.653 360.294 362.699 360.488 362.791 360.6C362.883 360.712 363.071 360.768 363.353 360.768H363.777V362H363.235C362.532 362 362.049 361.852 361.786 361.556C361.523 361.261 361.391 360.787 361.391 360.136ZM365.342 364.218L366.387 361.744L364.297 356.774H365.599L366.949 360.314H366.969L368.32 356.774H369.622L366.614 364.218H365.342ZM373.24 362V361.497H373.221C373.208 361.517 373.191 361.543 373.171 361.576C373.152 361.602 373.102 361.652 373.024 361.724C372.945 361.796 372.856 361.862 372.757 361.921C372.659 361.98 372.524 362.033 372.353 362.079C372.182 362.125 371.998 362.148 371.801 362.148C371.17 362.148 370.697 362 370.381 361.704C370.072 361.402 369.918 361.034 369.918 360.6C369.918 360.146 370.052 359.801 370.322 359.565C370.591 359.328 371.048 359.131 371.692 358.973C372.291 358.828 372.665 358.713 372.817 358.628C372.968 358.542 373.043 358.421 373.043 358.263C373.043 358.105 372.968 357.974 372.817 357.869C372.672 357.764 372.452 357.711 372.156 357.711C371.808 357.711 371.558 357.79 371.407 357.948C371.255 358.099 371.137 358.306 371.052 358.569L369.987 358.125C370.112 357.685 370.355 357.326 370.716 357.05C371.078 356.768 371.551 356.626 372.136 356.626C372.774 356.626 373.296 356.794 373.704 357.129C374.111 357.464 374.315 357.984 374.315 358.687V362H373.24ZM371.949 359.86C371.62 359.939 371.403 360.035 371.298 360.146C371.199 360.252 371.15 360.373 371.15 360.511C371.15 360.866 371.407 361.044 371.919 361.044C372.307 361.044 372.596 360.971 372.787 360.827C372.984 360.675 373.083 360.491 373.083 360.275V359.367H373.063C373.037 359.42 373.007 359.463 372.974 359.496C372.948 359.522 372.849 359.571 372.678 359.643C372.508 359.709 372.264 359.782 371.949 359.86ZM375.597 362V356.774H376.81V357.326H376.83C376.928 357.129 377.073 356.971 377.263 356.853C377.461 356.735 377.674 356.676 377.904 356.676C378.069 356.676 378.226 356.709 378.378 356.774L378.18 358.017C378.036 357.964 377.901 357.938 377.776 357.938C377.178 357.938 376.879 358.335 376.879 359.131V362H375.597ZM382.462 359.86V358.904C382.462 358.588 382.36 358.322 382.156 358.105C381.959 357.888 381.686 357.78 381.337 357.78C380.963 357.78 380.67 357.915 380.46 358.184C380.256 358.454 380.154 358.855 380.154 359.387C380.154 359.913 380.256 360.314 380.46 360.59C380.67 360.86 380.963 360.994 381.337 360.994C381.686 360.994 381.959 360.886 382.156 360.669C382.36 360.445 382.462 360.176 382.462 359.86ZM382.54 362V361.497H382.521C382.488 361.543 382.439 361.602 382.373 361.675C382.314 361.747 382.162 361.846 381.919 361.97C381.683 362.089 381.423 362.148 381.14 362.148C380.45 362.148 379.898 361.898 379.484 361.399C379.076 360.899 378.873 360.229 378.873 359.387C378.873 358.539 379.096 357.869 379.543 357.376C379.99 356.876 380.516 356.626 381.121 356.626C381.397 356.626 381.643 356.682 381.86 356.794C382.084 356.899 382.235 357.004 382.314 357.109L382.442 357.277H382.462V354.802H383.743V362H382.54Z" fill="#7986A3"/>
<path d="M410.473 340V333.098H411.844L413.845 337.574H413.865L415.867 333.098H417.247V340H415.946V335.76H415.926L413.964 340H413.747L411.785 335.76H411.765V340H410.473ZM418.723 340V334.774H420.005V340H418.723ZM418.723 334.015V332.802H420.005V334.015H418.723ZM424.624 337.86V336.904C424.624 336.588 424.523 336.322 424.319 336.105C424.122 335.888 423.849 335.78 423.5 335.78C423.126 335.78 422.833 335.915 422.623 336.184C422.419 336.454 422.317 336.855 422.317 337.387C422.317 337.913 422.419 338.314 422.623 338.59C422.833 338.86 423.126 338.994 423.5 338.994C423.849 338.994 424.122 338.886 424.319 338.669C424.523 338.445 424.624 338.176 424.624 337.86ZM424.703 340V339.497H424.684C424.651 339.543 424.601 339.602 424.536 339.675C424.477 339.747 424.325 339.846 424.082 339.97C423.845 340.089 423.586 340.148 423.303 340.148C422.613 340.148 422.061 339.898 421.647 339.399C421.239 338.899 421.035 338.229 421.035 337.387C421.035 336.539 421.259 335.869 421.706 335.376C422.153 334.876 422.679 334.626 423.283 334.626C423.56 334.626 423.806 334.682 424.023 334.794C424.246 334.899 424.398 335.004 424.477 335.109L424.605 335.277H424.624V332.802H425.906V340H424.703ZM429.847 340V333.098H431.178V338.768H434.027V340H429.847ZM434.861 340V334.774H436.143V340H434.861ZM434.861 334.015V332.802H436.143V334.015H434.861ZM437.518 340V334.774H438.751V335.277H438.771C438.915 335.093 439.112 334.939 439.362 334.814C439.612 334.689 439.875 334.626 440.151 334.626C440.729 334.626 441.183 334.801 441.512 335.149C441.84 335.491 442.005 335.967 442.005 336.579V340H440.723V336.894C440.723 336.533 440.654 336.263 440.516 336.086C440.378 335.902 440.141 335.81 439.806 335.81C439.49 335.81 439.244 335.902 439.066 336.086C438.889 336.263 438.8 336.503 438.8 336.805V340H437.518ZM443.334 340V332.802H444.616V336.934H444.636L446.539 334.774H448.146L446.263 336.894L448.313 340H446.894L445.296 337.614H445.277L444.616 338.363V340H443.334Z" fill="#7986A3"/>
<path d="M495.489 308V301.098H498.418C499.029 301.098 499.519 301.279 499.887 301.64C500.261 301.995 500.449 302.432 500.449 302.952C500.449 303.53 500.199 303.967 499.699 304.263V304.273C499.995 304.398 500.235 304.598 500.419 304.874C500.61 305.144 500.705 305.469 500.705 305.851C500.705 306.508 500.505 307.034 500.104 307.428C499.703 307.809 499.042 308 498.122 308H495.489ZM496.82 306.768H498.427C499.059 306.768 499.374 306.462 499.374 305.851C499.374 305.568 499.289 305.351 499.118 305.2C498.953 305.042 498.727 304.963 498.437 304.963H496.82V306.768ZM496.82 303.879H498.25C498.519 303.879 498.73 303.816 498.881 303.691C499.039 303.56 499.118 303.369 499.118 303.119C499.118 302.856 499.042 302.659 498.891 302.528C498.74 302.396 498.526 302.331 498.25 302.331H496.82V303.879ZM504.357 308V301.098H505.688V306.768H508.538V308H504.357ZM510.604 306.58C510.815 306.856 511.104 306.994 511.472 306.994C511.84 306.994 512.129 306.856 512.34 306.58C512.55 306.298 512.655 305.9 512.655 305.387C512.655 304.874 512.547 304.48 512.33 304.204C512.119 303.921 511.833 303.78 511.472 303.78C511.11 303.78 510.821 303.918 510.604 304.194C510.394 304.47 510.289 304.868 510.289 305.387C510.289 305.906 510.394 306.304 510.604 306.58ZM513.227 307.418C512.767 307.905 512.182 308.148 511.472 308.148C510.762 308.148 510.177 307.905 509.717 307.418C509.257 306.932 509.027 306.255 509.027 305.387C509.027 304.533 509.263 303.859 509.736 303.366C510.21 302.873 510.788 302.626 511.472 302.626C512.155 302.626 512.734 302.873 513.207 303.366C513.68 303.859 513.917 304.533 513.917 305.387C513.917 306.255 513.687 306.932 513.227 307.418ZM516.238 304.904V305.86C516.238 306.176 516.337 306.445 516.534 306.669C516.738 306.886 517.014 306.994 517.362 306.994C517.737 306.994 518.026 306.86 518.23 306.59C518.44 306.314 518.545 305.913 518.545 305.387C518.545 304.855 518.44 304.454 518.23 304.184C518.026 303.915 517.737 303.78 517.362 303.78C517.014 303.78 516.738 303.888 516.534 304.105C516.337 304.322 516.238 304.588 516.238 304.904ZM514.956 308V300.802H516.238V303.277H516.258C516.271 303.257 516.287 303.234 516.307 303.208C516.327 303.175 516.376 303.123 516.455 303.05C516.541 302.978 516.629 302.912 516.721 302.853C516.82 302.794 516.945 302.741 517.096 302.695C517.254 302.649 517.418 302.626 517.589 302.626C518.233 302.626 518.766 302.883 519.186 303.395C519.614 303.902 519.827 304.565 519.827 305.387C519.827 306.229 519.62 306.899 519.206 307.399C518.798 307.898 518.25 308.148 517.559 308.148C517.277 308.148 517.02 308.095 516.79 307.99C516.56 307.878 516.403 307.77 516.317 307.665L516.179 307.497H516.159V308H514.956ZM522.141 304.904V305.86C522.141 306.176 522.239 306.445 522.436 306.669C522.64 306.886 522.916 306.994 523.265 306.994C523.639 306.994 523.929 306.86 524.132 306.59C524.343 306.314 524.448 305.913 524.448 305.387C524.448 304.855 524.343 304.454 524.132 304.184C523.929 303.915 523.639 303.78 523.265 303.78C522.916 303.78 522.64 303.888 522.436 304.105C522.239 304.322 522.141 304.588 522.141 304.904ZM520.859 308V300.802H522.141V303.277H522.16C522.174 303.257 522.19 303.234 522.21 303.208C522.229 303.175 522.279 303.123 522.358 303.05C522.443 302.978 522.532 302.912 522.624 302.853C522.722 302.794 522.847 302.741 522.998 302.695C523.156 302.649 523.321 302.626 523.491 302.626C524.136 302.626 524.668 302.883 525.089 303.395C525.516 303.902 525.73 304.565 525.73 305.387C525.73 306.229 525.523 306.899 525.108 307.399C524.701 307.898 524.152 308.148 523.462 308.148C523.179 308.148 522.923 308.095 522.693 307.99C522.463 307.878 522.305 307.77 522.22 307.665L522.081 307.497H522.062V308H520.859ZM526.973 310.219L528.018 307.744L525.928 302.774H527.229L528.58 306.314H528.6L529.951 302.774H531.252L528.245 310.219H526.973Z" fill="#7986A3"/>
<path d="M493.277 432V425.098H496.205C496.816 425.098 497.306 425.279 497.674 425.64C498.049 425.995 498.236 426.432 498.236 426.952C498.236 427.53 497.987 427.967 497.487 428.263V428.273C497.783 428.398 498.023 428.598 498.207 428.874C498.397 429.144 498.493 429.469 498.493 429.851C498.493 430.508 498.292 431.034 497.891 431.428C497.49 431.809 496.83 432 495.909 432H493.277ZM494.608 430.768H496.215C496.846 430.768 497.162 430.462 497.162 429.851C497.162 429.568 497.076 429.351 496.905 429.2C496.741 429.042 496.514 428.963 496.225 428.963H494.608V430.768ZM494.608 427.879H496.038C496.307 427.879 496.517 427.816 496.669 427.691C496.826 427.56 496.905 427.369 496.905 427.119C496.905 426.856 496.83 426.659 496.678 426.528C496.527 426.396 496.314 426.331 496.038 426.331H494.608V427.879ZM502.145 432V425.098H503.515L505.517 429.574H505.537L507.538 425.098H508.919V432H507.617V427.76H507.597L505.635 432H505.418L503.456 427.76H503.437V432H502.145ZM513.372 432V431.497H513.352C513.339 431.517 513.323 431.543 513.303 431.576C513.283 431.602 513.234 431.652 513.155 431.724C513.076 431.796 512.988 431.862 512.889 431.921C512.79 431.98 512.656 432.033 512.485 432.079C512.314 432.125 512.13 432.148 511.933 432.148C511.302 432.148 510.828 432 510.513 431.704C510.204 431.402 510.049 431.034 510.049 430.6C510.049 430.146 510.184 429.801 510.454 429.565C510.723 429.328 511.18 429.131 511.824 428.973C512.422 428.828 512.797 428.713 512.948 428.628C513.099 428.542 513.175 428.421 513.175 428.263C513.175 428.105 513.099 427.974 512.948 427.869C512.804 427.764 512.583 427.711 512.288 427.711C511.939 427.711 511.689 427.79 511.538 427.948C511.387 428.099 511.269 428.306 511.183 428.569L510.118 428.125C510.243 427.685 510.487 427.326 510.848 427.05C511.21 426.768 511.683 426.626 512.268 426.626C512.905 426.626 513.428 426.794 513.836 427.129C514.243 427.464 514.447 427.984 514.447 428.687V432H513.372ZM512.081 429.86C511.752 429.939 511.535 430.035 511.43 430.146C511.331 430.252 511.282 430.373 511.282 430.511C511.282 430.866 511.538 431.044 512.051 431.044C512.439 431.044 512.728 430.971 512.919 430.827C513.116 430.676 513.214 430.491 513.214 430.275V429.367H513.195C513.168 429.42 513.139 429.463 513.106 429.496C513.08 429.522 512.981 429.571 512.81 429.644C512.639 429.709 512.396 429.782 512.081 429.86ZM515.729 432V426.774H517.011V432H515.729ZM515.729 426.015V424.802H517.011V426.015H515.729ZM518.386 432V426.774H519.619V427.277H519.639C519.783 427.093 519.98 426.939 520.23 426.814C520.48 426.689 520.743 426.626 521.019 426.626C521.597 426.626 522.051 426.801 522.38 427.149C522.708 427.491 522.873 427.967 522.873 428.579V432H521.591V428.894C521.591 428.533 521.522 428.263 521.384 428.086C521.246 427.902 521.009 427.81 520.674 427.81C520.358 427.81 520.112 427.902 519.934 428.086C519.757 428.263 519.668 428.503 519.668 428.805V432H518.386Z" fill="#7986A3"/>
<path d="M631.983 525V518.098H634.911C635.523 518.098 636.012 518.279 636.381 518.64C636.755 518.995 636.943 519.432 636.943 519.952C636.943 520.53 636.693 520.967 636.193 521.263V521.273C636.489 521.398 636.729 521.598 636.913 521.874C637.104 522.144 637.199 522.469 637.199 522.851C637.199 523.508 636.998 524.034 636.598 524.428C636.197 524.809 635.536 525 634.616 525H631.983ZM633.314 523.768H634.921C635.552 523.768 635.868 523.462 635.868 522.851C635.868 522.568 635.782 522.351 635.612 522.2C635.447 522.042 635.22 521.963 634.931 521.963H633.314V523.768ZM633.314 520.879H634.744C635.013 520.879 635.224 520.816 635.375 520.691C635.533 520.56 635.612 520.369 635.612 520.119C635.612 519.856 635.536 519.659 635.385 519.528C635.234 519.396 635.02 519.331 634.744 519.331H633.314V520.879ZM640.851 525V518.098H643.78C644.391 518.098 644.881 518.279 645.249 518.64C645.623 518.995 645.811 519.432 645.811 519.952C645.811 520.53 645.561 520.967 645.061 521.263V521.273C645.357 521.398 645.597 521.598 645.781 521.874C645.972 522.144 646.067 522.469 646.067 522.851C646.067 523.508 645.867 524.034 645.466 524.428C645.065 524.809 644.404 525 643.484 525H640.851ZM642.182 523.768H643.789C644.421 523.768 644.736 523.462 644.736 522.851C644.736 522.568 644.651 522.351 644.48 522.2C644.315 522.042 644.089 521.963 643.799 521.963H642.182V523.768ZM642.182 520.879H643.612C643.882 520.879 644.092 520.816 644.243 520.691C644.401 520.56 644.48 520.369 644.48 520.119C644.48 519.856 644.404 519.659 644.253 519.528C644.102 519.396 643.888 519.331 643.612 519.331H642.182V520.879ZM650.133 525V524.497H650.114C650.101 524.517 650.084 524.543 650.064 524.576C650.045 524.602 649.995 524.652 649.917 524.724C649.838 524.796 649.749 524.862 649.65 524.921C649.552 524.98 649.417 525.033 649.246 525.079C649.075 525.125 648.891 525.148 648.694 525.148C648.063 525.148 647.59 525 647.274 524.704C646.965 524.402 646.811 524.034 646.811 523.6C646.811 523.146 646.945 522.801 647.215 522.565C647.484 522.328 647.941 522.131 648.585 521.973C649.184 521.828 649.558 521.713 649.71 521.628C649.861 521.542 649.936 521.421 649.936 521.263C649.936 521.105 649.861 520.974 649.71 520.869C649.565 520.764 649.345 520.711 649.049 520.711C648.701 520.711 648.451 520.79 648.3 520.948C648.148 521.099 648.03 521.306 647.945 521.569L646.88 521.125C647.005 520.685 647.248 520.326 647.609 520.05C647.971 519.768 648.444 519.626 649.029 519.626C649.667 519.626 650.189 519.794 650.597 520.129C651.004 520.464 651.208 520.984 651.208 521.687V525H650.133ZM648.842 522.86C648.513 522.939 648.296 523.035 648.191 523.146C648.092 523.252 648.043 523.373 648.043 523.511C648.043 523.866 648.3 524.044 648.812 524.044C649.2 524.044 649.489 523.971 649.68 523.827C649.877 523.675 649.976 523.491 649.976 523.275V522.367H649.956C649.93 522.42 649.9 522.463 649.867 522.496C649.841 522.522 649.742 522.571 649.571 522.643C649.401 522.709 649.157 522.782 648.842 522.86ZM655.626 522.89L656.838 523.205C656.72 523.83 656.464 524.31 656.069 524.645C655.675 524.98 655.179 525.148 654.58 525.148C653.871 525.148 653.286 524.905 652.825 524.418C652.372 523.932 652.145 523.255 652.145 522.387C652.145 521.526 652.378 520.852 652.845 520.366C653.318 519.873 653.9 519.626 654.59 519.626C655.175 519.626 655.665 519.797 656.059 520.139C656.454 520.481 656.697 520.938 656.789 521.51L655.596 521.736C655.471 521.099 655.136 520.78 654.59 520.78C654.229 520.78 653.94 520.918 653.723 521.194C653.512 521.464 653.407 521.861 653.407 522.387C653.407 522.913 653.512 523.314 653.723 523.59C653.933 523.86 654.222 523.994 654.59 523.994C655.169 523.994 655.514 523.626 655.626 522.89ZM657.825 525V517.802H659.106V521.934H659.126L661.029 519.774H662.636L660.753 521.894L662.804 525H661.384L659.787 522.614H659.767L659.106 523.363V525H657.825Z" fill="#7986A3"/>
<path d="M331.285 428V421.098H332.656L334.658 425.574H334.677L336.679 421.098H338.059V428H336.758V423.76H336.738L334.776 428H334.559L332.597 423.76H332.577V428H331.285ZM339.535 428V422.774H340.817V428H339.535ZM339.535 422.015V420.802H340.817V422.015H339.535ZM345.437 425.86V424.904C345.437 424.588 345.335 424.322 345.131 424.105C344.934 423.888 344.661 423.78 344.312 423.78C343.938 423.78 343.645 423.915 343.435 424.184C343.231 424.454 343.129 424.855 343.129 425.387C343.129 425.913 343.231 426.314 343.435 426.59C343.645 426.86 343.938 426.994 344.312 426.994C344.661 426.994 344.934 426.886 345.131 426.669C345.335 426.445 345.437 426.176 345.437 425.86ZM345.515 428V427.497H345.496C345.463 427.543 345.414 427.602 345.348 427.675C345.289 427.747 345.137 427.846 344.894 427.97C344.658 428.089 344.398 428.148 344.115 428.148C343.425 428.148 342.873 427.898 342.459 427.399C342.051 426.899 341.848 426.229 341.848 425.387C341.848 424.539 342.071 423.869 342.518 423.376C342.965 422.876 343.491 422.626 344.096 422.626C344.372 422.626 344.618 422.682 344.835 422.794C345.059 422.899 345.21 423.004 345.289 423.109L345.417 423.277H345.437V420.802H346.718V428H345.515ZM350.659 428V421.098H353.587C354.198 421.098 354.688 421.279 355.056 421.64C355.431 421.995 355.618 422.432 355.618 422.952C355.618 423.53 355.368 423.967 354.869 424.263V424.273C355.165 424.398 355.405 424.598 355.589 424.874C355.779 425.144 355.875 425.469 355.875 425.851C355.875 426.508 355.674 427.034 355.273 427.428C354.872 427.809 354.212 428 353.291 428H350.659ZM351.99 426.768H353.597C354.228 426.768 354.543 426.462 354.543 425.851C354.543 425.568 354.458 425.351 354.287 425.2C354.123 425.042 353.896 424.963 353.607 424.963H351.99V426.768ZM351.99 423.879H353.419C353.689 423.879 353.899 423.816 354.05 423.691C354.208 423.56 354.287 423.369 354.287 423.119C354.287 422.856 354.212 422.659 354.06 422.528C353.909 422.396 353.696 422.331 353.419 422.331H351.99V423.879ZM358.196 426.58C358.406 426.856 358.695 426.994 359.063 426.994C359.431 426.994 359.721 426.856 359.931 426.58C360.141 426.298 360.247 425.9 360.247 425.387C360.247 424.874 360.138 424.48 359.921 424.204C359.711 423.921 359.425 423.78 359.063 423.78C358.702 423.78 358.413 423.918 358.196 424.194C357.985 424.47 357.88 424.868 357.88 425.387C357.88 425.906 357.985 426.304 358.196 426.58ZM360.818 427.418C360.358 427.905 359.773 428.148 359.063 428.148C358.353 428.148 357.768 427.905 357.308 427.418C356.848 426.932 356.618 426.255 356.618 425.387C356.618 424.533 356.855 423.859 357.328 423.366C357.801 422.873 358.38 422.626 359.063 422.626C359.747 422.626 360.325 422.873 360.799 423.366C361.272 423.859 361.509 424.533 361.509 425.387C361.509 426.255 361.279 426.932 360.818 427.418ZM362.814 426.136V423.859H362.006V422.774H362.844V421.492H364.057V422.774H365.378V423.859H364.076V426.018C364.076 426.294 364.122 426.488 364.214 426.6C364.306 426.712 364.494 426.768 364.776 426.768H365.2V428H364.658C363.955 428 363.471 427.852 363.209 427.556C362.946 427.261 362.814 426.787 362.814 426.136ZM366.531 426.136V423.859H365.722V422.774H366.56V421.492H367.773V422.774H369.094V423.859H367.793V426.018C367.793 426.294 367.839 426.488 367.931 426.6C368.023 426.712 368.21 426.768 368.493 426.768H368.917V428H368.375C367.671 428 367.188 427.852 366.925 427.556C366.662 427.261 366.531 426.787 366.531 426.136ZM371.31 426.58C371.521 426.856 371.81 426.994 372.178 426.994C372.546 426.994 372.835 426.856 373.046 426.58C373.256 426.298 373.361 425.9 373.361 425.387C373.361 424.874 373.253 424.48 373.036 424.204C372.825 423.921 372.539 423.78 372.178 423.78C371.816 423.78 371.527 423.918 371.31 424.194C371.1 424.47 370.995 424.868 370.995 425.387C370.995 425.906 371.1 426.304 371.31 426.58ZM373.933 427.418C373.473 427.905 372.888 428.148 372.178 428.148C371.468 428.148 370.883 427.905 370.423 427.418C369.963 426.932 369.733 426.255 369.733 425.387C369.733 424.533 369.969 423.859 370.442 423.366C370.916 422.873 371.494 422.626 372.178 422.626C372.861 422.626 373.44 422.873 373.913 423.366C374.386 423.859 374.623 424.533 374.623 425.387C374.623 426.255 374.393 426.932 373.933 427.418ZM375.662 428V422.774H376.836V423.277H376.855C376.974 423.093 377.145 422.939 377.368 422.814C377.598 422.689 377.848 422.626 378.118 422.626C378.394 422.626 378.653 422.692 378.896 422.824C379.14 422.948 379.324 423.113 379.449 423.317H379.468C379.6 423.113 379.787 422.948 380.03 422.824C380.274 422.692 380.54 422.626 380.829 422.626C381.453 422.626 381.946 422.791 382.308 423.119C382.676 423.448 382.86 423.882 382.86 424.421V428H381.687V424.687C381.687 424.431 381.611 424.22 381.46 424.056C381.315 423.892 381.089 423.81 380.78 423.81C380.49 423.81 380.267 423.885 380.109 424.036C379.958 424.187 379.882 424.381 379.882 424.618V428H378.709V424.687C378.709 424.437 378.63 424.23 378.472 424.066C378.315 423.895 378.091 423.81 377.802 423.81C377.506 423.81 377.283 423.885 377.132 424.036C376.98 424.187 376.905 424.381 376.905 424.618V428H375.662Z" fill="#7986A3"/>
<path d="M314.792 498V491.098H316.162L318.164 495.574H318.184L320.185 491.098H321.566V498H320.264V493.76H320.244L318.282 498H318.065L316.103 493.76H316.083V498H314.792ZM323.041 498V492.774H324.323V498H323.041ZM323.041 492.015V490.802H324.323V492.015H323.041ZM328.943 495.86V494.904C328.943 494.588 328.841 494.322 328.637 494.105C328.44 493.888 328.167 493.78 327.819 493.78C327.444 493.78 327.152 493.915 326.941 494.184C326.737 494.454 326.636 494.855 326.636 495.387C326.636 495.913 326.737 496.314 326.941 496.59C327.152 496.86 327.444 496.994 327.819 496.994C328.167 496.994 328.44 496.886 328.637 496.669C328.841 496.445 328.943 496.176 328.943 495.86ZM329.022 498V497.497H329.002C328.969 497.543 328.92 497.602 328.854 497.675C328.795 497.747 328.644 497.846 328.401 497.97C328.164 498.089 327.904 498.148 327.622 498.148C326.931 498.148 326.379 497.898 325.965 497.399C325.558 496.899 325.354 496.229 325.354 495.387C325.354 494.539 325.577 493.869 326.024 493.376C326.471 492.876 326.997 492.626 327.602 492.626C327.878 492.626 328.124 492.682 328.341 492.794C328.565 492.899 328.716 493.004 328.795 493.109L328.923 493.277H328.943V490.802H330.225V498H329.022ZM334.165 498V491.098H336.965C337.668 491.098 338.24 491.299 338.681 491.7C339.121 492.094 339.341 492.626 339.341 493.297C339.341 493.967 339.128 494.5 338.701 494.894C338.28 495.289 337.701 495.486 336.965 495.486H335.496V498H334.165ZM335.496 494.253H336.945C337.241 494.253 337.484 494.168 337.675 493.997C337.866 493.819 337.961 493.586 337.961 493.297C337.961 492.962 337.862 492.718 337.665 492.567C337.475 492.409 337.235 492.331 336.945 492.331H335.496V494.253ZM340.084 498V492.774H341.366V498H340.084ZM340.084 492.015V490.802H341.366V492.015H340.084ZM342.446 498V496.925L345.227 493.977V493.957H342.555V492.774H346.863V493.829L344.142 496.748V496.768H346.962V498H342.446ZM347.752 498V496.925L350.532 493.977V493.957H347.86V492.774H352.169V493.829L349.448 496.748V496.768H352.267V498H347.752ZM356.331 498V497.497H356.311C356.298 497.517 356.281 497.543 356.262 497.576C356.242 497.602 356.193 497.652 356.114 497.724C356.035 497.796 355.946 497.862 355.847 497.921C355.749 497.98 355.614 498.033 355.443 498.079C355.272 498.125 355.088 498.148 354.891 498.148C354.26 498.148 353.787 498 353.471 497.704C353.162 497.402 353.008 497.034 353.008 496.6C353.008 496.146 353.143 495.801 353.412 495.565C353.682 495.328 354.138 495.131 354.783 494.973C355.381 494.828 355.755 494.713 355.907 494.628C356.058 494.542 356.133 494.421 356.133 494.263C356.133 494.105 356.058 493.974 355.907 493.869C355.762 493.764 355.542 493.711 355.246 493.711C354.898 493.711 354.648 493.79 354.497 493.948C354.345 494.099 354.227 494.306 354.142 494.569L353.077 494.125C353.202 493.685 353.445 493.326 353.806 493.05C354.168 492.768 354.641 492.626 355.226 492.626C355.864 492.626 356.386 492.794 356.794 493.129C357.202 493.464 357.405 493.984 357.405 494.687V498H356.331ZM355.039 495.86C354.71 495.939 354.493 496.035 354.388 496.146C354.29 496.252 354.24 496.373 354.24 496.511C354.24 496.866 354.497 497.044 355.009 497.044C355.397 497.044 355.686 496.971 355.877 496.827C356.074 496.675 356.173 496.491 356.173 496.275V495.367H356.153C356.127 495.42 356.097 495.463 356.064 495.496C356.038 495.522 355.939 495.571 355.769 495.643C355.598 495.709 355.354 495.782 355.039 495.86Z" fill="#7986A3"/>
<path d="M376.056 509V502.098H377.426L379.428 506.574H379.448L381.449 502.098H382.83V509H381.528V504.76H381.508L379.546 509H379.329L377.367 504.76H377.347V509H376.056ZM384.305 509V503.774H385.587V509H384.305ZM384.305 503.015V501.802H385.587V503.015H384.305ZM390.207 506.86V505.904C390.207 505.588 390.105 505.322 389.901 505.105C389.704 504.888 389.431 504.78 389.083 504.78C388.708 504.78 388.416 504.915 388.205 505.184C388.001 505.454 387.9 505.855 387.9 506.387C387.9 506.913 388.001 507.314 388.205 507.59C388.416 507.86 388.708 507.994 389.083 507.994C389.431 507.994 389.704 507.886 389.901 507.669C390.105 507.445 390.207 507.176 390.207 506.86ZM390.286 509V508.497H390.266C390.233 508.543 390.184 508.602 390.118 508.675C390.059 508.747 389.908 508.846 389.665 508.97C389.428 509.089 389.168 509.148 388.886 509.148C388.195 509.148 387.643 508.898 387.229 508.399C386.822 507.899 386.618 507.229 386.618 506.387C386.618 505.539 386.841 504.869 387.288 504.376C387.735 503.876 388.261 503.626 388.866 503.626C389.142 503.626 389.388 503.682 389.605 503.794C389.829 503.899 389.98 504.004 390.059 504.109L390.187 504.277H390.207V501.802H391.489V509H390.286ZM395.429 509V502.098H396.799L398.801 506.574H398.821L400.822 502.098H402.203V509H400.901V504.76H400.881L398.919 509H398.702L396.74 504.76H396.721V509H395.429ZM406.656 509V508.497H406.637C406.623 508.517 406.607 508.543 406.587 508.576C406.568 508.602 406.518 508.652 406.439 508.724C406.36 508.796 406.272 508.862 406.173 508.921C406.075 508.98 405.94 509.033 405.769 509.079C405.598 509.125 405.414 509.148 405.217 509.148C404.586 509.148 404.112 509 403.797 508.704C403.488 508.402 403.333 508.034 403.333 507.6C403.333 507.146 403.468 506.801 403.738 506.565C404.007 506.328 404.464 506.131 405.108 505.973C405.706 505.828 406.081 505.713 406.232 505.628C406.383 505.542 406.459 505.421 406.459 505.263C406.459 505.105 406.383 504.974 406.232 504.869C406.088 504.764 405.867 504.711 405.572 504.711C405.223 504.711 404.973 504.79 404.822 504.948C404.671 505.099 404.553 505.306 404.467 505.569L403.402 505.125C403.527 504.685 403.771 504.326 404.132 504.05C404.494 503.768 404.967 503.626 405.552 503.626C406.19 503.626 406.712 503.794 407.12 504.129C407.527 504.464 407.731 504.984 407.731 505.687V509H406.656ZM405.365 506.86C405.036 506.939 404.819 507.035 404.714 507.146C404.615 507.252 404.566 507.373 404.566 507.511C404.566 507.866 404.822 508.044 405.335 508.044C405.723 508.044 406.012 507.971 406.203 507.827C406.4 507.675 406.498 507.491 406.498 507.275V506.367H406.479C406.452 506.42 406.423 506.463 406.39 506.496C406.364 506.522 406.265 506.571 406.094 506.643C405.923 506.709 405.68 506.782 405.365 506.86ZM409.013 509V503.774H410.226V504.326H410.245C410.344 504.129 410.489 503.971 410.679 503.853C410.876 503.735 411.09 503.676 411.32 503.676C411.484 503.676 411.642 503.709 411.793 503.774L411.596 505.017C411.452 504.964 411.317 504.938 411.192 504.938C410.594 504.938 410.295 505.335 410.295 506.131V509H409.013ZM412.633 509V501.802H413.915V505.934H413.935L415.838 503.774H417.445L415.562 505.894L417.613 509H416.193L414.595 506.614H414.576L413.915 507.363V509H412.633ZM421.504 507.196L422.401 507.984C421.869 508.76 421.149 509.148 420.242 509.148C419.512 509.148 418.917 508.898 418.457 508.399C417.997 507.892 417.767 507.222 417.767 506.387C417.767 505.552 417.994 504.885 418.447 504.386C418.908 503.879 419.486 503.626 420.183 503.626C420.88 503.626 421.451 503.879 421.898 504.386C422.352 504.885 422.579 505.552 422.579 506.387V506.772H419.069C419.088 507.173 419.197 507.482 419.394 507.698C419.598 507.909 419.874 508.014 420.222 508.014C420.518 508.014 420.761 507.942 420.952 507.797C421.149 507.646 421.333 507.445 421.504 507.196ZM419.069 505.815H421.336C421.303 505.48 421.188 505.22 420.991 505.036C420.794 504.846 420.525 504.75 420.183 504.75C419.867 504.75 419.608 504.852 419.404 505.056C419.207 505.26 419.095 505.513 419.069 505.815ZM423.876 507.136V504.859H423.068V503.774H423.906V502.492H425.119V503.774H426.44V504.859H425.139V507.018C425.139 507.294 425.185 507.488 425.277 507.6C425.369 507.712 425.556 507.768 425.839 507.768H426.263V509H425.72C425.017 509 424.534 508.852 424.271 508.556C424.008 508.261 423.876 507.787 423.876 507.136Z" fill="#7986A3"/>
<path d="M200.825 433L200.431 431.866H197.798L197.404 433H196.083L198.577 426.098H199.711L202.196 433H200.825ZM199.11 428.07L198.173 430.762H200.056L199.129 428.07H199.11ZM205.498 433V426.098H206.829V431.768H209.678V433H205.498ZM210.512 433V427.774H211.794V433H210.512ZM210.512 427.015V425.802H211.794V427.015H210.512ZM213.17 433V427.774H214.402V428.277H214.422C214.566 428.093 214.764 427.939 215.013 427.814C215.263 427.689 215.526 427.626 215.802 427.626C216.381 427.626 216.834 427.801 217.163 428.149C217.492 428.491 217.656 428.967 217.656 429.579V433H216.374V429.894C216.374 429.533 216.305 429.263 216.167 429.086C216.029 428.902 215.792 428.81 215.457 428.81C215.142 428.81 214.895 428.902 214.718 429.086C214.54 429.263 214.451 429.503 214.451 429.805V433H213.17ZM218.985 433V425.802H220.267V429.934H220.287L222.19 427.774H223.797L221.914 429.894L223.965 433H222.545L220.948 430.614H220.928L220.267 431.363V433H218.985Z" fill="#7986A3"/>
<path d="M28.9958 367L28.6014 365.866H25.9688L25.5744 367H24.2532L26.7478 360.098H27.8817L30.3664 367H28.9958ZM27.2802 362.07L26.3435 364.762H28.2268L27.2999 362.07H27.2802ZM34.5162 367L33.1753 360.098H34.5261L35.4135 364.791H35.4431L37.0305 360.098H37.701L39.2884 364.791H39.318L40.2054 360.098H41.5266L40.1857 367H38.8053L37.3855 362.711H37.3263L35.8966 367H34.5162ZM42.5149 367V361.774H43.7966V367H42.5149ZM42.5149 361.015V359.802H43.7966V361.015H42.5149ZM45.1724 367V361.774H46.4049V362.277H46.4246C46.5692 362.093 46.7664 361.939 47.0162 361.814C47.266 361.689 47.5289 361.626 47.805 361.626C48.3835 361.626 48.837 361.801 49.1657 362.149C49.4943 362.491 49.6587 362.967 49.6587 363.579V367H48.3769V363.894C48.3769 363.533 48.3079 363.263 48.1698 363.086C48.0318 362.902 47.7951 362.81 47.4599 362.81C47.1444 362.81 46.8979 362.902 46.7204 363.086C46.5429 363.263 46.4542 363.503 46.4542 363.805V367H45.1724ZM54.38 365.196L55.2773 365.984C54.7449 366.76 54.0251 367.148 53.118 367.148C52.3883 367.148 51.7934 366.898 51.3333 366.399C50.8732 365.892 50.6431 365.222 50.6431 364.387C50.6431 363.552 50.8699 362.885 51.3235 362.386C51.7836 361.879 52.362 361.626 53.0588 361.626C53.7556 361.626 54.3274 361.879 54.7744 362.386C55.228 362.885 55.4548 363.552 55.4548 364.387V364.772H51.9446C51.9644 365.173 52.0728 365.482 52.27 365.698C52.4738 365.909 52.7499 366.014 53.0982 366.014C53.394 366.014 53.6373 365.942 53.8279 365.797C54.0251 365.646 54.2091 365.445 54.38 365.196ZM51.9446 363.815H54.2124C54.1795 363.48 54.0645 363.22 53.8673 363.036C53.6701 362.846 53.4006 362.75 53.0588 362.75C52.7433 362.75 52.4836 362.852 52.2799 363.056C52.0827 363.26 51.9709 363.513 51.9446 363.815Z" fill="#7986A3"/>
<rect opacity="0.5" x="149" y="525" width="103" height="62" rx="4.1083" transform="rotate(-180 149 525)" fill="#4D5F83" fill-opacity="0.15" stroke="#4D5F83" stroke-width="1.64332" stroke-miterlimit="16"/>
<g opacity="0.15">
<mask id="mask0" mask-type="alpha" maskUnits="userSpaceOnUse" x="46" y="463" width="103" height="62">
<rect x="149" y="525" width="103" height="62" rx="4.1083" transform="rotate(-180 149 525)" fill="#C4C4C4"/>
</mask>
<g mask="url(#mask0)">
<rect width="182.241" height="3.70032" transform="matrix(0.703677 -0.703134 0.703676 0.703134 85.3011 603.814)" fill="#4D5F83"/>
<rect width="182.241" height="3.70032" transform="matrix(0.703676 -0.703134 0.703676 0.703134 80.0945 598.611)" fill="#4D5F83"/>
<rect width="182.241" height="3.70032" transform="matrix(0.703676 -0.703134 0.703676 0.703134 74.8862 593.406)" fill="#4D5F83"/>
<rect width="182.241" height="3.70032" transform="matrix(0.703676 -0.703134 0.703676 0.703134 69.6785 588.203)" fill="#4D5F83"/>
<rect width="182.241" height="3.70032" transform="matrix(0.703676 -0.703134 0.703676 0.703134 64.4708 582.999)" fill="#4D5F83"/>
<rect width="182.241" height="3.70032" transform="matrix(0.703676 -0.703134 0.703676 0.703134 59.2637 577.796)" fill="#4D5F83"/>
<rect width="182.241" height="3.70032" transform="matrix(0.703676 -0.703134 0.703676 0.703134 54.0554 572.592)" fill="#4D5F83"/>
<rect width="182.241" height="3.70032" transform="matrix(0.703676 -0.703134 0.703676 0.703134 48.8481 567.389)" fill="#4D5F83"/>
<rect width="182.241" height="3.70032" transform="matrix(0.703677 -0.703134 0.703676 0.703134 43.6404 562.185)" fill="#4D5F83"/>
<rect width="182.241" height="3.70032" transform="matrix(0.703676 -0.703134 0.703676 0.703134 38.4327 556.982)" fill="#4D5F83"/>
<rect width="182.241" height="3.70032" transform="matrix(0.703676 -0.703134 0.703676 0.703134 33.225 551.778)" fill="#4D5F83"/>
<rect width="182.241" height="3.70032" transform="matrix(0.703676 -0.703134 0.703676 0.703134 28.0172 546.575)" fill="#4D5F83"/>
<rect width="182.241" height="3.70032" transform="matrix(0.703676 -0.703134 0.703676 0.703134 22.8094 541.371)" fill="#4D5F83"/>
<rect width="182.241" height="3.70032" transform="matrix(0.703677 -0.703134 0.703676 0.703134 17.6018 536.167)" fill="#4D5F83"/>
<rect width="182.241" height="3.70032" transform="matrix(0.703677 -0.703134 0.703676 0.703134 12.3947 530.963)" fill="#4D5F83"/>
<rect width="182.241" height="3.70032" transform="matrix(0.703676 -0.703134 0.703676 0.703134 7.1864 525.759)" fill="#4D5F83"/>
<rect width="182.241" height="3.70032" transform="matrix(0.703676 -0.703134 0.703676 0.703134 1.97913 520.556)" fill="#4D5F83"/>
<rect width="182.241" height="3.70032" transform="matrix(0.703676 -0.703134 0.703676 0.703134 -3.22913 515.353)" fill="#4D5F83"/>
<rect width="182.241" height="3.70032" transform="matrix(0.703676 -0.703134 0.703676 0.703134 -8.43579 510.149)" fill="#4D5F83"/>
<rect width="182.241" height="3.70032" transform="matrix(0.703676 -0.703134 0.703676 0.703134 -13.6436 504.945)" fill="#4D5F83"/>
<rect width="182.241" height="3.70032" transform="matrix(0.703676 -0.703134 0.703676 0.703134 -18.8523 499.741)" fill="#4D5F83"/>
</g>
</g>
<path d="M100.311 499L99.6537 497.11H95.266L94.6087 499H92.4067L96.5643 487.497H98.4541L102.595 499H100.311ZM97.4517 490.783L95.8905 495.27H99.0293L97.4845 490.783H97.4517Z" fill="#E5EBEF"/>
<rect opacity="0.5" x="620" y="571" width="87" height="95" rx="4.1083" transform="rotate(-180 620 571)" fill="#4D5F83" fill-opacity="0.15" stroke="#4D5F83" stroke-width="1.64332" stroke-miterlimit="16"/>
<g opacity="0.15">
<mask id="mask1" mask-type="alpha" maskUnits="userSpaceOnUse" x="533" y="476" width="87" height="95">
<rect x="620" y="571" width="87" height="95" rx="4.1083" transform="rotate(-180 620 571)" fill="#C4C4C4"/>
</mask>
<g mask="url(#mask1)">
<rect width="182.241" height="3.70032" transform="matrix(0.703677 -0.703134 0.703676 0.703134 563.301 634.814)" fill="#4D5F83"/>
<rect width="182.241" height="3.70032" transform="matrix(0.703676 -0.703134 0.703676 0.703134 558.094 629.611)" fill="#4D5F83"/>
<rect width="182.241" height="3.70032" transform="matrix(0.703676 -0.703134 0.703676 0.703134 552.886 624.407)" fill="#4D5F83"/>
<rect width="182.241" height="3.70032" transform="matrix(0.703676 -0.703134 0.703676 0.703134 547.678 619.203)" fill="#4D5F83"/>
<rect width="182.241" height="3.70032" transform="matrix(0.703676 -0.703134 0.703676 0.703134 542.471 613.999)" fill="#4D5F83"/>
<rect width="182.241" height="3.70032" transform="matrix(0.703676 -0.703134 0.703676 0.703134 537.263 608.796)" fill="#4D5F83"/>
<rect width="182.241" height="3.70032" transform="matrix(0.703676 -0.703134 0.703676 0.703134 532.055 603.592)" fill="#4D5F83"/>
<rect width="182.241" height="3.70032" transform="matrix(0.703676 -0.703134 0.703676 0.703134 526.848 598.389)" fill="#4D5F83"/>
<rect width="182.241" height="3.70032" transform="matrix(0.703677 -0.703134 0.703676 0.703134 521.64 593.186)" fill="#4D5F83"/>
<rect width="182.241" height="3.70032" transform="matrix(0.703676 -0.703134 0.703676 0.703134 516.433 587.982)" fill="#4D5F83"/>
<rect width="182.241" height="3.70032" transform="matrix(0.703676 -0.703134 0.703676 0.703134 511.225 582.778)" fill="#4D5F83"/>
<rect width="182.241" height="3.70032" transform="matrix(0.703676 -0.703134 0.703676 0.703134 506.017 577.575)" fill="#4D5F83"/>
<rect width="182.241" height="3.70032" transform="matrix(0.703676 -0.703134 0.703676 0.703134 500.809 572.371)" fill="#4D5F83"/>
<rect width="182.241" height="3.70032" transform="matrix(0.703677 -0.703134 0.703676 0.703134 495.602 567.167)" fill="#4D5F83"/>
<rect width="182.241" height="3.70032" transform="matrix(0.703677 -0.703134 0.703676 0.703134 490.395 561.963)" fill="#4D5F83"/>
<rect width="182.241" height="3.70032" transform="matrix(0.703676 -0.703134 0.703676 0.703134 485.186 556.759)" fill="#4D5F83"/>
<rect width="182.241" height="3.70032" transform="matrix(0.703676 -0.703134 0.703676 0.703134 479.979 551.556)" fill="#4D5F83"/>
<rect width="182.241" height="3.70032" transform="matrix(0.703676 -0.703134 0.703676 0.703134 474.771 546.353)" fill="#4D5F83"/>
<rect width="182.241" height="3.70032" transform="matrix(0.703676 -0.703134 0.703676 0.703134 469.564 541.149)" fill="#4D5F83"/>
<rect width="182.241" height="3.70032" transform="matrix(0.703676 -0.703134 0.703676 0.703134 464.356 535.945)" fill="#4D5F83"/>
<rect width="182.241" height="3.70032" transform="matrix(0.703676 -0.703134 0.703676 0.703134 459.147 530.742)" fill="#4D5F83"/>
</g>
</g>
<path d="M572.479 528V516.497H577.359C578.378 516.497 579.194 516.798 579.808 517.401C580.432 517.992 580.745 518.721 580.745 519.586C580.745 520.55 580.328 521.279 579.496 521.772V521.788C579.989 521.996 580.389 522.331 580.695 522.791C581.013 523.24 581.172 523.782 581.172 524.418C581.172 525.513 580.838 526.39 580.169 527.047C579.501 527.682 578.4 528 576.866 528H572.479ZM574.697 525.946H577.376C578.427 525.946 578.953 525.436 578.953 524.418C578.953 523.947 578.811 523.585 578.526 523.333C578.252 523.07 577.874 522.939 577.392 522.939H574.697V525.946ZM574.697 521.131H577.08C577.529 521.131 577.88 521.027 578.132 520.819C578.395 520.6 578.526 520.282 578.526 519.866C578.526 519.427 578.4 519.099 578.148 518.88C577.896 518.661 577.54 518.551 577.08 518.551H574.697V521.131Z" fill="#E5EBEF"/>
<path d="M386.436 123L385.916 121.505H382.445L381.925 123H380.183L383.472 113.9H384.967L388.243 123H386.436ZM384.174 116.5L382.939 120.049H385.422L384.2 116.5H384.174ZM389.314 120.543V117.54H388.248V116.11H389.353V114.42H390.952V116.11H392.694V117.54H390.978V120.387C390.978 120.751 391.038 121.007 391.16 121.154C391.281 121.301 391.528 121.375 391.901 121.375H392.46V123H391.745C390.817 123 390.18 122.805 389.834 122.415C389.487 122.025 389.314 121.401 389.314 120.543ZM394.214 120.543V117.54H393.148V116.11H394.253V114.42H395.852V116.11H397.594V117.54H395.878V120.387C395.878 120.751 395.939 121.007 396.06 121.154C396.181 121.301 396.428 121.375 396.801 121.375H397.36V123H396.645C395.718 123 395.081 122.805 394.734 122.415C394.387 122.025 394.214 121.401 394.214 120.543ZM402.69 123V122.337H402.664C402.646 122.363 402.625 122.398 402.599 122.441C402.573 122.476 402.508 122.541 402.404 122.636C402.3 122.731 402.183 122.818 402.053 122.896C401.923 122.974 401.745 123.043 401.52 123.104C401.294 123.165 401.052 123.195 400.792 123.195C399.96 123.195 399.336 123 398.92 122.61C398.512 122.211 398.309 121.726 398.309 121.154C398.309 120.556 398.486 120.101 398.842 119.789C399.197 119.477 399.799 119.217 400.649 119.009C401.437 118.818 401.931 118.667 402.131 118.554C402.33 118.441 402.43 118.281 402.43 118.073C402.43 117.865 402.33 117.692 402.131 117.553C401.94 117.414 401.65 117.345 401.26 117.345C400.8 117.345 400.471 117.449 400.272 117.657C400.072 117.856 399.916 118.129 399.804 118.476L398.4 117.891C398.564 117.31 398.885 116.838 399.362 116.474C399.838 116.101 400.462 115.915 401.234 115.915C402.074 115.915 402.763 116.136 403.301 116.578C403.838 117.02 404.107 117.705 404.107 118.632V123H402.69ZM400.987 120.179C400.553 120.283 400.267 120.409 400.129 120.556C399.999 120.695 399.934 120.855 399.934 121.037C399.934 121.505 400.272 121.739 400.948 121.739C401.459 121.739 401.84 121.644 402.092 121.453C402.352 121.254 402.482 121.011 402.482 120.725V119.529H402.456C402.421 119.598 402.382 119.655 402.339 119.698C402.304 119.733 402.174 119.798 401.949 119.893C401.723 119.98 401.403 120.075 400.987 120.179ZM409.931 120.218L411.53 120.634C411.374 121.457 411.036 122.09 410.516 122.532C409.996 122.974 409.341 123.195 408.553 123.195C407.617 123.195 406.845 122.874 406.239 122.233C405.641 121.592 405.342 120.699 405.342 119.555C405.342 118.42 405.649 117.531 406.265 116.89C406.889 116.24 407.656 115.915 408.566 115.915C409.337 115.915 409.983 116.14 410.503 116.591C411.023 117.042 411.343 117.644 411.465 118.398L409.892 118.697C409.727 117.856 409.285 117.436 408.566 117.436C408.089 117.436 407.708 117.618 407.422 117.982C407.144 118.337 407.006 118.862 407.006 119.555C407.006 120.248 407.144 120.777 407.422 121.141C407.699 121.496 408.08 121.674 408.566 121.674C409.328 121.674 409.783 121.189 409.931 120.218ZM412.83 123V113.51H414.52V118.957H414.546L417.055 116.11H419.174L416.691 118.905L419.395 123H417.523L415.417 119.854H415.391L414.52 120.842V123H412.83ZM424.526 120.621L425.709 121.661C425.007 122.684 424.058 123.195 422.862 123.195C421.9 123.195 421.115 122.866 420.509 122.207C419.902 121.54 419.599 120.656 419.599 119.555C419.599 118.454 419.898 117.575 420.496 116.916C421.102 116.249 421.865 115.915 422.784 115.915C423.702 115.915 424.456 116.249 425.046 116.916C425.644 117.575 425.943 118.454 425.943 119.555V120.062H421.315C421.341 120.591 421.484 120.998 421.744 121.284C422.012 121.561 422.376 121.7 422.836 121.7C423.226 121.7 423.546 121.605 423.798 121.414C424.058 121.215 424.3 120.95 424.526 120.621ZM421.315 118.801H424.305C424.261 118.359 424.11 118.017 423.85 117.774C423.59 117.523 423.234 117.397 422.784 117.397C422.368 117.397 422.025 117.531 421.757 117.8C421.497 118.069 421.349 118.402 421.315 118.801ZM427.303 123V116.11H428.902V116.838H428.928C429.058 116.578 429.248 116.37 429.5 116.214C429.76 116.058 430.041 115.98 430.345 115.98C430.561 115.98 430.769 116.023 430.969 116.11L430.709 117.748C430.518 117.679 430.34 117.644 430.176 117.644C429.387 117.644 428.993 118.168 428.993 119.217V123H427.303ZM431.556 120.725L433.077 120.335C433.198 121.297 433.714 121.778 434.624 121.778C435.04 121.778 435.369 121.713 435.612 121.583C435.863 121.444 435.989 121.254 435.989 121.011C435.989 120.812 435.894 120.664 435.703 120.569C435.512 120.465 435.114 120.326 434.507 120.153C434.342 120.11 434.217 120.075 434.13 120.049C433.333 119.824 432.748 119.559 432.375 119.256C432.002 118.944 431.816 118.532 431.816 118.021C431.816 117.449 432.046 116.955 432.505 116.539C432.973 116.123 433.61 115.915 434.416 115.915C435.959 115.915 436.925 116.591 437.315 117.943L435.911 118.372C435.79 118.043 435.616 117.783 435.391 117.592C435.174 117.401 434.854 117.306 434.429 117.306C434.1 117.306 433.835 117.371 433.636 117.501C433.445 117.622 433.35 117.77 433.35 117.943C433.35 118.134 433.463 118.285 433.688 118.398C433.922 118.502 434.498 118.684 435.417 118.944C436.223 119.161 436.769 119.438 437.055 119.776C437.35 120.105 437.497 120.53 437.497 121.05C437.497 121.605 437.254 122.103 436.769 122.545C436.292 122.978 435.599 123.195 434.689 123.195C433.736 123.195 432.999 122.957 432.479 122.48C431.968 121.995 431.66 121.41 431.556 120.725Z" fill="#F44348"/>
<path d="M286.888 652.375H288.097C288.409 652.375 288.682 652.34 288.916 652.271C289.15 652.193 289.371 652.054 289.579 651.855C289.787 651.656 289.948 651.357 290.06 650.958C290.173 650.551 290.229 650.044 290.229 649.437C290.229 648.423 290.039 647.686 289.657 647.227C289.285 646.759 288.791 646.525 288.175 646.525H286.888V652.375ZM285.133 654V644.9H288.175C288.695 644.9 289.185 644.991 289.644 645.173C290.104 645.355 290.52 645.624 290.892 645.979C291.265 646.334 291.56 646.811 291.776 647.409C292.002 647.998 292.114 648.674 292.114 649.437C292.114 650.269 292.002 650.993 291.776 651.608C291.551 652.223 291.243 652.7 290.853 653.038C290.463 653.367 290.039 653.61 289.579 653.766C289.129 653.922 288.635 654 288.097 654H285.133ZM297.956 651.621L299.139 652.661C298.437 653.684 297.488 654.195 296.292 654.195C295.33 654.195 294.545 653.866 293.939 653.207C293.332 652.54 293.029 651.656 293.029 650.555C293.029 649.454 293.328 648.575 293.926 647.916C294.532 647.249 295.295 646.915 296.214 646.915C297.132 646.915 297.886 647.249 298.476 647.916C299.074 648.575 299.373 649.454 299.373 650.555V651.062H294.745C294.771 651.591 294.914 651.998 295.174 652.284C295.442 652.561 295.806 652.7 296.266 652.7C296.656 652.7 296.976 652.605 297.228 652.414C297.488 652.215 297.73 651.95 297.956 651.621ZM294.745 649.801H297.735C297.691 649.359 297.54 649.017 297.28 648.774C297.02 648.523 296.664 648.397 296.214 648.397C295.798 648.397 295.455 648.531 295.187 648.8C294.927 649.069 294.779 649.402 294.745 649.801ZM301.084 654V648.54H300.018V647.11H301.123V646.135C301.123 645.546 301.274 645.13 301.578 644.887C301.89 644.636 302.34 644.51 302.93 644.51H304.282V646.005H303.281C303.073 646.005 302.925 646.048 302.839 646.135C302.761 646.213 302.722 646.352 302.722 646.551V647.11H304.464V648.54H302.774V654H301.084ZM309.851 651.621L311.034 652.661C310.332 653.684 309.383 654.195 308.187 654.195C307.225 654.195 306.441 653.866 305.834 653.207C305.228 652.54 304.924 651.656 304.924 650.555C304.924 649.454 305.223 648.575 305.821 647.916C306.428 647.249 307.191 646.915 308.109 646.915C309.028 646.915 309.782 647.249 310.371 647.916C310.969 648.575 311.268 649.454 311.268 650.555V651.062H306.64C306.666 651.591 306.809 651.998 307.069 652.284C307.338 652.561 307.702 652.7 308.161 652.7C308.551 652.7 308.872 652.605 309.123 652.414C309.383 652.215 309.626 651.95 309.851 651.621ZM306.64 649.801H309.63C309.587 649.359 309.435 649.017 309.175 648.774C308.915 648.523 308.56 648.397 308.109 648.397C307.693 648.397 307.351 648.531 307.082 648.8C306.822 649.069 306.675 649.402 306.64 649.801ZM312.628 654V647.11H314.253V647.773H314.279C314.47 647.53 314.73 647.327 315.059 647.162C315.389 646.997 315.735 646.915 316.099 646.915C316.862 646.915 317.46 647.145 317.893 647.604C318.327 648.055 318.543 648.683 318.543 649.489V654H316.853V649.905C316.853 649.428 316.762 649.073 316.58 648.839C316.398 648.596 316.086 648.475 315.644 648.475C315.228 648.475 314.903 648.596 314.669 648.839C314.435 649.073 314.318 649.389 314.318 649.788V654H312.628ZM324.573 651.179V649.918C324.573 649.502 324.439 649.151 324.17 648.865C323.91 648.579 323.551 648.436 323.091 648.436C322.597 648.436 322.212 648.614 321.934 648.969C321.666 649.324 321.531 649.853 321.531 650.555C321.531 651.248 321.666 651.777 321.934 652.141C322.212 652.496 322.597 652.674 323.091 652.674C323.551 652.674 323.91 652.531 324.17 652.245C324.439 651.95 324.573 651.595 324.573 651.179ZM324.677 654V653.337H324.651C324.608 653.398 324.543 653.476 324.456 653.571C324.378 653.666 324.179 653.796 323.858 653.961C323.546 654.117 323.204 654.195 322.831 654.195C321.921 654.195 321.193 653.866 320.647 653.207C320.11 652.548 319.841 651.664 319.841 650.555C319.841 649.437 320.136 648.553 320.725 647.903C321.315 647.244 322.008 646.915 322.805 646.915C323.169 646.915 323.494 646.989 323.78 647.136C324.075 647.275 324.274 647.413 324.378 647.552L324.547 647.773H324.573V644.51H326.263V654H324.677ZM332.55 651.621L333.733 652.661C333.031 653.684 332.082 654.195 330.886 654.195C329.924 654.195 329.14 653.866 328.533 653.207C327.927 652.54 327.623 651.656 327.623 650.555C327.623 649.454 327.922 648.575 328.52 647.916C329.127 647.249 329.89 646.915 330.808 646.915C331.727 646.915 332.481 647.249 333.07 647.916C333.668 648.575 333.967 649.454 333.967 650.555V651.062H329.339C329.365 651.591 329.508 651.998 329.768 652.284C330.037 652.561 330.401 652.7 330.86 652.7C331.25 652.7 331.571 652.605 331.822 652.414C332.082 652.215 332.325 651.95 332.55 651.621ZM329.339 649.801H332.329C332.286 649.359 332.134 649.017 331.874 648.774C331.614 648.523 331.259 648.397 330.808 648.397C330.392 648.397 330.05 648.531 329.781 648.8C329.521 649.069 329.374 649.402 329.339 649.801ZM335.327 654V647.11H336.926V647.838H336.952C337.082 647.578 337.273 647.37 337.524 647.214C337.784 647.058 338.066 646.98 338.369 646.98C338.586 646.98 338.794 647.023 338.993 647.11L338.733 648.748C338.543 648.679 338.365 648.644 338.2 648.644C337.412 648.644 337.017 649.168 337.017 650.217V654H335.327ZM339.581 651.725L341.102 651.335C341.223 652.297 341.739 652.778 342.649 652.778C343.065 652.778 343.394 652.713 343.637 652.583C343.888 652.444 344.014 652.254 344.014 652.011C344.014 651.812 343.919 651.664 343.728 651.569C343.537 651.465 343.139 651.326 342.532 651.153C342.367 651.11 342.242 651.075 342.155 651.049C341.358 650.824 340.773 650.559 340.4 650.256C340.027 649.944 339.841 649.532 339.841 649.021C339.841 648.449 340.071 647.955 340.53 647.539C340.998 647.123 341.635 646.915 342.441 646.915C343.984 646.915 344.95 647.591 345.34 648.943L343.936 649.372C343.815 649.043 343.641 648.783 343.416 648.592C343.199 648.401 342.879 648.306 342.454 648.306C342.125 648.306 341.86 648.371 341.661 648.501C341.47 648.622 341.375 648.77 341.375 648.943C341.375 649.134 341.488 649.285 341.713 649.398C341.947 649.502 342.523 649.684 343.442 649.944C344.248 650.161 344.794 650.438 345.08 650.776C345.375 651.105 345.522 651.53 345.522 652.05C345.522 652.605 345.279 653.103 344.794 653.545C344.317 653.978 343.624 654.195 342.714 654.195C341.761 654.195 341.024 653.957 340.504 653.48C339.993 652.995 339.685 652.41 339.581 651.725Z" fill="#24E8CC"/>
</svg>
