<svg width="708" height="708" viewBox="0 0 708 708" fill="none" xmlns="http://www.w3.org/2000/svg">
<path fill-rule="evenodd" clip-rule="evenodd" d="M268 695L362 695L362 619L439 619L496 619L496 592L496 576L487 576L487 572L621 572L621 552L624 552L624 562L667 562L667 485L624 485L624 495L621 495L621 452L505 452L486 452L486 448L464 448L464 452L459 452L449 452L449 474L433 474L433 543L459 543L459 572L464 572L464 576L439 576L439 592L419 592L419 576L362 576L268 576L268 591L264 591L264 498L231 498L223 498L223 456L207 456L207 453L254 453L254 410L243 410L243 402L226 402L226 410L165 410L165 421L160 421L160 405L150 405L111 405L111 389L84 389L84 405L45 405L45 502L45 526L45 529L45 556L154 556L154 592L154 620L181 620L231 620L231 629L264 629L264 619L268 619L268 695ZM160 442L165 442L165 453L189 453L189 456L174 456L174 493L185 508.714L185 525L231 525L231 592L181 592L181 556L217 556L217 527L181 527L181 529L154 529L114 529L114 526L150 526L150 458L160 458L160 442ZM288 574L362 574L362 544L362 527L372 527L372 519L374 519L374 531L430 531L430 484L430 467L391 467L374 484L374 495L372 495L372 477L372 448L335 448L335 477L309 477L309 516L330 516L340 526L340 534L330 544L288 544L288 574Z" fill="url(#paint0_linear)" fill-opacity="0.15"/>
<path opacity="0.15" fill-rule="evenodd" clip-rule="evenodd" d="M568 364L484 364L484 350L456.5 350L456.5 327L459 327L459 189L388 189L388 194L330 194L330 174L248 174L248 203L248 214L266 214L266 251L212 251L212 303L157 303L157 203L195 203L212 203L221 203L221 174L210 174L210 119L253 119L253 105L371 105L371 86L371 31L398.5 31L398.5 27L415 7.00003L445 7.00004L445 86L459 86L462 86L492 86L492 260L568 260L568 364Z" fill="url(#paint1_linear)"/>
<path d="M456.5 350L456.5 327" stroke="#F44348" stroke-width="3" stroke-linecap="round"/>
<path d="M266.5 251L266.5 214" stroke="#F44348" stroke-width="3" stroke-linecap="round"/>
<path d="M537 364.5L559 364.5" stroke="#F44348" stroke-width="3" stroke-linecap="round"/>
<path d="M157 302.5L212 302.5" stroke="#F44348" stroke-width="3" stroke-linecap="round"/>
<path d="M84 388.5L111 388.5" stroke="#24E8CC" stroke-width="3" stroke-linecap="round"/>
<path d="M226 402.5L243 402.5" stroke="#24E8CC" stroke-width="3" stroke-linecap="round"/>
<path d="M335 449.5L372 449.5" stroke="#24E8CC" stroke-width="3" stroke-linecap="round"/>
<path d="M464 449.5L486 449.5" stroke="#24E8CC" stroke-width="3" stroke-linecap="round"/>
<path d="M510 450L526 450" stroke="#24E8CC" stroke-width="2" stroke-linecap="round"/>
<path d="M534 450L550 450" stroke="#24E8CC" stroke-width="2" stroke-linecap="round"/>
<defs>
<linearGradient id="paint0_linear" x1="356" y1="622.1" x2="356" y2="360" gradientUnits="userSpaceOnUse">
<stop offset="0.283288" stop-color="#24E8AD" stop-opacity="0"/>
<stop offset="1" stop-color="#24E8AD"/>
</linearGradient>
<linearGradient id="paint1_linear" x1="363" y1="39" x2="363" y2="406.5" gradientUnits="userSpaceOnUse">
<stop offset="0.283288" stop-color="#F44348" stop-opacity="0"/>
<stop offset="1" stop-color="#F44348"/>
</linearGradient>
</defs>
</svg>
