<svg width="708" height="708" viewBox="0 0 708 708" fill="none" xmlns="http://www.w3.org/2000/svg">
<g clip-path="url(#clip0)">
<path d="M179.358 433.789H160.519" stroke="#24E8AD" stroke-width="3" stroke-linecap="round"/>
<path d="M604.728 448.192H580.931" stroke="#24E8AD" stroke-width="3" stroke-linecap="round"/>
<path d="M305.767 455.133C305.767 455.961 306.438 456.633 307.267 456.633C308.095 456.633 308.767 455.961 308.767 455.133L305.767 455.133ZM272.5 412.5C271.672 412.5 271 413.172 271 414C271 414.828 271.672 415.5 272.5 415.5L272.5 412.5ZM307.267 414L308.767 414C308.767 413.172 308.095 412.5 307.267 412.5L307.267 414ZM308.767 455.133L308.767 414L305.767 414L305.767 455.133L308.767 455.133ZM307.267 412.5L272.5 412.5L272.5 415.5L307.267 415.5L307.267 412.5Z" fill="#24E8AD"/>
<path d="M508.549 418.446L508.549 398.615" stroke="#24E8AD" stroke-width="3" stroke-linecap="round"/>
<path d="M167.46 292.521L167.46 244.927" stroke="#FF5859" stroke-width="3" stroke-linecap="round"/>
<path d="M330.568 353.004L330.568 337.14" stroke="#FF5859" stroke-width="3" stroke-linecap="round"/>
<path d="M224.969 294.504H256.698" stroke="#FF5859" stroke-width="3" stroke-linecap="round"/>
<path d="M538.295 247.901L538.295 212.206" stroke="#FF5859" stroke-width="3" stroke-linecap="round"/>
<path d="M494.667 305.41H456.989" stroke="#FF5859" stroke-width="3" stroke-linecap="round"/>
<path fill-rule="evenodd" clip-rule="evenodd" d="M418.814 653.44L411.378 692.606L400.471 705H367.75L358.331 696.076L329.576 691.118L322.14 670.296L318.173 658.398V624.685L318.173 613.779H220.011H209.6H197.206L140.688 613.779V580.066L154.185 580.066V569.368L135.731 553.295H129.781V505.701H148.62V483.887H129.781V441.251L161.511 441.251V433.319H177.375V441.251L182.333 441.251V455.133H215.053V421.42H253.723L272.067 414.975L306.771 415.471L306.275 433.319V454.141L329.08 454.141L329.08 519.583H291.402V505.701H281.487V519.583H259.673V526.523H273.554L273.554 549.329L251.74 571.142H211.087V553.295H192.248L173.793 569.368V580.066L191.257 580.066H206.13V589.486H213.07V583.537H282.478V575.109V530.489H304.292V575.109V583.537H320.156L349.903 624.685H383.615L420.302 585.024V611.795V624.685L418.814 653.44ZM623.567 617.745H493.676V613.779H491.693V585.024H508.549V580.066H505.574V553.295H492.684V515.616H513.506V471.989H527.388V469.014L516.481 469.014V427.37L516.481 417.454H508.549V400.598H516.481L516.481 367.877H554.159V408.53H544.244V427.37L554.159 427.37V469.014L546.227 469.014V471.989H560.109L576.194 451.166L580.931 451.166V448.192H604.728V451.166L627.533 451.166V492.811H674.135V528.506H666.203V533.464H674.135V562.219H623.567V585.024H623.567V617.745ZM606.711 585.024H526.396V580.066H601.753V512.642H643.398V528.506H649.347V533.464H606.215L606.711 585.024ZM420.302 617.745H491.693V585.024H420.302V617.745ZM273.554 548.337H282.478V530.489H273.554V548.337ZM265.622 507.684H256.698V483.887H311.233V489.341H265.622V507.684Z" fill="url(#paint0_linear)" fill-opacity="0.15"/>
<path opacity="0.15" fill-rule="evenodd" clip-rule="evenodd" d="M383.615 294.504V358.953H333.047L333.047 351.517H329.08V338.627H333.047L333.047 324.25H346.928L357.835 311.36V294.504L357.835 294.504V272.69L413.361 272.69V243.935L398.488 243.935V255.834H372.708V202.786L358.827 196.341L347.92 194.358L340.979 188.905L328.585 188.409L319.661 180.973L310.241 179.981L292.394 187.418L288.923 184.443L271.571 194.854L270.084 199.316L255.707 202.786H227.944V247.901L254.715 247.901V288.554V298.47H225.961V288.554H211.087H175.392L175.392 202.786V154.697L218.524 113.548L239.842 87.2723L254.219 76.3654L273.554 38.687L275.042 12.907L281.487 11.4197L285.949 2.00009L319.165 2.00009L344.945 24.3097L358.827 54.0558L353.869 68.4331L382.128 96.6919L404.933 140.32L426.747 182.46L429.226 215.181H541.269V243.935L433.192 243.935V272.69L456.989 272.69H494.667V308.385H456.989L456.989 294.504L383.615 294.504ZM175.392 288.554H167.46V247.901H175.392V288.554ZM378.161 186.426L393.035 187.418L387.085 150.235L347.424 106.112L336.021 83.3062L304.788 65.4585L295.864 69.4246L289.915 78.8442L270.58 98.675L270.084 106.112L250.253 126.438L234.389 146.765L226.952 160.646L224.969 165.108L233.397 179.981L244.304 184.443L261.16 181.468L278.512 169.074L287.436 168.083L296.855 164.116L323.627 167.091L330.072 162.133L378.161 186.426Z" fill="url(#paint1_linear)"/>
</g>
<defs>
<linearGradient id="paint0_linear" x1="401.958" y1="624.685" x2="401.958" y2="387.182" gradientUnits="userSpaceOnUse">
<stop offset="0.283288" stop-color="#24E8AD" stop-opacity="0"/>
<stop offset="1" stop-color="#24E8AD"/>
</linearGradient>
<linearGradient id="paint1_linear" x1="403.878" y1="446.357" x2="403.878" y2="118.431" gradientUnits="userSpaceOnUse">
<stop stop-color="#FF5859"/>
<stop offset="1" stop-color="#FF5859" stop-opacity="0"/>
</linearGradient>
<clipPath id="clip0">
<path d="M708 708L0 708L0 0L708 0L708 708Z" fill="white"/>
</clipPath>
</defs>
</svg>
