<svg width="708" height="708" viewBox="0 0 708 708" fill="none" xmlns="http://www.w3.org/2000/svg">
<path d="M528.642 273.211H547.481" stroke="#FF5859" stroke-width="3" stroke-linecap="round"/>
<path d="M103.272 258.808H127.069" stroke="#FF5859" stroke-width="3" stroke-linecap="round"/>
<path d="M402.233 251.867C402.233 251.039 401.562 250.367 400.733 250.367C399.905 250.367 399.233 251.039 399.233 251.867L402.233 251.867ZM435.5 293C436.328 293 437 292.328 437 291.5C437 290.672 436.328 290 435.5 290L435.5 293ZM400.733 291.5L399.233 291.5C399.233 292.328 399.905 293 400.733 293L400.733 291.5ZM399.233 251.867L399.233 291.5L402.233 291.5L402.233 251.867L399.233 251.867ZM400.733 293L435.5 293L435.5 290L400.733 290L400.733 293Z" fill="#FF5859"/>
<path d="M199.451 288.554L199.451 308.385" stroke="#FF5859" stroke-width="3" stroke-linecap="round"/>
<path d="M540.54 414.48L540.54 462.073" stroke="#24E8AD" stroke-width="3" stroke-linecap="round"/>
<path d="M377.432 353.996L377.432 369.86" stroke="#24E8AD" stroke-width="3" stroke-linecap="round"/>
<path d="M483.031 409.496H451.302" stroke="#24E8AD" stroke-width="3" stroke-linecap="round"/>
<path d="M167.705 459.099L167.705 494.794" stroke="#24E8AD" stroke-width="3" stroke-linecap="round"/>
<path d="M213.333 399.59H251.011" stroke="#24E8AD" stroke-width="3" stroke-linecap="round"/>
<path fill-rule="evenodd" clip-rule="evenodd" d="M289.186 53.5599L296.622 14.3942L307.529 2H340.25L349.669 10.9238L378.424 15.8815L385.86 36.7038L389.827 48.6023V82.3145L389.827 93.2214H487.989H498.4H510.794H567.312V126.934L553.815 126.934V137.632L572.269 153.705H578.219V201.299H559.38V223.113H578.219V265.749L546.489 265.749V273.681H530.625V265.749L525.667 265.749V251.867H492.947V285.58H454.277L435.933 292.025L401.229 291.529L401.725 273.681V252.859H378.92V187.417H416.598V201.299H426.513V187.417H448.327V180.477H434.446L434.446 157.671L456.26 135.858H496.913V153.705H515.752L534.207 137.632V126.934L516.743 126.934H501.87V117.514H494.93V123.463H425.522V131.891V176.511H403.708V131.891V123.463H387.844L358.097 82.3145H324.385L287.698 121.976V95.2045V82.3145L289.186 53.5599ZM84.4329 89.2553H214.324V93.2214H216.307V121.976H199.451V126.934H202.426V153.705H215.316V191.384H194.494V235.011H180.612V237.986L191.519 237.986V279.63L191.519 289.546H199.451V306.402H191.519L191.519 339.123H153.841V298.47H163.756V279.63L153.841 279.63V237.986L161.773 237.986V235.011H147.891L131.806 255.834L127.069 255.834V258.808H103.272V255.834L80.4669 255.834V214.189H33.8646V178.494H41.7969V173.536H33.8646V144.781H84.433V121.976H84.4329V89.2553ZM101.289 121.976H181.604V126.934H106.247V194.358H64.6023V178.494H58.6531V173.536H101.785L101.289 121.976ZM287.698 89.2553H216.307V121.976H287.698V89.2553ZM434.446 158.663H425.522V176.511H434.446V158.663ZM442.378 199.316H451.302V223.113H396.767V217.659H442.378V199.316Z" fill="url(#paint0_linear)" fill-opacity="0.15"/>
<path opacity="0.15" fill-rule="evenodd" clip-rule="evenodd" d="M324.385 412.496V348.047H374.953L374.953 355.483H378.92V368.373H374.953L374.953 382.75H361.072L350.165 395.64V412.496L350.165 412.496V434.31L294.639 434.31V463.065L309.512 463.065V451.166H335.292V504.214L349.173 510.659L360.08 512.642L367.021 518.095L379.415 518.591L388.339 526.027L397.759 527.019L415.606 519.582L419.077 522.557L436.429 512.146L437.916 507.684L452.293 504.214H480.056V459.099H453.285V418.446V408.53H482.039V418.446H496.913H532.608L532.608 504.214V552.303L489.476 593.452L468.158 619.728L453.781 630.635L434.446 668.313L432.958 694.093L426.513 695.58L422.051 705H388.835L363.055 682.69L349.173 652.944L354.131 638.567L325.872 610.308L303.067 566.68L281.253 524.54L278.774 491.819H166.731V463.065L274.808 463.065V434.31L251.011 434.31H213.333V398.615H251.011L251.011 412.496L324.385 412.496ZM532.608 418.446H540.54V459.099H532.608V418.446ZM329.839 520.574L314.965 519.582L320.915 556.765L360.576 600.889L371.979 623.694L403.212 641.542L412.136 637.575L418.085 628.156L437.42 608.325L437.916 600.889L457.747 580.562L473.611 560.236L481.048 546.354L483.031 541.892L474.603 527.019L463.696 522.557L446.84 525.532L429.488 537.926L420.564 538.917L411.145 542.884L384.373 539.909L377.928 544.867L329.839 520.574Z" fill="url(#paint1_linear)"/>
<defs>
<linearGradient id="paint0_linear" x1="306.042" y1="82.3145" x2="306.042" y2="319.818" gradientUnits="userSpaceOnUse">
<stop offset="0.283288" stop-color="#FF5859" stop-opacity="0"/>
<stop offset="1" stop-color="#FF5859"/>
</linearGradient>
<linearGradient id="paint1_linear" x1="304.122" y1="260.643" x2="304.122" y2="588.569" gradientUnits="userSpaceOnUse">
<stop stop-color="#24E8AD"/>
<stop offset="1" stop-color="#24E8AD" stop-opacity="0"/>
</linearGradient>
</defs>
</svg>
