<svg width="708" height="708" viewBox="0 0 708 708" fill="none" xmlns="http://www.w3.org/2000/svg">
<path d="M619.644 359.039H649.859" stroke="#FF5859" stroke-width="3" stroke-linecap="round"/>
<path d="M340.66 332.853H363.824" stroke="#FF5859" stroke-width="3" stroke-linecap="round"/>
<path d="M223.829 347.961H290.301" stroke="#FF5859" stroke-width="3" stroke-linecap="round"/>
<path d="M80.8116 358.032H112.034" stroke="#FF5859" stroke-width="3" stroke-linecap="round"/>
<path d="M547.128 324.796L547.128 349.975" stroke="#FF5859" stroke-width="3" stroke-linecap="round"/>
<path d="M413.175 507.092H477.634" stroke="#24E8AD" stroke-width="3" stroke-linecap="round"/>
<path d="M381.992 470.834L381.992 497.021" stroke="#24E8AD" stroke-width="3" stroke-linecap="round"/>
<path d="M153.327 493.999L153.327 518.171" stroke="#24E8AD" stroke-width="3" stroke-linecap="round"/>
<path d="M281.237 519.178H306.416" stroke="#24E8AD" stroke-width="3" stroke-linecap="round"/>
<path d="M587.318 178.681V220.058H553.388V210.955H512.838V189.439H555.043V178.681H587.318Z" fill="url(#paint0_linear)" fill-opacity="0.15"/>
<path d="M608.007 370.671V324.329H564.147V370.671H608.007Z" fill="url(#paint1_linear)" fill-opacity="0.15"/>
<path d="M398.637 113.305V29.7228L411.878 14.827H419.326L434.636 2L448.704 7.37905H456.979L463.186 13.5856V19.3785L469.806 25.9988V52.0665L474.772 57.0318V79.3755H444.98V113.305H398.637Z" fill="url(#paint2_linear)" fill-opacity="0.15"/>
<path d="M444.98 79.3755L512.839 79.3755V165.44H444.98L444.98 79.3755Z" fill="url(#paint3_linear)" fill-opacity="0.15"/>
<path d="M553.388 220.058H601.386V210.128H649.384V225.851H671.727V326.812H648.556V324.329H548.423V312.743H526.079V235.782H553.388L553.388 220.058Z" fill="url(#paint4_linear)" fill-opacity="0.15"/>
<path d="M479.737 165.44L512.839 165.44L512.839 282.124H495.46V297.02H476.427V287.917H426.774V252.332H479.737V165.44Z" fill="url(#paint5_linear)" fill-opacity="0.15"/>
<path d="M398.637 113.305L398.637 79.3755H318.366V135.649H255.472V163.785H382.914V113.305L398.637 113.305Z" fill="url(#paint6_linear)" fill-opacity="0.15"/>
<path d="M233.956 135.649L255.472 135.649V229.161H289.401V271.366H215.75V209.3H153.684V181.991H233.956V135.649Z" fill="url(#paint7_linear)" fill-opacity="0.15"/>
<path d="M222.37 277.159V271.366H230.645V277.159H289.401V300.33H215.75V277.159H222.37Z" fill="url(#paint8_linear)" fill-opacity="0.15"/>
<path d="M153.684 209.3L185.131 209.3V288.745H167.752V320.191L168.58 339.225V357.431H54.3785V288.745H37V210.128H153.684L153.684 209.3Z" fill="url(#paint9_linear)" fill-opacity="0.15"/>
<path d="M243.886 300.33H268.713V305.295H288.574V347.961H224.853V339.225L226.508 320.191V304.468H243.886V300.33Z" fill="url(#paint10_linear)" fill-opacity="0.15"/>
<path d="M226.508 320.191L167.752 320.191L168.58 339.225L224.853 339.225L226.508 320.191Z" fill="url(#paint11_linear)" fill-opacity="0.15"/>
<path d="M289.401 260.608V240.747H301.815V234.954L321.262 215.921H334.916V183.646H381.259V216.748H396.155L414.361 235.782V263.918H426.774V285.434H414.361V329.294H363.053V332.853H341.537V329.294H301.815V260.608H289.401Z" fill="url(#paint12_linear)" fill-opacity="0.15"/>
<path d="M548.423 324.329L548.423 325.984H547.128V348.328H564.146L564.147 324.329H548.423Z" fill="url(#paint13_linear)" fill-opacity="0.15"/>
<path d="M621.247 324.329H648.556L648.556 359.039H621.247V324.329Z" fill="url(#paint14_linear)" fill-opacity="0.15"/>
<path d="M512.839 136.476H622.075V172.061H599.731V165.44L512.839 165.44L512.839 136.476Z" fill="url(#paint15_linear)" fill-opacity="0.15"/>
<path d="M599.731 172.061L599.731 218.403H662.624V198.542H649.384V188.611H639.453V172.061L599.731 172.061Z" fill="url(#paint16_linear)" fill-opacity="0.15"/>
<g opacity="0.15">
<path d="M154.335 495.217H156.994V479.908H206.647V553.559H155.339V517.354H154.335V495.217Z" fill="url(#paint17_linear)"/>
<path d="M276.16 581.696H253.817V678.932L292.711 705H367.19L411.878 675.208V652.037L406.085 640.038L411.878 630.521V623.901H372.156V575.903H353.122V623.901H276.16V581.696Z" fill="url(#paint18_linear)"/>
<path d="M139.615 580.868V553.559L206.647 553.559L206.646 542.801H253.816V520.457H327.468V542.801H372.983V522.94H414.36V507.216H476.426V575.903L353.122 575.903L353.122 570.11H276.16L276.16 581.696H253.817L252.989 580.868H139.615Z" fill="url(#paint19_linear)"/>
<path d="M381.953 472.46H407.74V518.802H401.947V522.94H390.362V518.802H385.396V495.631H381.953V472.46Z" fill="url(#paint20_linear)"/>
</g>
<defs>
<linearGradient id="paint0_linear" x1="354.364" y1="2" x2="354.364" y2="369.527" gradientUnits="userSpaceOnUse">
<stop offset="0.283288" stop-color="#FF5859" stop-opacity="0"/>
<stop offset="1" stop-color="#FF5859"/>
</linearGradient>
<linearGradient id="paint1_linear" x1="354.364" y1="2" x2="354.364" y2="369.527" gradientUnits="userSpaceOnUse">
<stop offset="0.283288" stop-color="#FF5859" stop-opacity="0"/>
<stop offset="1" stop-color="#FF5859"/>
</linearGradient>
<linearGradient id="paint2_linear" x1="354.364" y1="2" x2="354.364" y2="369.527" gradientUnits="userSpaceOnUse">
<stop offset="0.283288" stop-color="#FF5859" stop-opacity="0"/>
<stop offset="1" stop-color="#FF5859"/>
</linearGradient>
<linearGradient id="paint3_linear" x1="354.364" y1="2" x2="354.364" y2="369.527" gradientUnits="userSpaceOnUse">
<stop offset="0.283288" stop-color="#FF5859" stop-opacity="0"/>
<stop offset="1" stop-color="#FF5859"/>
</linearGradient>
<linearGradient id="paint4_linear" x1="354.364" y1="2" x2="354.364" y2="369.527" gradientUnits="userSpaceOnUse">
<stop offset="0.283288" stop-color="#FF5859" stop-opacity="0"/>
<stop offset="1" stop-color="#FF5859"/>
</linearGradient>
<linearGradient id="paint5_linear" x1="354.364" y1="2" x2="354.364" y2="369.527" gradientUnits="userSpaceOnUse">
<stop offset="0.283288" stop-color="#FF5859" stop-opacity="0"/>
<stop offset="1" stop-color="#FF5859"/>
</linearGradient>
<linearGradient id="paint6_linear" x1="354.364" y1="2" x2="354.364" y2="369.527" gradientUnits="userSpaceOnUse">
<stop offset="0.283288" stop-color="#FF5859" stop-opacity="0"/>
<stop offset="1" stop-color="#FF5859"/>
</linearGradient>
<linearGradient id="paint7_linear" x1="354.364" y1="2" x2="354.364" y2="369.527" gradientUnits="userSpaceOnUse">
<stop offset="0.283288" stop-color="#FF5859" stop-opacity="0"/>
<stop offset="1" stop-color="#FF5859"/>
</linearGradient>
<linearGradient id="paint8_linear" x1="354.364" y1="2" x2="354.364" y2="369.527" gradientUnits="userSpaceOnUse">
<stop offset="0.283288" stop-color="#FF5859" stop-opacity="0"/>
<stop offset="1" stop-color="#FF5859"/>
</linearGradient>
<linearGradient id="paint9_linear" x1="354.364" y1="2" x2="354.364" y2="369.527" gradientUnits="userSpaceOnUse">
<stop offset="0.283288" stop-color="#FF5859" stop-opacity="0"/>
<stop offset="1" stop-color="#FF5859"/>
</linearGradient>
<linearGradient id="paint10_linear" x1="354.364" y1="2" x2="354.364" y2="369.527" gradientUnits="userSpaceOnUse">
<stop offset="0.283288" stop-color="#FF5859" stop-opacity="0"/>
<stop offset="1" stop-color="#FF5859"/>
</linearGradient>
<linearGradient id="paint11_linear" x1="354.364" y1="2" x2="354.364" y2="369.527" gradientUnits="userSpaceOnUse">
<stop offset="0.283288" stop-color="#FF5859" stop-opacity="0"/>
<stop offset="1" stop-color="#FF5859"/>
</linearGradient>
<linearGradient id="paint12_linear" x1="354.364" y1="2" x2="354.364" y2="369.527" gradientUnits="userSpaceOnUse">
<stop offset="0.283288" stop-color="#FF5859" stop-opacity="0"/>
<stop offset="1" stop-color="#FF5859"/>
</linearGradient>
<linearGradient id="paint13_linear" x1="354.364" y1="2" x2="354.364" y2="369.527" gradientUnits="userSpaceOnUse">
<stop offset="0.283288" stop-color="#FF5859" stop-opacity="0"/>
<stop offset="1" stop-color="#FF5859"/>
</linearGradient>
<linearGradient id="paint14_linear" x1="354.364" y1="2" x2="354.364" y2="369.527" gradientUnits="userSpaceOnUse">
<stop offset="0.283288" stop-color="#FF5859" stop-opacity="0"/>
<stop offset="1" stop-color="#FF5859"/>
</linearGradient>
<linearGradient id="paint15_linear" x1="354.364" y1="2" x2="354.364" y2="369.527" gradientUnits="userSpaceOnUse">
<stop offset="0.283288" stop-color="#FF5859" stop-opacity="0"/>
<stop offset="1" stop-color="#FF5859"/>
</linearGradient>
<linearGradient id="paint16_linear" x1="354.364" y1="2" x2="354.364" y2="369.527" gradientUnits="userSpaceOnUse">
<stop offset="0.283288" stop-color="#FF5859" stop-opacity="0"/>
<stop offset="1" stop-color="#FF5859"/>
</linearGradient>
<linearGradient id="paint17_linear" x1="268.128" y1="460.942" x2="268.128" y2="641.052" gradientUnits="userSpaceOnUse">
<stop stop-color="#24E8AD"/>
<stop offset="1" stop-color="#24E8AD" stop-opacity="0"/>
</linearGradient>
<linearGradient id="paint18_linear" x1="268.128" y1="460.942" x2="268.128" y2="641.052" gradientUnits="userSpaceOnUse">
<stop stop-color="#24E8AD"/>
<stop offset="1" stop-color="#24E8AD" stop-opacity="0"/>
</linearGradient>
<linearGradient id="paint19_linear" x1="268.128" y1="460.942" x2="268.128" y2="641.052" gradientUnits="userSpaceOnUse">
<stop stop-color="#24E8AD"/>
<stop offset="1" stop-color="#24E8AD" stop-opacity="0"/>
</linearGradient>
<linearGradient id="paint20_linear" x1="268.128" y1="460.942" x2="268.128" y2="641.052" gradientUnits="userSpaceOnUse">
<stop stop-color="#24E8AD"/>
<stop offset="1" stop-color="#24E8AD" stop-opacity="0"/>
</linearGradient>
</defs>
</svg>
