<svg width="708" height="708" viewBox="0 0 708 708" fill="none" xmlns="http://www.w3.org/2000/svg">
<path d="M89.3561 348.961L59.1412 348.961" stroke="#24E8AD" stroke-width="3" stroke-linecap="round"/>
<path d="M368.34 375.147L345.175 375.147" stroke="#24E8AD" stroke-width="3" stroke-linecap="round"/>
<path d="M485.171 360.039L418.698 360.039" stroke="#24E8AD" stroke-width="3" stroke-linecap="round"/>
<path d="M628.188 349.968L596.966 349.968" stroke="#24E8AD" stroke-width="3" stroke-linecap="round"/>
<path d="M161.872 383.204L161.872 358.025" stroke="#24E8AD" stroke-width="3" stroke-linecap="round"/>
<path d="M295.825 200.907L231.366 200.907" stroke="#FF5859" stroke-width="3" stroke-linecap="round"/>
<path d="M327.008 237.165L327.008 210.979" stroke="#FF5859" stroke-width="3" stroke-linecap="round"/>
<path d="M555.673 214.001L555.673 189.829" stroke="#FF5859" stroke-width="3" stroke-linecap="round"/>
<path d="M427.763 188.822L402.584 188.822" stroke="#FF5859" stroke-width="3" stroke-linecap="round"/>
<path d="M121.682 529.319L121.682 487.942L155.612 487.942L155.612 497.045L196.162 497.045L196.162 518.561L153.957 518.561L153.957 529.319L121.682 529.319Z" fill="url(#paint0_linear)" fill-opacity="0.15"/>
<path d="M100.993 337.328L100.993 383.671L144.853 383.671L144.853 337.328L100.993 337.328Z" fill="url(#paint1_linear)" fill-opacity="0.15"/>
<path d="M310.363 594.695L310.363 678.277L297.122 693.173L289.674 693.173L274.364 706L260.296 700.621L252.021 700.621L245.814 694.414L245.814 688.621L239.194 682.001L239.194 655.933L234.228 650.968L234.228 628.624L264.02 628.624L264.02 594.695L310.363 594.695Z" fill="url(#paint2_linear)" fill-opacity="0.15"/>
<path d="M264.02 628.624L196.161 628.624L196.161 542.56L264.02 542.56L264.02 628.624Z" fill="url(#paint3_linear)" fill-opacity="0.15"/>
<path d="M155.612 487.942L107.614 487.942L107.614 497.872L59.6163 497.872L59.6163 482.149L37.2725 482.149L37.2726 381.188L60.4438 381.188L60.4438 383.671L160.577 383.671L160.577 395.256L182.921 395.256L182.921 472.218L155.612 472.218L155.612 487.942Z" fill="url(#paint4_linear)" fill-opacity="0.15"/>
<path d="M229.263 542.56L196.161 542.56L196.162 425.876L213.54 425.876L213.54 410.98L232.574 410.98L232.574 420.083L282.226 420.083L282.226 455.667L229.263 455.667L229.263 542.56Z" fill="url(#paint5_linear)" fill-opacity="0.15"/>
<path d="M310.363 594.695L310.363 628.624L390.634 628.624L390.635 572.351L458.985 572.351L458.985 544.215L326.086 544.215L326.086 594.695L310.363 594.695Z" fill="url(#paint6_linear)" fill-opacity="0.15"/>
<path d="M475.044 572.351L453.528 572.351L453.528 478.839L419.599 478.839L419.599 436.634L493.25 436.634L493.25 498.7L555.316 498.7L555.316 526.009L475.044 526.009L475.044 572.351Z" fill="url(#paint7_linear)" fill-opacity="0.15"/>
<path d="M486.63 430.841L486.63 436.634L478.355 436.634L478.355 430.841L419.599 430.841L419.599 407.67L493.25 407.67L493.25 430.841L486.63 430.841Z" fill="url(#paint8_linear)" fill-opacity="0.15"/>
<path d="M555.316 498.7L523.869 498.7L523.869 419.255L541.248 419.255L541.248 387.809L540.42 368.775L540.42 350.569L654.622 350.569L654.622 419.255L672 419.255L672 497.872L555.316 497.872L555.316 498.7Z" fill="url(#paint9_linear)" fill-opacity="0.15"/>
<path d="M465.114 407.67L440.287 407.67L440.287 402.704L420.426 402.704L420.426 360.039L484.147 360.039L484.147 368.775L482.492 387.809L482.492 403.532L465.114 403.532L465.114 407.67Z" fill="url(#paint10_linear)" fill-opacity="0.15"/>
<path d="M482.492 387.809L541.248 387.809L540.42 368.775L484.147 368.775L482.492 387.809Z" fill="url(#paint11_linear)" fill-opacity="0.15"/>
<path d="M419.599 447.392L419.599 467.253L407.185 467.253L407.185 473.046L387.738 492.079L374.084 492.079L374.084 524.354L327.741 524.354L327.741 491.252L312.845 491.252L294.639 472.218L294.639 444.082L282.226 444.082L282.226 422.565L294.639 422.565L294.639 378.706L345.947 378.706L345.947 375.147L367.463 375.147L367.463 378.706L407.185 378.706L407.185 447.392L419.599 447.392Z" fill="url(#paint12_linear)" fill-opacity="0.15"/>
<path d="M160.577 383.671L160.577 382.016L161.872 382.016L161.872 359.672L144.854 359.672L144.853 383.671L160.577 383.671Z" fill="url(#paint13_linear)" fill-opacity="0.15"/>
<path d="M87.7534 383.671L60.4438 383.671L60.4444 348.96L87.7534 348.96L87.7534 383.671Z" fill="url(#paint14_linear)" fill-opacity="0.15"/>
<path d="M196.162 571.524L86.9255 571.524L86.9255 535.939L109.269 535.939L109.269 542.56L196.161 542.56L196.162 571.524Z" fill="url(#paint15_linear)" fill-opacity="0.15"/>
<path d="M109.269 535.939L109.269 489.597L46.3757 489.597L46.3757 509.458L59.6164 509.458L59.6164 519.388L69.547 519.388L69.547 535.939L109.269 535.939Z" fill="url(#paint16_linear)" fill-opacity="0.15"/>
<g opacity="0.15">
<path d="M554.666 212.783L552.006 212.783L552.006 228.092L502.353 228.092L502.353 154.441L553.661 154.441L553.661 190.646L554.666 190.646L554.666 212.783Z" fill="url(#paint17_linear)"/>
<path d="M432.84 126.304L455.183 126.304L455.183 29.0674L416.289 2.99974L341.81 2.99974L297.122 32.7914L297.122 55.9626L302.915 67.9621L297.122 77.4788L297.122 84.0992L336.844 84.0992L336.844 132.097L355.878 132.097L355.878 84.0992L432.84 84.0992L432.84 126.304Z" fill="url(#paint18_linear)"/>
<path d="M569.385 127.132L569.385 154.441L502.353 154.441L502.354 165.199L455.184 165.199L455.184 187.543L381.532 187.543L381.532 165.199L336.017 165.199L336.017 185.06L294.64 185.06L294.64 200.783L232.574 200.783L232.574 132.097L355.878 132.097L355.878 137.89L432.84 137.89L432.84 126.304L455.183 126.304L456.011 127.132L569.385 127.132Z" fill="url(#paint19_linear)"/>
<path d="M327.047 235.54L301.26 235.54L301.26 189.197L307.053 189.197L307.053 185.06L318.638 185.06L318.638 189.197L323.604 189.197L323.604 212.369L327.047 212.369L327.047 235.54Z" fill="url(#paint20_linear)"/>
</g>
<defs>
<linearGradient id="paint0_linear" x1="354.636" y1="706" x2="354.636" y2="338.473" gradientUnits="userSpaceOnUse">
<stop offset="0.283288" stop-color="#24E8AD" stop-opacity="0"/>
<stop offset="1" stop-color="#24E8AD"/>
</linearGradient>
<linearGradient id="paint1_linear" x1="354.636" y1="706" x2="354.636" y2="338.473" gradientUnits="userSpaceOnUse">
<stop offset="0.283288" stop-color="#24E8AD" stop-opacity="0"/>
<stop offset="1" stop-color="#24E8AD"/>
</linearGradient>
<linearGradient id="paint2_linear" x1="354.636" y1="706" x2="354.636" y2="338.473" gradientUnits="userSpaceOnUse">
<stop offset="0.283288" stop-color="#24E8AD" stop-opacity="0"/>
<stop offset="1" stop-color="#24E8AD"/>
</linearGradient>
<linearGradient id="paint3_linear" x1="354.636" y1="706" x2="354.636" y2="338.473" gradientUnits="userSpaceOnUse">
<stop offset="0.283288" stop-color="#24E8AD" stop-opacity="0"/>
<stop offset="1" stop-color="#24E8AD"/>
</linearGradient>
<linearGradient id="paint4_linear" x1="354.636" y1="706" x2="354.636" y2="338.473" gradientUnits="userSpaceOnUse">
<stop offset="0.283288" stop-color="#24E8AD" stop-opacity="0"/>
<stop offset="1" stop-color="#24E8AD"/>
</linearGradient>
<linearGradient id="paint5_linear" x1="354.636" y1="706" x2="354.636" y2="338.473" gradientUnits="userSpaceOnUse">
<stop offset="0.283288" stop-color="#24E8AD" stop-opacity="0"/>
<stop offset="1" stop-color="#24E8AD"/>
</linearGradient>
<linearGradient id="paint6_linear" x1="354.636" y1="706" x2="354.636" y2="338.473" gradientUnits="userSpaceOnUse">
<stop offset="0.283288" stop-color="#24E8AD" stop-opacity="0"/>
<stop offset="1" stop-color="#24E8AD"/>
</linearGradient>
<linearGradient id="paint7_linear" x1="354.636" y1="706" x2="354.636" y2="338.473" gradientUnits="userSpaceOnUse">
<stop offset="0.283288" stop-color="#24E8AD" stop-opacity="0"/>
<stop offset="1" stop-color="#24E8AD"/>
</linearGradient>
<linearGradient id="paint8_linear" x1="354.636" y1="706" x2="354.636" y2="338.473" gradientUnits="userSpaceOnUse">
<stop offset="0.283288" stop-color="#24E8AD" stop-opacity="0"/>
<stop offset="1" stop-color="#24E8AD"/>
</linearGradient>
<linearGradient id="paint9_linear" x1="354.636" y1="706" x2="354.636" y2="338.473" gradientUnits="userSpaceOnUse">
<stop offset="0.283288" stop-color="#24E8AD" stop-opacity="0"/>
<stop offset="1" stop-color="#24E8AD"/>
</linearGradient>
<linearGradient id="paint10_linear" x1="354.636" y1="706" x2="354.636" y2="338.473" gradientUnits="userSpaceOnUse">
<stop offset="0.283288" stop-color="#24E8AD" stop-opacity="0"/>
<stop offset="1" stop-color="#24E8AD"/>
</linearGradient>
<linearGradient id="paint11_linear" x1="354.636" y1="706" x2="354.636" y2="338.473" gradientUnits="userSpaceOnUse">
<stop offset="0.283288" stop-color="#24E8AD" stop-opacity="0"/>
<stop offset="1" stop-color="#24E8AD"/>
</linearGradient>
<linearGradient id="paint12_linear" x1="354.636" y1="706" x2="354.636" y2="338.473" gradientUnits="userSpaceOnUse">
<stop offset="0.283288" stop-color="#24E8AD" stop-opacity="0"/>
<stop offset="1" stop-color="#24E8AD"/>
</linearGradient>
<linearGradient id="paint13_linear" x1="354.636" y1="706" x2="354.636" y2="338.473" gradientUnits="userSpaceOnUse">
<stop offset="0.283288" stop-color="#24E8AD" stop-opacity="0"/>
<stop offset="1" stop-color="#24E8AD"/>
</linearGradient>
<linearGradient id="paint14_linear" x1="354.636" y1="706" x2="354.636" y2="338.473" gradientUnits="userSpaceOnUse">
<stop offset="0.283288" stop-color="#24E8AD" stop-opacity="0"/>
<stop offset="1" stop-color="#24E8AD"/>
</linearGradient>
<linearGradient id="paint15_linear" x1="354.636" y1="706" x2="354.636" y2="338.473" gradientUnits="userSpaceOnUse">
<stop offset="0.283288" stop-color="#24E8AD" stop-opacity="0"/>
<stop offset="1" stop-color="#24E8AD"/>
</linearGradient>
<linearGradient id="paint16_linear" x1="354.636" y1="706" x2="354.636" y2="338.473" gradientUnits="userSpaceOnUse">
<stop offset="0.283288" stop-color="#24E8AD" stop-opacity="0"/>
<stop offset="1" stop-color="#24E8AD"/>
</linearGradient>
<linearGradient id="paint17_linear" x1="440.872" y1="247.058" x2="440.872" y2="66.9479" gradientUnits="userSpaceOnUse">
<stop stop-color="#FF5859"/>
<stop offset="1" stop-color="#FF5859" stop-opacity="0"/>
</linearGradient>
<linearGradient id="paint18_linear" x1="440.872" y1="247.058" x2="440.872" y2="66.9479" gradientUnits="userSpaceOnUse">
<stop stop-color="#FF5859"/>
<stop offset="1" stop-color="#FF5859" stop-opacity="0"/>
</linearGradient>
<linearGradient id="paint19_linear" x1="440.872" y1="247.058" x2="440.872" y2="66.9479" gradientUnits="userSpaceOnUse">
<stop stop-color="#FF5859"/>
<stop offset="1" stop-color="#FF5859" stop-opacity="0"/>
</linearGradient>
<linearGradient id="paint20_linear" x1="440.872" y1="247.058" x2="440.872" y2="66.9479" gradientUnits="userSpaceOnUse">
<stop stop-color="#FF5859"/>
<stop offset="1" stop-color="#FF5859" stop-opacity="0"/>
</linearGradient>
</defs>
</svg>
