<svg width="708" height="708" viewBox="0 0 708 708" fill="none" xmlns="http://www.w3.org/2000/svg">
<g clip-path="url(#clip0)">
<path d="M360.436 83L359.916 81.505H356.445L355.925 83H354.183L357.472 73.9H358.967L362.243 83H360.436ZM358.174 76.5L356.939 80.049H359.422L358.2 76.5H358.174ZM363.314 80.543V77.54H362.248V76.11H363.353V74.42H364.952V76.11H366.694V77.54H364.978V80.387C364.978 80.751 365.038 81.0067 365.16 81.154C365.281 81.3013 365.528 81.375 365.901 81.375H366.46V83H365.745C364.817 83 364.18 82.805 363.834 82.415C363.487 82.025 363.314 81.401 363.314 80.543ZM368.214 80.543V77.54H367.148V76.11H368.253V74.42H369.852V76.11H371.594V77.54H369.878V80.387C369.878 80.751 369.939 81.0067 370.06 81.154C370.181 81.3013 370.428 81.375 370.801 81.375H371.36V83H370.645C369.718 83 369.081 82.805 368.734 82.415C368.387 82.025 368.214 81.401 368.214 80.543ZM376.69 83V82.337H376.664C376.646 82.363 376.625 82.3977 376.599 82.441C376.573 82.4757 376.508 82.5407 376.404 82.636C376.3 82.7313 376.183 82.818 376.053 82.896C375.923 82.974 375.745 83.0433 375.52 83.104C375.294 83.1647 375.052 83.195 374.792 83.195C373.96 83.195 373.336 83 372.92 82.61C372.512 82.2113 372.309 81.726 372.309 81.154C372.309 80.556 372.486 80.101 372.842 79.789C373.197 79.477 373.799 79.217 374.649 79.009C375.437 78.8183 375.931 78.6667 376.131 78.554C376.33 78.4413 376.43 78.281 376.43 78.073C376.43 77.865 376.33 77.6917 376.131 77.553C375.94 77.4143 375.65 77.345 375.26 77.345C374.8 77.345 374.471 77.449 374.272 77.657C374.072 77.8563 373.916 78.1293 373.804 78.476L372.4 77.891C372.564 77.3103 372.885 76.838 373.362 76.474C373.838 76.1013 374.462 75.915 375.234 75.915C376.074 75.915 376.763 76.136 377.301 76.578C377.838 77.02 378.107 77.7047 378.107 78.632V83H376.69ZM374.987 80.179C374.553 80.283 374.267 80.4087 374.129 80.556C373.999 80.6947 373.934 80.855 373.934 81.037C373.934 81.505 374.272 81.739 374.948 81.739C375.459 81.739 375.84 81.6437 376.092 81.453C376.352 81.2537 376.482 81.011 376.482 80.725V79.529H376.456C376.421 79.5983 376.382 79.6547 376.339 79.698C376.304 79.7327 376.174 79.7977 375.949 79.893C375.723 79.9797 375.403 80.075 374.987 80.179ZM383.931 80.218L385.53 80.634C385.374 81.4573 385.036 82.09 384.516 82.532C383.996 82.974 383.341 83.195 382.553 83.195C381.617 83.195 380.845 82.8743 380.239 82.233C379.641 81.5917 379.342 80.699 379.342 79.555C379.342 78.4197 379.649 77.5313 380.265 76.89C380.889 76.24 381.656 75.915 382.566 75.915C383.337 75.915 383.983 76.1403 384.503 76.591C385.023 77.0417 385.343 77.644 385.465 78.398L383.892 78.697C383.727 77.8563 383.285 77.436 382.566 77.436C382.089 77.436 381.708 77.618 381.422 77.982C381.144 78.3373 381.006 78.8617 381.006 79.555C381.006 80.2483 381.144 80.777 381.422 81.141C381.699 81.4963 382.08 81.674 382.566 81.674C383.328 81.674 383.783 81.1887 383.931 80.218ZM386.83 83V73.51H388.52V78.957H388.546L391.055 76.11H393.174L390.691 78.905L393.395 83H391.523L389.417 79.854H389.391L388.52 80.842V83H386.83ZM398.526 80.621L399.709 81.661C399.007 82.6837 398.058 83.195 396.862 83.195C395.9 83.195 395.115 82.8657 394.509 82.207C393.902 81.5397 393.599 80.6557 393.599 79.555C393.599 78.4543 393.898 77.5747 394.496 76.916C395.102 76.2487 395.865 75.915 396.784 75.915C397.702 75.915 398.456 76.2487 399.046 76.916C399.644 77.5747 399.943 78.4543 399.943 79.555V80.062H395.315C395.341 80.5907 395.484 80.998 395.744 81.284C396.012 81.5613 396.376 81.7 396.836 81.7C397.226 81.7 397.546 81.6047 397.798 81.414C398.058 81.2147 398.3 80.9503 398.526 80.621ZM395.315 78.801H398.305C398.261 78.359 398.11 78.0167 397.85 77.774C397.59 77.5227 397.234 77.397 396.784 77.397C396.368 77.397 396.025 77.5313 395.757 77.8C395.497 78.0687 395.349 78.4023 395.315 78.801ZM401.303 83V76.11H402.902V76.838H402.928C403.058 76.578 403.248 76.37 403.5 76.214C403.76 76.058 404.041 75.98 404.345 75.98C404.561 75.98 404.769 76.0233 404.969 76.11L404.709 77.748C404.518 77.6787 404.34 77.644 404.176 77.644C403.387 77.644 402.993 78.1683 402.993 79.217V83H401.303ZM405.556 80.725L407.077 80.335C407.198 81.297 407.714 81.778 408.624 81.778C409.04 81.778 409.369 81.713 409.612 81.583C409.863 81.4443 409.989 81.2537 409.989 81.011C409.989 80.8117 409.894 80.6643 409.703 80.569C409.512 80.465 409.114 80.3263 408.507 80.153C408.342 80.1097 408.217 80.075 408.13 80.049C407.333 79.8237 406.748 79.5593 406.375 79.256C406.002 78.944 405.816 78.5323 405.816 78.021C405.816 77.449 406.046 76.955 406.505 76.539C406.973 76.123 407.61 75.915 408.416 75.915C409.959 75.915 410.925 76.591 411.315 77.943L409.911 78.372C409.79 78.0427 409.616 77.7827 409.391 77.592C409.174 77.4013 408.854 77.306 408.429 77.306C408.1 77.306 407.835 77.371 407.636 77.501C407.445 77.6223 407.35 77.7697 407.35 77.943C407.35 78.1337 407.463 78.2853 407.688 78.398C407.922 78.502 408.498 78.684 409.417 78.944C410.223 79.1607 410.769 79.438 411.055 79.776C411.35 80.1053 411.497 80.53 411.497 81.05C411.497 81.6047 411.254 82.103 410.769 82.545C410.292 82.9783 409.599 83.195 408.689 83.195C407.736 83.195 406.999 82.9567 406.479 82.48C405.968 81.9947 405.66 81.4097 405.556 80.725Z" fill="#FF5859"/>
<path d="M338.888 627.375H340.097C340.409 627.375 340.682 627.34 340.916 627.271C341.15 627.193 341.371 627.054 341.579 626.855C341.787 626.656 341.948 626.357 342.06 625.958C342.173 625.551 342.229 625.044 342.229 624.437C342.229 623.423 342.039 622.686 341.657 622.227C341.285 621.759 340.791 621.525 340.175 621.525H338.888V627.375ZM337.133 629V619.9H340.175C340.695 619.9 341.185 619.991 341.644 620.173C342.104 620.355 342.52 620.624 342.892 620.979C343.265 621.334 343.56 621.811 343.776 622.409C344.002 622.998 344.114 623.674 344.114 624.437C344.114 625.269 344.002 625.993 343.776 626.608C343.551 627.223 343.243 627.7 342.853 628.038C342.463 628.367 342.039 628.61 341.579 628.766C341.129 628.922 340.635 629 340.097 629H337.133ZM349.956 626.621L351.139 627.661C350.437 628.684 349.488 629.195 348.292 629.195C347.33 629.195 346.545 628.866 345.939 628.207C345.332 627.54 345.029 626.656 345.029 625.555C345.029 624.454 345.328 623.575 345.926 622.916C346.532 622.249 347.295 621.915 348.214 621.915C349.132 621.915 349.886 622.249 350.476 622.916C351.074 623.575 351.373 624.454 351.373 625.555V626.062H346.745C346.771 626.591 346.914 626.998 347.174 627.284C347.442 627.561 347.806 627.7 348.266 627.7C348.656 627.7 348.976 627.605 349.228 627.414C349.488 627.215 349.73 626.95 349.956 626.621ZM346.745 624.801H349.735C349.691 624.359 349.54 624.017 349.28 623.774C349.02 623.523 348.664 623.397 348.214 623.397C347.798 623.397 347.455 623.531 347.187 623.8C346.927 624.069 346.779 624.402 346.745 624.801ZM353.084 629V623.54H352.018V622.11H353.123V621.135C353.123 620.546 353.274 620.13 353.578 619.887C353.89 619.636 354.34 619.51 354.93 619.51H356.282V621.005H355.281C355.073 621.005 354.925 621.048 354.839 621.135C354.761 621.213 354.722 621.352 354.722 621.551V622.11H356.464V623.54H354.774V629H353.084ZM361.851 626.621L363.034 627.661C362.332 628.684 361.383 629.195 360.187 629.195C359.225 629.195 358.441 628.866 357.834 628.207C357.228 627.54 356.924 626.656 356.924 625.555C356.924 624.454 357.223 623.575 357.821 622.916C358.428 622.249 359.191 621.915 360.109 621.915C361.028 621.915 361.782 622.249 362.371 622.916C362.969 623.575 363.268 624.454 363.268 625.555V626.062H358.64C358.666 626.591 358.809 626.998 359.069 627.284C359.338 627.561 359.702 627.7 360.161 627.7C360.551 627.7 360.872 627.605 361.123 627.414C361.383 627.215 361.626 626.95 361.851 626.621ZM358.64 624.801H361.63C361.587 624.359 361.435 624.017 361.175 623.774C360.915 623.523 360.56 623.397 360.109 623.397C359.693 623.397 359.351 623.531 359.082 623.8C358.822 624.069 358.675 624.402 358.64 624.801ZM364.628 629V622.11H366.253V622.773H366.279C366.47 622.53 366.73 622.327 367.059 622.162C367.389 621.997 367.735 621.915 368.099 621.915C368.862 621.915 369.46 622.145 369.893 622.604C370.327 623.055 370.543 623.683 370.543 624.489V629H368.853V624.905C368.853 624.428 368.762 624.073 368.58 623.839C368.398 623.596 368.086 623.475 367.644 623.475C367.228 623.475 366.903 623.596 366.669 623.839C366.435 624.073 366.318 624.389 366.318 624.788V629H364.628ZM376.573 626.179V624.918C376.573 624.502 376.439 624.151 376.17 623.865C375.91 623.579 375.551 623.436 375.091 623.436C374.597 623.436 374.212 623.614 373.934 623.969C373.666 624.324 373.531 624.853 373.531 625.555C373.531 626.248 373.666 626.777 373.934 627.141C374.212 627.496 374.597 627.674 375.091 627.674C375.551 627.674 375.91 627.531 376.17 627.245C376.439 626.95 376.573 626.595 376.573 626.179ZM376.677 629V628.337H376.651C376.608 628.398 376.543 628.476 376.456 628.571C376.378 628.666 376.179 628.796 375.858 628.961C375.546 629.117 375.204 629.195 374.831 629.195C373.921 629.195 373.193 628.866 372.647 628.207C372.11 627.548 371.841 626.664 371.841 625.555C371.841 624.437 372.136 623.553 372.725 622.903C373.315 622.244 374.008 621.915 374.805 621.915C375.169 621.915 375.494 621.989 375.78 622.136C376.075 622.275 376.274 622.413 376.378 622.552L376.547 622.773H376.573V619.51H378.263V629H376.677ZM384.55 626.621L385.733 627.661C385.031 628.684 384.082 629.195 382.886 629.195C381.924 629.195 381.14 628.866 380.533 628.207C379.927 627.54 379.623 626.656 379.623 625.555C379.623 624.454 379.922 623.575 380.52 622.916C381.127 622.249 381.89 621.915 382.808 621.915C383.727 621.915 384.481 622.249 385.07 622.916C385.668 623.575 385.967 624.454 385.967 625.555V626.062H381.339C381.365 626.591 381.508 626.998 381.768 627.284C382.037 627.561 382.401 627.7 382.86 627.7C383.25 627.7 383.571 627.605 383.822 627.414C384.082 627.215 384.325 626.95 384.55 626.621ZM381.339 624.801H384.329C384.286 624.359 384.134 624.017 383.874 623.774C383.614 623.523 383.259 623.397 382.808 623.397C382.392 623.397 382.05 623.531 381.781 623.8C381.521 624.069 381.374 624.402 381.339 624.801ZM387.327 629V622.11H388.926V622.838H388.952C389.082 622.578 389.273 622.37 389.524 622.214C389.784 622.058 390.066 621.98 390.369 621.98C390.586 621.98 390.794 622.023 390.993 622.11L390.733 623.748C390.543 623.679 390.365 623.644 390.2 623.644C389.412 623.644 389.017 624.168 389.017 625.217V629H387.327ZM391.581 626.725L393.102 626.335C393.223 627.297 393.739 627.778 394.649 627.778C395.065 627.778 395.394 627.713 395.637 627.583C395.888 627.444 396.014 627.254 396.014 627.011C396.014 626.812 395.919 626.664 395.728 626.569C395.537 626.465 395.139 626.326 394.532 626.153C394.367 626.11 394.242 626.075 394.155 626.049C393.358 625.824 392.773 625.559 392.4 625.256C392.027 624.944 391.841 624.532 391.841 624.021C391.841 623.449 392.071 622.955 392.53 622.539C392.998 622.123 393.635 621.915 394.441 621.915C395.984 621.915 396.95 622.591 397.34 623.943L395.936 624.372C395.815 624.043 395.641 623.783 395.416 623.592C395.199 623.401 394.879 623.306 394.454 623.306C394.125 623.306 393.86 623.371 393.661 623.501C393.47 623.622 393.375 623.77 393.375 623.943C393.375 624.134 393.488 624.285 393.713 624.398C393.947 624.502 394.523 624.684 395.442 624.944C396.248 625.161 396.794 625.438 397.08 625.776C397.375 626.105 397.522 626.53 397.522 627.05C397.522 627.605 397.279 628.103 396.794 628.545C396.317 628.978 395.624 629.195 394.714 629.195C393.761 629.195 393.024 628.957 392.504 628.48C391.993 627.995 391.685 627.41 391.581 626.725Z" fill="#24E8CC"/>
<path d="M549.489 195V188.098H552.418C553.029 188.098 553.519 188.279 553.887 188.64C554.261 188.995 554.449 189.432 554.449 189.952C554.449 190.53 554.199 190.967 553.699 191.263V191.273C553.995 191.398 554.235 191.598 554.419 191.874C554.61 192.144 554.705 192.469 554.705 192.851C554.705 193.508 554.505 194.034 554.104 194.428C553.703 194.809 553.042 195 552.122 195H549.489ZM550.82 193.768H552.427C553.059 193.768 553.374 193.462 553.374 192.851C553.374 192.568 553.289 192.351 553.118 192.2C552.953 192.042 552.727 191.963 552.437 191.963H550.82V193.768ZM550.82 190.879H552.25C552.519 190.879 552.73 190.816 552.881 190.691C553.039 190.56 553.118 190.369 553.118 190.119C553.118 189.856 553.042 189.659 552.891 189.528C552.74 189.396 552.526 189.331 552.25 189.331H550.82V190.879ZM558.357 195V188.098H559.688V193.768H562.538V195H558.357ZM564.604 193.58C564.815 193.856 565.104 193.994 565.472 193.994C565.84 193.994 566.129 193.856 566.34 193.58C566.55 193.298 566.655 192.9 566.655 192.387C566.655 191.874 566.547 191.48 566.33 191.204C566.119 190.921 565.833 190.78 565.472 190.78C565.11 190.78 564.821 190.918 564.604 191.194C564.394 191.47 564.289 191.868 564.289 192.387C564.289 192.906 564.394 193.304 564.604 193.58ZM567.227 194.418C566.767 194.905 566.182 195.148 565.472 195.148C564.762 195.148 564.177 194.905 563.717 194.418C563.257 193.932 563.027 193.255 563.027 192.387C563.027 191.533 563.263 190.859 563.736 190.366C564.21 189.873 564.788 189.626 565.472 189.626C566.155 189.626 566.734 189.873 567.207 190.366C567.68 190.859 567.917 191.533 567.917 192.387C567.917 193.255 567.687 193.932 567.227 194.418ZM570.238 191.904V192.86C570.238 193.176 570.337 193.445 570.534 193.669C570.738 193.886 571.014 193.994 571.362 193.994C571.737 193.994 572.026 193.86 572.23 193.59C572.44 193.314 572.545 192.913 572.545 192.387C572.545 191.855 572.44 191.454 572.23 191.184C572.026 190.915 571.737 190.78 571.362 190.78C571.014 190.78 570.738 190.888 570.534 191.105C570.337 191.322 570.238 191.588 570.238 191.904ZM568.956 195V187.802H570.238V190.277H570.258C570.271 190.257 570.287 190.234 570.307 190.208C570.327 190.175 570.376 190.123 570.455 190.05C570.541 189.978 570.629 189.912 570.721 189.853C570.82 189.794 570.945 189.741 571.096 189.695C571.254 189.649 571.418 189.626 571.589 189.626C572.233 189.626 572.766 189.883 573.186 190.395C573.614 190.902 573.827 191.565 573.827 192.387C573.827 193.229 573.62 193.899 573.206 194.399C572.798 194.898 572.25 195.148 571.559 195.148C571.277 195.148 571.02 195.095 570.79 194.99C570.56 194.878 570.403 194.77 570.317 194.665L570.179 194.497H570.159V195H568.956ZM576.141 191.904V192.86C576.141 193.176 576.239 193.445 576.436 193.669C576.64 193.886 576.916 193.994 577.265 193.994C577.639 193.994 577.929 193.86 578.132 193.59C578.343 193.314 578.448 192.913 578.448 192.387C578.448 191.855 578.343 191.454 578.132 191.184C577.929 190.915 577.639 190.78 577.265 190.78C576.916 190.78 576.64 190.888 576.436 191.105C576.239 191.322 576.141 191.588 576.141 191.904ZM574.859 195V187.802H576.141V190.277H576.16C576.174 190.257 576.19 190.234 576.21 190.208C576.229 190.175 576.279 190.123 576.358 190.05C576.443 189.978 576.532 189.912 576.624 189.853C576.722 189.794 576.847 189.741 576.998 189.695C577.156 189.649 577.321 189.626 577.491 189.626C578.136 189.626 578.668 189.883 579.089 190.395C579.516 190.902 579.73 191.565 579.73 192.387C579.73 193.229 579.523 193.899 579.108 194.399C578.701 194.898 578.152 195.148 577.462 195.148C577.179 195.148 576.923 195.095 576.693 194.99C576.463 194.878 576.305 194.77 576.22 194.665L576.081 194.497H576.062V195H574.859ZM580.973 197.218L582.018 194.744L579.928 189.774H581.229L582.58 193.314H582.6L583.951 189.774H585.252L582.245 197.218H580.973Z" fill="#7986A3"/>
<path d="M481.726 242V235.098H484.654C485.266 235.098 485.755 235.279 486.123 235.64C486.498 235.995 486.685 236.432 486.685 236.952C486.685 237.53 486.436 237.967 485.936 238.263V238.273C486.232 238.398 486.472 238.598 486.656 238.874C486.846 239.144 486.942 239.469 486.942 239.851C486.942 240.508 486.741 241.034 486.34 241.428C485.939 241.809 485.279 242 484.358 242H481.726ZM483.057 240.768H484.664C485.295 240.768 485.611 240.462 485.611 239.851C485.611 239.568 485.525 239.351 485.354 239.2C485.19 239.042 484.963 238.963 484.674 238.963H483.057V240.768ZM483.057 237.879H484.487C484.756 237.879 484.967 237.816 485.118 237.691C485.275 237.56 485.354 237.369 485.354 237.119C485.354 236.856 485.279 236.659 485.128 236.528C484.976 236.396 484.763 236.331 484.487 236.331H483.057V237.879ZM490.594 242V235.098H491.925V240.768H494.775V242H490.594ZM495.608 242V236.774H496.89V242H495.608ZM495.608 236.015V234.802H496.89V236.015H495.608ZM498.266 242V236.774H499.498V237.277H499.518C499.663 237.093 499.86 236.939 500.11 236.814C500.359 236.689 500.622 236.626 500.899 236.626C501.477 236.626 501.931 236.801 502.259 237.149C502.588 237.491 502.752 237.967 502.752 238.579V242H501.47V238.894C501.47 238.533 501.401 238.263 501.263 238.086C501.125 237.902 500.889 237.81 500.553 237.81C500.238 237.81 499.991 237.902 499.814 238.086C499.636 238.263 499.548 238.503 499.548 238.805V242H498.266ZM504.082 242V234.802H505.364V238.934H505.383L507.286 236.774H508.893L507.01 238.894L509.061 242H507.641L506.044 239.614H506.024L505.364 240.363V242H504.082Z" fill="#7986A3"/>
<path d="M359.285 252V245.098H362.214C362.825 245.098 363.315 245.279 363.683 245.64C364.058 245.995 364.245 246.432 364.245 246.952C364.245 247.53 363.995 247.967 363.496 248.263V248.273C363.791 248.398 364.031 248.598 364.215 248.874C364.406 249.144 364.501 249.469 364.501 249.851C364.501 250.508 364.301 251.034 363.9 251.428C363.499 251.809 362.838 252 361.918 252H359.285ZM360.617 250.768H362.224C362.855 250.768 363.17 250.462 363.17 249.851C363.17 249.568 363.085 249.351 362.914 249.2C362.75 249.042 362.523 248.963 362.234 248.963H360.617V250.768ZM360.617 247.879H362.046C362.316 247.879 362.526 247.816 362.677 247.691C362.835 247.56 362.914 247.369 362.914 247.119C362.914 246.856 362.838 246.659 362.687 246.528C362.536 246.396 362.322 246.331 362.046 246.331H360.617V247.879ZM366.823 250.58C367.033 250.856 367.322 250.994 367.69 250.994C368.058 250.994 368.348 250.856 368.558 250.58C368.768 250.298 368.873 249.9 368.873 249.387C368.873 248.874 368.765 248.48 368.548 248.204C368.338 247.921 368.052 247.78 367.69 247.78C367.329 247.78 367.039 247.918 366.823 248.194C366.612 248.47 366.507 248.868 366.507 249.387C366.507 249.906 366.612 250.304 366.823 250.58ZM369.445 251.418C368.985 251.905 368.4 252.148 367.69 252.148C366.98 252.148 366.395 251.905 365.935 251.418C365.475 250.932 365.245 250.255 365.245 249.387C365.245 248.533 365.482 247.859 365.955 247.366C366.428 246.873 367.007 246.626 367.69 246.626C368.374 246.626 368.952 246.873 369.426 247.366C369.899 247.859 370.135 248.533 370.135 249.387C370.135 250.255 369.905 250.932 369.445 251.418ZM371.441 250.136V247.859H370.632V246.774H371.471V245.492H372.683V246.774H374.005V247.859H372.703V250.018C372.703 250.294 372.749 250.488 372.841 250.6C372.933 250.712 373.12 250.768 373.403 250.768H373.827V252H373.285C372.581 252 372.098 251.852 371.835 251.556C371.572 251.261 371.441 250.787 371.441 250.136ZM375.158 250.136V247.859H374.349V246.774H375.187V245.492H376.4V246.774H377.721V247.859H376.42V250.018C376.42 250.294 376.466 250.488 376.558 250.6C376.65 250.712 376.837 250.768 377.12 250.768H377.544V252H377.001C376.298 252 375.815 251.852 375.552 251.556C375.289 251.261 375.158 250.787 375.158 250.136ZM379.937 250.58C380.147 250.856 380.437 250.994 380.805 250.994C381.173 250.994 381.462 250.856 381.672 250.58C381.883 250.298 381.988 249.9 381.988 249.387C381.988 248.874 381.879 248.48 381.662 248.204C381.452 247.921 381.166 247.78 380.805 247.78C380.443 247.78 380.154 247.918 379.937 248.194C379.727 248.47 379.621 248.868 379.621 249.387C379.621 249.906 379.727 250.304 379.937 250.58ZM382.56 251.418C382.1 251.905 381.515 252.148 380.805 252.148C380.095 252.148 379.51 251.905 379.05 251.418C378.589 250.932 378.359 250.255 378.359 249.387C378.359 248.533 378.596 247.859 379.069 247.366C379.543 246.873 380.121 246.626 380.805 246.626C381.488 246.626 382.067 246.873 382.54 247.366C383.013 247.859 383.25 248.533 383.25 249.387C383.25 250.255 383.02 250.932 382.56 251.418ZM384.289 252V246.774H385.463V247.277H385.482C385.601 247.093 385.771 246.939 385.995 246.814C386.225 246.689 386.475 246.626 386.744 246.626C387.02 246.626 387.28 246.692 387.523 246.824C387.766 246.948 387.951 247.113 388.075 247.317H388.095C388.227 247.113 388.414 246.948 388.657 246.824C388.9 246.692 389.167 246.626 389.456 246.626C390.08 246.626 390.573 246.791 390.935 247.119C391.303 247.448 391.487 247.882 391.487 248.421V252H390.314V248.687C390.314 248.431 390.238 248.22 390.087 248.056C389.942 247.892 389.715 247.81 389.406 247.81C389.117 247.81 388.894 247.885 388.736 248.036C388.585 248.187 388.509 248.381 388.509 248.618V252H387.336V248.687C387.336 248.437 387.257 248.23 387.099 248.066C386.942 247.895 386.718 247.81 386.429 247.81C386.133 247.81 385.91 247.885 385.758 248.036C385.607 248.187 385.532 248.381 385.532 248.618V252H384.289ZM395.384 252V245.098H396.754L398.756 249.574H398.776L400.777 245.098H402.158V252H400.856V247.76H400.836L398.874 252H398.657L396.695 247.76H396.676V252H395.384ZM403.634 252V246.774H404.915V252H403.634ZM403.634 246.015V244.802H404.915V246.015H403.634ZM409.535 249.86V248.904C409.535 248.588 409.433 248.322 409.229 248.105C409.032 247.888 408.759 247.78 408.411 247.78C408.036 247.78 407.744 247.915 407.533 248.184C407.33 248.454 407.228 248.855 407.228 249.387C407.228 249.913 407.33 250.314 407.533 250.59C407.744 250.86 408.036 250.994 408.411 250.994C408.759 250.994 409.032 250.886 409.229 250.669C409.433 250.445 409.535 250.176 409.535 249.86ZM409.614 252V251.497H409.594C409.561 251.543 409.512 251.602 409.446 251.675C409.387 251.747 409.236 251.846 408.993 251.97C408.756 252.089 408.496 252.148 408.214 252.148C407.524 252.148 406.971 251.898 406.557 251.399C406.15 250.899 405.946 250.229 405.946 249.387C405.946 248.539 406.169 247.869 406.616 247.376C407.063 246.876 407.589 246.626 408.194 246.626C408.47 246.626 408.717 246.682 408.934 246.794C409.157 246.899 409.308 247.004 409.387 247.109L409.515 247.277H409.535V244.802H410.817V252H409.614Z" fill="#7986A3"/>
<path d="M359.244 367V361.331H357.223V360.098H362.596V361.331H360.575V367H359.244ZM363.832 365.58C364.043 365.856 364.332 365.994 364.7 365.994C365.068 365.994 365.357 365.856 365.568 365.58C365.778 365.298 365.883 364.9 365.883 364.387C365.883 363.874 365.775 363.48 365.558 363.204C365.347 362.921 365.061 362.78 364.7 362.78C364.338 362.78 364.049 362.918 363.832 363.194C363.622 363.47 363.517 363.868 363.517 364.387C363.517 364.906 363.622 365.304 363.832 365.58ZM366.455 366.418C365.995 366.905 365.41 367.148 364.7 367.148C363.99 367.148 363.405 366.905 362.945 366.418C362.485 365.932 362.255 365.255 362.255 364.387C362.255 363.533 362.491 362.859 362.965 362.366C363.438 361.873 364.016 361.626 364.7 361.626C365.384 361.626 365.962 361.873 366.435 362.366C366.909 362.859 367.145 363.533 367.145 364.387C367.145 365.255 366.915 365.932 366.455 366.418ZM369.466 363.845V364.92C369.466 365.222 369.568 365.478 369.772 365.689C369.976 365.892 370.249 365.994 370.59 365.994C370.965 365.994 371.271 365.856 371.507 365.58C371.751 365.304 371.872 364.906 371.872 364.387C371.872 363.868 371.754 363.47 371.517 363.194C371.281 362.918 370.972 362.78 370.59 362.78C370.249 362.78 369.976 362.885 369.772 363.095C369.568 363.299 369.466 363.549 369.466 363.845ZM368.185 369.218V361.774H369.407V362.277H369.427C369.44 362.257 369.456 362.234 369.476 362.208C369.496 362.175 369.545 362.123 369.624 362.05C369.71 361.978 369.802 361.912 369.9 361.853C369.999 361.794 370.13 361.741 370.295 361.695C370.465 361.649 370.646 361.626 370.837 361.626C371.455 361.626 371.994 361.876 372.454 362.376C372.921 362.869 373.154 363.539 373.154 364.387C373.154 365.242 372.93 365.915 372.483 366.408C372.036 366.901 371.494 367.148 370.857 367.148C370.666 367.148 370.488 367.125 370.324 367.079C370.166 367.033 370.038 366.98 369.94 366.921C369.841 366.855 369.756 366.793 369.683 366.734C369.611 366.668 369.558 366.612 369.525 366.566L369.486 366.497H369.466V369.218H368.185ZM376.756 367V360.098H378.127L380.129 364.574H380.148L382.15 360.098H383.53V367H382.229V362.76H382.209L380.247 367H380.03L378.068 362.76H378.048V367H376.756ZM385.006 367V361.774H386.288V367H385.006ZM385.006 361.015V359.802H386.288V361.015H385.006ZM390.908 364.86V363.904C390.908 363.588 390.806 363.322 390.602 363.105C390.405 362.888 390.132 362.78 389.784 362.78C389.409 362.78 389.116 362.915 388.906 363.184C388.702 363.454 388.6 363.855 388.6 364.387C388.6 364.913 388.702 365.314 388.906 365.59C389.116 365.86 389.409 365.994 389.784 365.994C390.132 365.994 390.405 365.886 390.602 365.669C390.806 365.445 390.908 365.176 390.908 364.86ZM390.986 367V366.497H390.967C390.934 366.543 390.885 366.602 390.819 366.675C390.76 366.747 390.608 366.846 390.365 366.97C390.129 367.089 389.869 367.148 389.586 367.148C388.896 367.148 388.344 366.898 387.93 366.399C387.522 365.899 387.319 365.229 387.319 364.387C387.319 363.539 387.542 362.869 387.989 362.376C388.436 361.876 388.962 361.626 389.567 361.626C389.843 361.626 390.089 361.682 390.306 361.794C390.53 361.899 390.681 362.004 390.76 362.109L390.888 362.277H390.908V359.802H392.189V367H390.986Z" fill="#7986A3"/>
<path d="M413.574 367V360.098H414.945L416.947 364.574H416.966L418.968 360.098H420.348V367H419.047V362.76H419.027L417.065 367H416.848L414.886 362.76H414.866V367H413.574ZM421.824 367V361.774H423.106V367H421.824ZM421.824 361.015V359.802H423.106V361.015H421.824ZM427.726 364.86V363.904C427.726 363.588 427.624 363.322 427.42 363.105C427.223 362.888 426.95 362.78 426.602 362.78C426.227 362.78 425.934 362.915 425.724 363.184C425.52 363.454 425.418 363.855 425.418 364.387C425.418 364.913 425.52 365.314 425.724 365.59C425.934 365.86 426.227 365.994 426.602 365.994C426.95 365.994 427.223 365.886 427.42 365.669C427.624 365.445 427.726 365.176 427.726 364.86ZM427.804 367V366.497H427.785C427.752 366.543 427.703 366.602 427.637 366.675C427.578 366.747 427.426 366.846 427.183 366.97C426.947 367.089 426.687 367.148 426.404 367.148C425.714 367.148 425.162 366.898 424.748 366.399C424.34 365.899 424.137 365.229 424.137 364.387C424.137 363.539 424.36 362.869 424.807 362.376C425.254 361.876 425.78 361.626 426.385 361.626C426.661 361.626 426.907 361.682 427.124 361.794C427.348 361.899 427.499 362.004 427.578 362.109L427.706 362.277H427.726V359.802H429.007V367H427.804ZM432.948 367V360.098H434.318L436.32 364.574H436.339L438.341 360.098H439.721V367H438.42V362.76H438.4L436.438 367H436.221L434.259 362.76H434.239V367H432.948ZM444.175 367V366.497H444.155C444.142 366.517 444.126 366.543 444.106 366.576C444.086 366.602 444.037 366.652 443.958 366.724C443.879 366.796 443.79 366.862 443.692 366.921C443.593 366.98 443.458 367.033 443.288 367.079C443.117 367.125 442.933 367.148 442.735 367.148C442.104 367.148 441.631 367 441.316 366.704C441.007 366.402 440.852 366.034 440.852 365.6C440.852 365.146 440.987 364.801 441.256 364.565C441.526 364.328 441.983 364.131 442.627 363.973C443.225 363.828 443.6 363.713 443.751 363.628C443.902 363.542 443.978 363.421 443.978 363.263C443.978 363.105 443.902 362.974 443.751 362.869C443.606 362.764 443.386 362.711 443.09 362.711C442.742 362.711 442.492 362.79 442.341 362.948C442.19 363.099 442.072 363.306 441.986 363.569L440.921 363.125C441.046 362.685 441.289 362.326 441.651 362.05C442.012 361.768 442.486 361.626 443.071 361.626C443.708 361.626 444.231 361.794 444.638 362.129C445.046 362.464 445.25 362.984 445.25 363.687V367H444.175ZM442.883 364.86C442.555 364.939 442.338 365.035 442.233 365.146C442.134 365.252 442.085 365.373 442.085 365.511C442.085 365.866 442.341 366.044 442.854 366.044C443.242 366.044 443.531 365.971 443.721 365.827C443.919 365.675 444.017 365.491 444.017 365.275V364.367H443.997C443.971 364.42 443.942 364.463 443.909 364.496C443.882 364.522 443.784 364.571 443.613 364.643C443.442 364.709 443.199 364.782 442.883 364.86ZM446.532 367V361.774H447.813V367H446.532ZM446.532 361.015V359.802H447.813V361.015H446.532ZM449.189 367V359.802H450.52V367H449.189Z" fill="#7986A3"/>
<path d="M300.626 408V401.098H301.997L303.998 405.574H304.018L306.019 401.098H307.4V408H306.098V403.76H306.079L304.116 408H303.9L301.937 403.76H301.918V408H300.626ZM308.876 408V402.774H310.157V408H308.876ZM308.876 402.015V400.802H310.157V402.015H308.876ZM314.777 405.86V404.904C314.777 404.588 314.675 404.322 314.471 404.105C314.274 403.888 314.001 403.78 313.653 403.78C313.278 403.78 312.986 403.915 312.776 404.184C312.572 404.454 312.47 404.855 312.47 405.387C312.47 405.913 312.572 406.314 312.776 406.59C312.986 406.86 313.278 406.994 313.653 406.994C314.001 406.994 314.274 406.886 314.471 406.669C314.675 406.445 314.777 406.176 314.777 405.86ZM314.856 408V407.497H314.836C314.803 407.543 314.754 407.602 314.688 407.675C314.629 407.747 314.478 407.846 314.235 407.97C313.998 408.089 313.739 408.148 313.456 408.148C312.766 408.148 312.214 407.898 311.799 407.399C311.392 406.899 311.188 406.229 311.188 405.387C311.188 404.539 311.412 403.869 311.859 403.376C312.306 402.876 312.831 402.626 313.436 402.626C313.712 402.626 313.959 402.682 314.176 402.794C314.399 402.899 314.55 403.004 314.629 403.109L314.757 403.277H314.777V400.802H316.059V408H314.856ZM321.754 408L319.26 401.098H320.66L322.366 405.998H322.395L324.052 401.098H325.432L322.967 408H321.754ZM329.118 406.196L330.015 406.984C329.483 407.76 328.763 408.148 327.856 408.148C327.126 408.148 326.531 407.898 326.071 407.399C325.611 406.892 325.381 406.222 325.381 405.387C325.381 404.552 325.608 403.885 326.061 403.386C326.521 402.879 327.1 402.626 327.797 402.626C328.493 402.626 329.065 402.879 329.512 403.386C329.966 403.885 330.193 404.552 330.193 405.387V405.772H326.682C326.702 406.173 326.811 406.482 327.008 406.698C327.212 406.909 327.488 407.014 327.836 407.014C328.132 407.014 328.375 406.942 328.566 406.797C328.763 406.646 328.947 406.445 329.118 406.196ZM326.682 404.815H328.95C328.917 404.48 328.802 404.22 328.605 404.036C328.408 403.846 328.138 403.75 327.797 403.75C327.481 403.75 327.221 403.852 327.018 404.056C326.821 404.26 326.709 404.513 326.682 404.815ZM331.224 408V402.774H332.457V403.277H332.476C332.621 403.093 332.818 402.939 333.068 402.814C333.318 402.689 333.581 402.626 333.857 402.626C334.435 402.626 334.889 402.801 335.217 403.149C335.546 403.491 335.71 403.967 335.71 404.579V408H334.429V404.894C334.429 404.533 334.36 404.263 334.222 404.086C334.084 403.902 333.847 403.81 333.512 403.81C333.196 403.81 332.95 403.902 332.772 404.086C332.595 404.263 332.506 404.503 332.506 404.805V408H331.224ZM337.306 406.136V403.859H336.498V402.774H337.336V401.492H338.549V402.774H339.87V403.859H338.568V406.018C338.568 406.294 338.614 406.488 338.706 406.6C338.798 406.712 338.986 406.768 339.268 406.768H339.692V408H339.15C338.447 408 337.963 407.852 337.701 407.556C337.438 407.261 337.306 406.787 337.306 406.136Z" fill="#7986A3"/>
<path d="M211.594 517L211.2 515.866H208.567L208.173 517H206.851L209.346 510.098H210.48L212.965 517H211.594ZM209.878 512.07L208.942 514.762H210.825L209.898 512.07H209.878ZM216.267 517V510.098H217.598V512.879H219.964V510.098H221.295V517H219.964V514.012H217.598V517H216.267ZM226.165 515.196L227.062 515.984C226.53 516.76 225.81 517.148 224.903 517.148C224.173 517.148 223.579 516.898 223.118 516.399C222.658 515.892 222.428 515.222 222.428 514.387C222.428 513.552 222.655 512.885 223.109 512.386C223.569 511.879 224.147 511.626 224.844 511.626C225.541 511.626 226.113 511.879 226.559 512.386C227.013 512.885 227.24 513.552 227.24 514.387V514.772H223.73C223.749 515.173 223.858 515.482 224.055 515.698C224.259 515.909 224.535 516.014 224.883 516.014C225.179 516.014 225.422 515.942 225.613 515.797C225.81 515.646 225.994 515.445 226.165 515.196ZM223.73 513.815H225.997C225.965 513.48 225.85 513.22 225.652 513.036C225.455 512.846 225.186 512.75 224.844 512.75C224.528 512.75 224.269 512.852 224.065 513.056C223.868 513.26 223.756 513.513 223.73 513.815ZM231.249 517V516.497H231.229C231.216 516.517 231.2 516.543 231.18 516.576C231.16 516.602 231.111 516.652 231.032 516.724C230.953 516.796 230.864 516.862 230.766 516.921C230.667 516.98 230.533 517.033 230.362 517.079C230.191 517.125 230.007 517.148 229.809 517.148C229.178 517.148 228.705 517 228.39 516.704C228.081 516.402 227.926 516.034 227.926 515.6C227.926 515.146 228.061 514.801 228.331 514.565C228.6 514.328 229.057 514.131 229.701 513.973C230.299 513.828 230.674 513.713 230.825 513.628C230.976 513.542 231.052 513.421 231.052 513.263C231.052 513.105 230.976 512.974 230.825 512.869C230.68 512.764 230.46 512.711 230.164 512.711C229.816 512.711 229.566 512.79 229.415 512.948C229.264 513.099 229.146 513.306 229.06 513.569L227.995 513.125C228.12 512.685 228.363 512.326 228.725 512.05C229.086 511.768 229.56 511.626 230.145 511.626C230.782 511.626 231.305 511.794 231.712 512.129C232.12 512.464 232.324 512.984 232.324 513.687V517H231.249ZM229.957 514.86C229.629 514.939 229.412 515.035 229.307 515.146C229.208 515.252 229.159 515.373 229.159 515.511C229.159 515.866 229.415 516.044 229.928 516.044C230.316 516.044 230.605 515.971 230.795 515.827C230.993 515.675 231.091 515.491 231.091 515.275V514.367H231.072C231.045 514.42 231.016 514.463 230.983 514.496C230.957 514.522 230.858 514.571 230.687 514.643C230.516 514.709 230.273 514.782 229.957 514.86ZM234.806 517L232.716 511.774H234.047L235.348 515.136H235.368L236.669 511.774H237.981L235.891 517H234.806ZM241.966 515.196L242.863 515.984C242.331 516.76 241.611 517.148 240.704 517.148C239.974 517.148 239.379 516.898 238.919 516.399C238.459 515.892 238.229 515.222 238.229 514.387C238.229 513.552 238.456 512.885 238.909 512.386C239.37 511.879 239.948 511.626 240.645 511.626C241.342 511.626 241.913 511.879 242.36 512.386C242.814 512.885 243.041 513.552 243.041 514.387V514.772H239.531C239.55 515.173 239.659 515.482 239.856 515.698C240.06 515.909 240.336 516.014 240.684 516.014C240.98 516.014 241.223 515.942 241.414 515.797C241.611 515.646 241.795 515.445 241.966 515.196ZM239.531 513.815H241.798C241.766 513.48 241.65 513.22 241.453 513.036C241.256 512.846 240.987 512.75 240.645 512.75C240.329 512.75 240.07 512.852 239.866 513.056C239.669 513.26 239.557 513.513 239.531 513.815ZM244.072 517V511.774H245.305V512.277H245.324C245.469 512.093 245.666 511.939 245.916 511.814C246.166 511.689 246.429 511.626 246.705 511.626C247.283 511.626 247.737 511.801 248.066 512.149C248.394 512.491 248.559 512.967 248.559 513.579V517H247.277V513.894C247.277 513.533 247.208 513.263 247.07 513.086C246.932 512.902 246.695 512.81 246.36 512.81C246.044 512.81 245.798 512.902 245.62 513.086C245.443 513.263 245.354 513.503 245.354 513.805V517H244.072Z" fill="#7986A3"/>
<path d="M158.878 450L158.484 448.866H155.851L155.457 450H154.135L156.63 443.098H157.764L160.249 450H158.878ZM157.162 445.07L156.226 447.762H158.109L157.182 445.07H157.162ZM163.551 450V443.098H166.351C167.061 443.098 167.633 443.299 168.066 443.7C168.507 444.094 168.727 444.626 168.727 445.297C168.727 445.796 168.596 446.22 168.333 446.569C168.076 446.917 167.721 447.164 167.268 447.308L168.737 450H167.297L165.907 447.436H164.882V450H163.551ZM164.882 446.283H166.242C166.998 446.283 167.376 445.954 167.376 445.297C167.376 444.633 166.998 444.301 166.242 444.301H164.882V446.283ZM172.698 450V449.497H172.678C172.665 449.517 172.649 449.543 172.629 449.576C172.609 449.602 172.56 449.652 172.481 449.724C172.402 449.796 172.313 449.862 172.215 449.921C172.116 449.98 171.982 450.033 171.811 450.079C171.64 450.125 171.456 450.148 171.258 450.148C170.627 450.148 170.154 450 169.839 449.704C169.53 449.402 169.375 449.034 169.375 448.6C169.375 448.146 169.51 447.801 169.779 447.565C170.049 447.328 170.506 447.131 171.15 446.973C171.748 446.828 172.123 446.713 172.274 446.628C172.425 446.542 172.501 446.421 172.501 446.263C172.501 446.105 172.425 445.974 172.274 445.869C172.129 445.764 171.909 445.711 171.613 445.711C171.265 445.711 171.015 445.79 170.864 445.948C170.713 446.099 170.595 446.306 170.509 446.569L169.444 446.125C169.569 445.685 169.812 445.326 170.174 445.05C170.535 444.768 171.009 444.626 171.594 444.626C172.231 444.626 172.754 444.794 173.161 445.129C173.569 445.464 173.773 445.984 173.773 446.687V450H172.698ZM171.406 447.86C171.078 447.939 170.861 448.035 170.756 448.146C170.657 448.252 170.608 448.373 170.608 448.511C170.608 448.866 170.864 449.044 171.377 449.044C171.765 449.044 172.054 448.971 172.244 448.827C172.442 448.675 172.54 448.491 172.54 448.275V447.367H172.521C172.494 447.42 172.465 447.463 172.432 447.496C172.406 447.522 172.307 447.571 172.136 447.643C171.965 447.709 171.722 447.782 171.406 447.86ZM175.321 450V445.859H174.512V444.774H175.35V444.035C175.35 443.588 175.466 443.272 175.696 443.088C175.932 442.898 176.274 442.802 176.721 442.802H177.746V443.936H176.987C176.829 443.936 176.718 443.969 176.652 444.035C176.593 444.094 176.563 444.199 176.563 444.35V444.774H177.884V445.859H176.603V450H175.321ZM178.845 448.136V445.859H178.037V444.774H178.875V443.492H180.087V444.774H181.409V445.859H180.107V448.018C180.107 448.294 180.153 448.488 180.245 448.6C180.337 448.712 180.525 448.768 180.807 448.768H181.231V450H180.689C179.986 450 179.502 449.852 179.239 449.556C178.977 449.261 178.845 448.787 178.845 448.136ZM185.784 448.196L186.681 448.984C186.148 449.76 185.429 450.148 184.522 450.148C183.792 450.148 183.197 449.898 182.737 449.399C182.277 448.892 182.047 448.222 182.047 447.387C182.047 446.552 182.274 445.885 182.727 445.386C183.187 444.879 183.766 444.626 184.462 444.626C185.159 444.626 185.731 444.879 186.178 445.386C186.632 445.885 186.858 446.552 186.858 447.387V447.772H183.348C183.368 448.173 183.476 448.482 183.674 448.698C183.877 448.909 184.153 449.014 184.502 449.014C184.798 449.014 185.041 448.942 185.232 448.797C185.429 448.646 185.613 448.445 185.784 448.196ZM183.348 446.815H185.616C185.583 446.48 185.468 446.22 185.271 446.036C185.074 445.846 184.804 445.75 184.462 445.75C184.147 445.75 183.887 445.852 183.684 446.056C183.486 446.26 183.375 446.513 183.348 446.815ZM187.89 450V444.774H189.103V445.326H189.122C189.221 445.129 189.366 444.971 189.556 444.853C189.753 444.735 189.967 444.676 190.197 444.676C190.361 444.676 190.519 444.709 190.67 444.774L190.473 446.017C190.329 445.964 190.194 445.938 190.069 445.938C189.471 445.938 189.172 446.335 189.172 447.131V450H187.89ZM191.116 448.275L192.27 447.979C192.362 448.708 192.753 449.073 193.443 449.073C193.758 449.073 194.008 449.024 194.192 448.925C194.383 448.82 194.478 448.675 194.478 448.491C194.478 448.34 194.406 448.229 194.261 448.156C194.117 448.077 193.814 447.972 193.354 447.841C193.229 447.808 193.134 447.782 193.068 447.762C192.463 447.591 192.02 447.39 191.737 447.16C191.454 446.924 191.313 446.611 191.313 446.224C191.313 445.79 191.487 445.415 191.836 445.1C192.191 444.784 192.674 444.626 193.285 444.626C194.455 444.626 195.188 445.139 195.484 446.164L194.419 446.49C194.327 446.24 194.196 446.043 194.025 445.898C193.86 445.754 193.617 445.681 193.295 445.681C193.045 445.681 192.845 445.731 192.694 445.829C192.549 445.921 192.477 446.033 192.477 446.164C192.477 446.309 192.562 446.424 192.733 446.51C192.91 446.588 193.348 446.727 194.044 446.924C194.656 447.088 195.07 447.298 195.287 447.555C195.51 447.805 195.622 448.127 195.622 448.521C195.622 448.942 195.438 449.32 195.07 449.655C194.708 449.984 194.182 450.148 193.492 450.148C192.769 450.148 192.21 449.967 191.816 449.606C191.428 449.237 191.195 448.794 191.116 448.275Z" fill="#7986A3"/>
<path d="M114.376 343L113.982 341.866H111.349L110.955 343H109.634L112.128 336.098H113.262L115.747 343H114.376ZM112.661 338.07L111.724 340.762H113.607L112.68 338.07H112.661ZM119.049 343V336.098H120.419L122.421 340.574H122.44L124.442 336.098H125.822V343H124.521V338.76H124.501L122.539 343H122.322L120.36 338.76H120.34V343H119.049ZM130.276 343V342.497H130.256C130.243 342.517 130.227 342.543 130.207 342.576C130.187 342.602 130.138 342.652 130.059 342.724C129.98 342.796 129.891 342.862 129.793 342.921C129.694 342.98 129.559 343.033 129.389 343.079C129.218 343.125 129.034 343.148 128.836 343.148C128.205 343.148 127.732 343 127.417 342.704C127.108 342.402 126.953 342.034 126.953 341.6C126.953 341.146 127.088 340.801 127.357 340.565C127.627 340.328 128.084 340.131 128.728 339.973C129.326 339.828 129.701 339.713 129.852 339.628C130.003 339.542 130.079 339.421 130.079 339.263C130.079 339.105 130.003 338.974 129.852 338.869C129.707 338.764 129.487 338.711 129.191 338.711C128.843 338.711 128.593 338.79 128.442 338.948C128.291 339.099 128.172 339.306 128.087 339.569L127.022 339.125C127.147 338.685 127.39 338.326 127.752 338.05C128.113 337.768 128.587 337.626 129.172 337.626C129.809 337.626 130.332 337.794 130.739 338.129C131.147 338.464 131.351 338.984 131.351 339.687V343H130.276ZM128.984 340.86C128.656 340.939 128.439 341.035 128.333 341.146C128.235 341.252 128.186 341.373 128.186 341.511C128.186 341.866 128.442 342.044 128.955 342.044C129.342 342.044 129.632 341.971 129.822 341.827C130.02 341.675 130.118 341.491 130.118 341.275V340.367H130.098C130.072 340.42 130.043 340.463 130.01 340.496C129.983 340.522 129.885 340.571 129.714 340.643C129.543 340.709 129.3 340.782 128.984 340.86ZM132.633 343V337.774H133.914V343H132.633ZM132.633 337.015V335.802H133.914V337.015H132.633ZM135.29 343V337.774H136.523V338.277H136.542C136.687 338.093 136.884 337.939 137.134 337.814C137.384 337.689 137.647 337.626 137.923 337.626C138.501 337.626 138.955 337.801 139.283 338.149C139.612 338.491 139.776 338.967 139.776 339.579V343H138.495V339.894C138.495 339.533 138.426 339.263 138.288 339.086C138.15 338.902 137.913 338.81 137.578 338.81C137.262 338.81 137.016 338.902 136.838 339.086C136.661 339.263 136.572 339.503 136.572 339.805V343H135.29Z" fill="#7986A3"/>
<path d="M83.5886 230L83.1942 228.866H80.5616L80.1672 230H78.846L81.3406 223.098H82.4745L84.9592 230H83.5886ZM81.873 225.07L80.9363 227.762H82.8196L81.8927 225.07H81.873ZM88.2611 230V223.098H89.5922V228.768H92.4417V230H88.2611ZM94.5079 228.58C94.7182 228.856 95.0074 228.994 95.3755 228.994C95.7436 228.994 96.0329 228.856 96.2432 228.58C96.4536 228.298 96.5587 227.9 96.5587 227.387C96.5587 226.874 96.4503 226.48 96.2334 226.204C96.023 225.921 95.7371 225.78 95.3755 225.78C95.014 225.78 94.7248 225.918 94.5079 226.194C94.2975 226.47 94.1923 226.868 94.1923 227.387C94.1923 227.906 94.2975 228.304 94.5079 228.58ZM97.1306 229.418C96.6705 229.905 96.0855 230.148 95.3755 230.148C94.6656 230.148 94.0806 229.905 93.6205 229.418C93.1603 228.932 92.9303 228.255 92.9303 227.387C92.9303 226.533 93.1669 225.859 93.6402 225.366C94.1135 224.873 94.6919 224.626 95.3755 224.626C96.0592 224.626 96.6376 224.873 97.1109 225.366C97.5842 225.859 97.8208 226.533 97.8208 227.387C97.8208 228.255 97.5907 228.932 97.1306 229.418ZM100.142 226.904V227.86C100.142 228.176 100.24 228.445 100.438 228.669C100.641 228.886 100.918 228.994 101.266 228.994C101.641 228.994 101.93 228.86 102.134 228.59C102.344 228.314 102.449 227.913 102.449 227.387C102.449 226.855 102.344 226.454 102.134 226.184C101.93 225.915 101.641 225.78 101.266 225.78C100.918 225.78 100.641 225.888 100.438 226.105C100.24 226.322 100.142 226.588 100.142 226.904ZM98.8601 230V222.802H100.142V225.277H100.162C100.175 225.257 100.191 225.234 100.211 225.208C100.231 225.175 100.28 225.123 100.359 225.05C100.444 224.978 100.533 224.912 100.625 224.853C100.724 224.794 100.849 224.741 101 224.695C101.157 224.649 101.322 224.626 101.493 224.626C102.137 224.626 102.669 224.883 103.09 225.395C103.517 225.902 103.731 226.565 103.731 227.387C103.731 228.229 103.524 228.899 103.11 229.399C102.702 229.898 102.153 230.148 101.463 230.148C101.18 230.148 100.924 230.095 100.694 229.99C100.464 229.878 100.306 229.77 100.221 229.665L100.083 229.497H100.063V230H98.8601ZM106.044 226.904V227.86C106.044 228.176 106.143 228.445 106.34 228.669C106.544 228.886 106.82 228.994 107.168 228.994C107.543 228.994 107.832 228.86 108.036 228.59C108.246 228.314 108.352 227.913 108.352 227.387C108.352 226.855 108.246 226.454 108.036 226.184C107.832 225.915 107.543 225.78 107.168 225.78C106.82 225.78 106.544 225.888 106.34 226.105C106.143 226.322 106.044 226.588 106.044 226.904ZM104.763 230V222.802H106.044V225.277H106.064C106.077 225.257 106.094 225.234 106.113 225.208C106.133 225.175 106.182 225.123 106.261 225.05C106.347 224.978 106.435 224.912 106.527 224.853C106.626 224.794 106.751 224.741 106.902 224.695C107.06 224.649 107.224 224.626 107.395 224.626C108.039 224.626 108.572 224.883 108.992 225.395C109.42 225.902 109.633 226.565 109.633 227.387C109.633 228.229 109.426 228.899 109.012 229.399C108.605 229.898 108.056 230.148 107.366 230.148C107.083 230.148 106.827 230.095 106.597 229.99C106.366 229.878 106.209 229.77 106.123 229.665L105.985 229.497H105.965V230H104.763ZM110.877 232.218L111.922 229.744L109.832 224.774H111.133L112.484 228.314H112.504L113.854 224.774H115.156L112.149 232.218H110.877Z" fill="#7986A3"/>
<path d="M199.247 234L198.852 232.866H196.22L195.825 234H194.504L196.999 227.098H198.133L200.617 234H199.247ZM197.531 229.07L196.594 231.762H198.478L197.551 229.07H197.531ZM203.476 231.693L204.876 231.387C204.961 231.926 205.099 232.317 205.29 232.56C205.487 232.797 205.806 232.915 206.246 232.915C206.621 232.915 206.92 232.85 207.143 232.718C207.367 232.58 207.479 232.38 207.479 232.117C207.479 231.841 207.37 231.63 207.153 231.486C206.943 231.335 206.457 231.141 205.694 230.904C204.978 230.68 204.468 230.411 204.166 230.095C203.87 229.773 203.722 229.379 203.722 228.912C203.722 228.373 203.929 227.913 204.343 227.532C204.764 227.144 205.333 226.95 206.049 226.95C206.7 226.95 207.258 227.108 207.725 227.423C208.198 227.739 208.494 228.209 208.613 228.833L207.321 229.159C207.117 228.508 206.693 228.183 206.049 228.183C205.707 228.183 205.451 228.248 205.28 228.38C205.116 228.511 205.033 228.686 205.033 228.902C205.033 229.106 205.129 229.264 205.319 229.376C205.51 229.481 206 229.668 206.788 229.938C207.551 230.201 208.074 230.487 208.356 230.796C208.639 231.098 208.78 231.509 208.78 232.028C208.78 232.639 208.55 233.145 208.09 233.546C207.63 233.947 207.015 234.148 206.246 234.148C205.464 234.148 204.83 233.944 204.343 233.537C203.863 233.122 203.574 232.508 203.476 231.693ZM213.105 232.196L214.003 232.984C213.47 233.76 212.75 234.148 211.843 234.148C211.114 234.148 210.519 233.898 210.059 233.399C209.598 232.892 209.368 232.222 209.368 231.387C209.368 230.552 209.595 229.885 210.049 229.386C210.509 228.879 211.087 228.626 211.784 228.626C212.481 228.626 213.053 228.879 213.5 229.386C213.953 229.885 214.18 230.552 214.18 231.387V231.772H210.67C210.69 232.173 210.798 232.482 210.995 232.698C211.199 232.909 211.475 233.014 211.824 233.014C212.119 233.014 212.363 232.942 212.553 232.797C212.75 232.646 212.934 232.445 213.105 232.196ZM210.67 230.815H212.938C212.905 230.48 212.79 230.22 212.593 230.036C212.395 229.846 212.126 229.75 211.784 229.75C211.469 229.75 211.209 229.852 211.005 230.056C210.808 230.26 210.696 230.513 210.67 230.815ZM215.971 234L214.817 228.774H216.069L216.76 232.265H216.789L217.953 228.774H219.116L220.191 232.255H220.211L220.999 228.774H222.232L220.98 234H219.718L218.524 230.243H218.505L217.213 234H215.971ZM226.509 232.196L227.406 232.984C226.873 233.76 226.154 234.148 225.247 234.148C224.517 234.148 223.922 233.898 223.462 233.399C223.002 232.892 222.772 232.222 222.772 231.387C222.772 230.552 222.998 229.885 223.452 229.386C223.912 228.879 224.491 228.626 225.187 228.626C225.884 228.626 226.456 228.879 226.903 229.386C227.357 229.885 227.583 230.552 227.583 231.387V231.772H224.073C224.093 232.173 224.201 232.482 224.399 232.698C224.602 232.909 224.878 233.014 225.227 233.014C225.523 233.014 225.766 232.942 225.956 232.797C226.154 232.646 226.338 232.445 226.509 232.196ZM224.073 230.815H226.341C226.308 230.48 226.193 230.22 225.996 230.036C225.799 229.846 225.529 229.75 225.187 229.75C224.872 229.75 224.612 229.852 224.408 230.056C224.211 230.26 224.1 230.513 224.073 230.815ZM228.615 234V228.774H229.828V229.326H229.847C229.946 229.129 230.091 228.971 230.281 228.853C230.478 228.735 230.692 228.676 230.922 228.676C231.086 228.676 231.244 228.709 231.395 228.774L231.198 230.017C231.054 229.964 230.919 229.938 230.794 229.938C230.196 229.938 229.897 230.335 229.897 231.131V234H228.615Z" fill="#7986A3"/>
<path d="M224.383 353L223.989 351.866H221.356L220.962 353H219.64L222.135 346.098H223.269L225.754 353H224.383ZM222.667 348.07L221.731 350.762H223.614L222.687 348.07H222.667ZM229.055 353V346.098H231.856C232.566 346.098 233.137 346.299 233.571 346.7C234.012 347.094 234.232 347.626 234.232 348.297C234.232 348.796 234.1 349.22 233.838 349.569C233.581 349.917 233.226 350.164 232.773 350.308L234.242 353H232.802L231.412 350.436H230.387V353H229.055ZM230.387 349.283H231.747C232.503 349.283 232.881 348.954 232.881 348.297C232.881 347.633 232.503 347.301 231.747 347.301H230.387V349.283ZM238.203 353V352.497H238.183C238.17 352.517 238.154 352.543 238.134 352.576C238.114 352.602 238.065 352.652 237.986 352.724C237.907 352.796 237.818 352.862 237.72 352.921C237.621 352.98 237.486 353.033 237.316 353.079C237.145 353.125 236.961 353.148 236.763 353.148C236.132 353.148 235.659 353 235.344 352.704C235.035 352.402 234.88 352.034 234.88 351.6C234.88 351.146 235.015 350.801 235.284 350.565C235.554 350.328 236.011 350.131 236.655 349.973C237.253 349.828 237.628 349.713 237.779 349.628C237.93 349.542 238.006 349.421 238.006 349.263C238.006 349.105 237.93 348.974 237.779 348.869C237.634 348.764 237.414 348.711 237.118 348.711C236.77 348.711 236.52 348.79 236.369 348.948C236.218 349.099 236.099 349.306 236.014 349.569L234.949 349.125C235.074 348.685 235.317 348.326 235.679 348.05C236.04 347.768 236.514 347.626 237.099 347.626C237.736 347.626 238.259 347.794 238.666 348.129C239.074 348.464 239.278 348.984 239.278 349.687V353H238.203ZM236.911 350.86C236.583 350.939 236.366 351.035 236.261 351.146C236.162 351.252 236.113 351.373 236.113 351.511C236.113 351.866 236.369 352.044 236.882 352.044C237.27 352.044 237.559 351.971 237.749 351.827C237.947 351.675 238.045 351.491 238.045 351.275V350.367H238.025C237.999 350.42 237.97 350.463 237.937 350.496C237.91 350.522 237.812 350.571 237.641 350.643C237.47 350.709 237.227 350.782 236.911 350.86ZM240.56 353V347.774H241.733V348.277H241.753C241.871 348.093 242.042 347.939 242.265 347.814C242.495 347.689 242.745 347.626 243.015 347.626C243.291 347.626 243.55 347.692 243.794 347.824C244.037 347.948 244.221 348.113 244.346 348.317H244.366C244.497 348.113 244.684 347.948 244.928 347.824C245.171 347.692 245.437 347.626 245.726 347.626C246.351 347.626 246.844 347.791 247.205 348.119C247.573 348.448 247.757 348.882 247.757 349.421V353H246.584V349.687C246.584 349.431 246.508 349.22 246.357 349.056C246.213 348.892 245.986 348.81 245.677 348.81C245.388 348.81 245.164 348.885 245.006 349.036C244.855 349.187 244.78 349.381 244.78 349.618V353H243.606V349.687C243.606 349.437 243.527 349.23 243.37 349.066C243.212 348.895 242.988 348.81 242.699 348.81C242.403 348.81 242.18 348.885 242.029 349.036C241.878 349.187 241.802 349.381 241.802 349.618V353H240.56ZM250.373 349.845V350.92C250.373 351.222 250.474 351.478 250.678 351.689C250.882 351.892 251.155 351.994 251.497 351.994C251.871 351.994 252.177 351.856 252.414 351.58C252.657 351.304 252.778 350.906 252.778 350.387C252.778 349.868 252.66 349.47 252.423 349.194C252.187 348.918 251.878 348.78 251.497 348.78C251.155 348.78 250.882 348.885 250.678 349.095C250.474 349.299 250.373 349.549 250.373 349.845ZM249.091 355.218V347.774H250.313V348.277H250.333C250.346 348.257 250.363 348.234 250.382 348.208C250.402 348.175 250.451 348.123 250.53 348.05C250.616 347.978 250.708 347.912 250.806 347.853C250.905 347.794 251.036 347.741 251.201 347.695C251.372 347.649 251.552 347.626 251.743 347.626C252.361 347.626 252.9 347.876 253.36 348.376C253.827 348.869 254.06 349.539 254.06 350.387C254.06 351.242 253.837 351.915 253.39 352.408C252.943 352.901 252.4 353.148 251.763 353.148C251.572 353.148 251.395 353.125 251.23 353.079C251.073 353.033 250.944 352.98 250.846 352.921C250.747 352.855 250.662 352.793 250.589 352.734C250.517 352.668 250.465 352.612 250.432 352.566L250.392 352.497H250.373V355.218H249.091Z" fill="#7986A3"/>
<path d="M68.8366 558V551.098H73.2046V552.331H70.1677V553.879H72.9285V555.062H70.1677V556.768H73.2046V558H68.8366ZM74.4383 558V550.802H75.7694V558H74.4383ZM78.4354 554.904V555.86C78.4354 556.176 78.534 556.445 78.7312 556.669C78.935 556.886 79.2111 556.994 79.5594 556.994C79.9341 556.994 80.2233 556.86 80.4271 556.59C80.6375 556.314 80.7426 555.913 80.7426 555.387C80.7426 554.855 80.6375 554.454 80.4271 554.184C80.2233 553.915 79.9341 553.78 79.5594 553.78C79.2111 553.78 78.935 553.888 78.7312 554.105C78.534 554.322 78.4354 554.588 78.4354 554.904ZM77.1536 558V550.802H78.4354V553.277H78.4551C78.4683 553.257 78.4847 553.234 78.5044 553.208C78.5241 553.175 78.5734 553.123 78.6523 553.05C78.7378 552.978 78.8265 552.912 78.9185 552.853C79.0171 552.794 79.142 552.741 79.2932 552.695C79.451 552.649 79.6153 552.626 79.7862 552.626C80.4304 552.626 80.9628 552.883 81.3835 553.395C81.8108 553.902 82.0244 554.565 82.0244 555.387C82.0244 556.229 81.8174 556.899 81.4032 557.399C80.9957 557.898 80.4468 558.148 79.7566 558.148C79.474 558.148 79.2176 558.095 78.9876 557.99C78.7575 557.878 78.5997 557.77 78.5143 557.665L78.3762 557.497H78.3565V558H77.1536ZM84.2886 556.58C84.4989 556.856 84.7882 556.994 85.1563 556.994C85.5244 556.994 85.8136 556.856 86.0239 556.58C86.2343 556.298 86.3394 555.9 86.3394 555.387C86.3394 554.874 86.231 554.48 86.0141 554.204C85.8037 553.921 85.5178 553.78 85.1563 553.78C84.7947 553.78 84.5055 553.918 84.2886 554.194C84.0782 554.47 83.9731 554.868 83.9731 555.387C83.9731 555.906 84.0782 556.304 84.2886 556.58ZM86.9113 557.418C86.4512 557.905 85.8662 558.148 85.1563 558.148C84.4463 558.148 83.8613 557.905 83.4012 557.418C82.9411 556.932 82.711 556.255 82.711 555.387C82.711 554.533 82.9476 553.859 83.4209 553.366C83.8942 552.873 84.4726 552.626 85.1563 552.626C85.8399 552.626 86.4183 552.873 86.8916 553.366C87.3649 553.859 87.6015 554.533 87.6015 555.387C87.6015 556.255 87.3714 556.932 86.9113 557.418ZM89.4 558L88.2464 552.774H89.4986L90.1888 556.265H90.2184L91.3819 552.774H92.5453L93.6201 556.255H93.6398L94.4286 552.774H95.6611L94.4089 558H93.1468L91.9537 554.243H91.934L90.6424 558H89.4Z" fill="#7986A3"/>
<path d="M117.968 602.693L119.369 602.387C119.454 602.926 119.592 603.317 119.783 603.56C119.98 603.797 120.299 603.915 120.739 603.915C121.114 603.915 121.413 603.85 121.636 603.718C121.86 603.58 121.972 603.38 121.972 603.117C121.972 602.841 121.863 602.63 121.646 602.486C121.436 602.335 120.949 602.141 120.187 601.904C119.47 601.68 118.961 601.411 118.659 601.095C118.363 600.773 118.215 600.379 118.215 599.912C118.215 599.373 118.422 598.913 118.836 598.532C119.257 598.144 119.825 597.95 120.542 597.95C121.193 597.95 121.751 598.108 122.218 598.423C122.691 598.739 122.987 599.209 123.106 599.833L121.814 600.159C121.61 599.508 121.186 599.183 120.542 599.183C120.2 599.183 119.944 599.248 119.773 599.38C119.609 599.511 119.526 599.686 119.526 599.902C119.526 600.106 119.622 600.264 119.812 600.376C120.003 600.481 120.493 600.668 121.281 600.938C122.044 601.201 122.566 601.487 122.849 601.796C123.132 602.098 123.273 602.509 123.273 603.028C123.273 603.639 123.043 604.145 122.583 604.546C122.123 604.947 121.508 605.148 120.739 605.148C119.957 605.148 119.323 604.944 118.836 604.537C118.356 604.122 118.067 603.508 117.968 602.693ZM127.342 602.89L128.555 603.205C128.436 603.83 128.18 604.31 127.786 604.645C127.391 604.98 126.895 605.148 126.297 605.148C125.587 605.148 125.002 604.905 124.542 604.418C124.088 603.932 123.861 603.255 123.861 602.387C123.861 601.526 124.095 600.852 124.561 600.366C125.035 599.873 125.616 599.626 126.307 599.626C126.892 599.626 127.381 599.797 127.776 600.139C128.17 600.481 128.413 600.938 128.505 601.51L127.312 601.736C127.187 601.099 126.852 600.78 126.307 600.78C125.945 600.78 125.656 600.918 125.439 601.194C125.229 601.464 125.123 601.861 125.123 602.387C125.123 602.913 125.229 603.314 125.439 603.59C125.649 603.86 125.938 603.994 126.307 603.994C126.885 603.994 127.23 603.626 127.342 602.89ZM129.541 605V599.774H130.754V600.326H130.773C130.872 600.129 131.016 599.971 131.207 599.853C131.404 599.735 131.618 599.676 131.848 599.676C132.012 599.676 132.17 599.709 132.321 599.774L132.124 601.017C131.979 600.964 131.845 600.938 131.72 600.938C131.122 600.938 130.823 601.335 130.823 602.131V605H129.541ZM136.553 603.196L137.45 603.984C136.918 604.76 136.198 605.148 135.291 605.148C134.561 605.148 133.966 604.898 133.506 604.399C133.046 603.892 132.816 603.222 132.816 602.387C132.816 601.552 133.043 600.885 133.496 600.386C133.957 599.879 134.535 599.626 135.232 599.626C135.929 599.626 136.5 599.879 136.947 600.386C137.401 600.885 137.628 601.552 137.628 602.387V602.772H134.118C134.137 603.173 134.246 603.482 134.443 603.698C134.647 603.909 134.923 604.014 135.271 604.014C135.567 604.014 135.81 603.942 136.001 603.797C136.198 603.646 136.382 603.445 136.553 603.196ZM134.118 601.815H136.385C136.353 601.48 136.238 601.22 136.04 601.036C135.843 600.846 135.574 600.75 135.232 600.75C134.916 600.75 134.657 600.852 134.453 601.056C134.256 601.26 134.144 601.513 134.118 601.815ZM142.051 603.196L142.948 603.984C142.416 604.76 141.696 605.148 140.789 605.148C140.059 605.148 139.465 604.898 139.004 604.399C138.544 603.892 138.314 603.222 138.314 602.387C138.314 601.552 138.541 600.885 138.995 600.386C139.455 599.879 140.033 599.626 140.73 599.626C141.427 599.626 141.999 599.879 142.445 600.386C142.899 600.885 143.126 601.552 143.126 602.387V602.772H139.616C139.635 603.173 139.744 603.482 139.941 603.698C140.145 603.909 140.421 604.014 140.769 604.014C141.065 604.014 141.308 603.942 141.499 603.797C141.696 603.646 141.88 603.445 142.051 603.196ZM139.616 601.815H141.883C141.851 601.48 141.736 601.22 141.538 601.036C141.341 600.846 141.072 600.75 140.73 600.75C140.414 600.75 140.155 600.852 139.951 601.056C139.754 601.26 139.642 601.513 139.616 601.815ZM144.157 605V599.774H145.39V600.277H145.41C145.554 600.093 145.751 599.939 146.001 599.814C146.251 599.689 146.514 599.626 146.79 599.626C147.368 599.626 147.822 599.801 148.151 600.149C148.479 600.491 148.644 600.967 148.644 601.579V605H147.362V601.894C147.362 601.533 147.293 601.263 147.155 601.086C147.017 600.902 146.78 600.81 146.445 600.81C146.129 600.81 145.883 600.902 145.705 601.086C145.528 601.263 145.439 601.503 145.439 601.805V605H144.157ZM149.579 603.275L150.732 602.979C150.824 603.708 151.216 604.073 151.906 604.073C152.221 604.073 152.471 604.024 152.655 603.925C152.846 603.82 152.941 603.675 152.941 603.491C152.941 603.34 152.869 603.229 152.724 603.156C152.579 603.077 152.277 602.972 151.817 602.841C151.692 602.808 151.597 602.782 151.531 602.762C150.926 602.591 150.483 602.39 150.2 602.16C149.917 601.924 149.776 601.611 149.776 601.224C149.776 600.79 149.95 600.415 150.299 600.1C150.653 599.784 151.137 599.626 151.748 599.626C152.918 599.626 153.651 600.139 153.947 601.164L152.882 601.49C152.79 601.24 152.658 601.043 152.487 600.898C152.323 600.754 152.08 600.681 151.758 600.681C151.508 600.681 151.308 600.731 151.156 600.829C151.012 600.921 150.939 601.033 150.939 601.164C150.939 601.309 151.025 601.424 151.196 601.51C151.373 601.588 151.81 601.727 152.507 601.924C153.118 602.088 153.533 602.298 153.75 602.555C153.973 602.805 154.085 603.127 154.085 603.521C154.085 603.942 153.901 604.32 153.533 604.655C153.171 604.984 152.645 605.148 151.955 605.148C151.232 605.148 150.673 604.967 150.279 604.606C149.891 604.237 149.658 603.794 149.579 603.275Z" fill="#7986A3"/>
<path d="M466.495 425V418.098H469.423C470.034 418.098 470.524 418.279 470.892 418.64C471.267 418.995 471.454 419.432 471.454 419.952C471.454 420.53 471.204 420.967 470.705 421.263V421.273C471.001 421.398 471.241 421.598 471.425 421.874C471.615 422.144 471.711 422.469 471.711 422.851C471.711 423.508 471.51 424.034 471.109 424.428C470.708 424.809 470.048 425 469.127 425H466.495ZM467.826 423.768H469.433C470.064 423.768 470.379 423.462 470.379 422.851C470.379 422.568 470.294 422.351 470.123 422.2C469.959 422.042 469.732 421.963 469.443 421.963H467.826V423.768ZM467.826 420.879H469.255C469.525 420.879 469.735 420.816 469.886 420.691C470.044 420.56 470.123 420.369 470.123 420.119C470.123 419.856 470.048 419.659 469.896 419.528C469.745 419.396 469.532 419.331 469.255 419.331H467.826V420.879ZM475.363 425V418.098H476.694V420.879H479.06V418.098H480.391V425H479.06V422.012H476.694V425H475.363ZM485.261 423.196L486.159 423.984C485.626 424.76 484.906 425.148 483.999 425.148C483.27 425.148 482.675 424.898 482.215 424.399C481.755 423.892 481.524 423.222 481.524 422.387C481.524 421.552 481.751 420.885 482.205 420.386C482.665 419.879 483.243 419.626 483.94 419.626C484.637 419.626 485.209 419.879 485.656 420.386C486.109 420.885 486.336 421.552 486.336 422.387V422.772H482.826C482.846 423.173 482.954 423.482 483.151 423.698C483.355 423.909 483.631 424.014 483.98 424.014C484.275 424.014 484.519 423.942 484.709 423.797C484.906 423.646 485.09 423.445 485.261 423.196ZM482.826 421.815H485.094C485.061 421.48 484.946 421.22 484.749 421.036C484.551 420.846 484.282 420.75 483.94 420.75C483.625 420.75 483.365 420.852 483.161 421.056C482.964 421.26 482.852 421.513 482.826 421.815ZM490.345 425V424.497H490.326C490.312 424.517 490.296 424.543 490.276 424.576C490.257 424.602 490.207 424.652 490.128 424.724C490.05 424.796 489.961 424.862 489.862 424.921C489.764 424.98 489.629 425.033 489.458 425.079C489.287 425.125 489.103 425.148 488.906 425.148C488.275 425.148 487.801 425 487.486 424.704C487.177 424.402 487.023 424.034 487.023 423.6C487.023 423.146 487.157 422.801 487.427 422.565C487.696 422.328 488.153 422.131 488.797 421.973C489.395 421.828 489.77 421.713 489.921 421.628C490.073 421.542 490.148 421.421 490.148 421.263C490.148 421.105 490.073 420.974 489.921 420.869C489.777 420.764 489.557 420.711 489.261 420.711C488.912 420.711 488.663 420.79 488.511 420.948C488.36 421.099 488.242 421.306 488.156 421.569L487.092 421.125C487.216 420.685 487.46 420.326 487.821 420.05C488.183 419.768 488.656 419.626 489.241 419.626C489.879 419.626 490.401 419.794 490.809 420.129C491.216 420.464 491.42 420.984 491.42 421.687V425H490.345ZM489.054 422.86C488.725 422.939 488.508 423.035 488.403 423.146C488.304 423.252 488.255 423.373 488.255 423.511C488.255 423.866 488.511 424.044 489.024 424.044C489.412 424.044 489.701 423.971 489.892 423.827C490.089 423.675 490.188 423.491 490.188 423.275V422.367H490.168C490.142 422.42 490.112 422.463 490.079 422.496C490.053 422.522 489.954 422.571 489.783 422.643C489.612 422.709 489.369 422.782 489.054 422.86ZM493.902 425L491.812 419.774H493.143L494.445 423.136H494.464L495.766 419.774H497.077L494.987 425H493.902ZM501.062 423.196L501.96 423.984C501.427 424.76 500.707 425.148 499.8 425.148C499.071 425.148 498.476 424.898 498.016 424.399C497.555 423.892 497.325 423.222 497.325 422.387C497.325 421.552 497.552 420.885 498.006 420.386C498.466 419.879 499.044 419.626 499.741 419.626C500.438 419.626 501.01 419.879 501.457 420.386C501.91 420.885 502.137 421.552 502.137 422.387V422.772H498.627C498.647 423.173 498.755 423.482 498.952 423.698C499.156 423.909 499.432 424.014 499.78 424.014C500.076 424.014 500.32 423.942 500.51 423.797C500.707 423.646 500.891 423.445 501.062 423.196ZM498.627 421.815H500.895C500.862 421.48 500.747 421.22 500.55 421.036C500.352 420.846 500.083 420.75 499.741 420.75C499.426 420.75 499.166 420.852 498.962 421.056C498.765 421.26 498.653 421.513 498.627 421.815ZM503.169 425V419.774H504.401V420.277H504.421C504.565 420.093 504.763 419.939 505.012 419.814C505.262 419.689 505.525 419.626 505.801 419.626C506.38 419.626 506.833 419.801 507.162 420.149C507.49 420.491 507.655 420.967 507.655 421.579V425H506.373V421.894C506.373 421.533 506.304 421.263 506.166 421.086C506.028 420.902 505.791 420.81 505.456 420.81C505.141 420.81 504.894 420.902 504.717 421.086C504.539 421.263 504.45 421.503 504.45 421.805V425H503.169Z" fill="#7986A3"/>
<path d="M518.779 468V461.098H521.707C522.318 461.098 522.808 461.279 523.176 461.64C523.551 461.995 523.738 462.432 523.738 462.952C523.738 463.53 523.488 463.967 522.989 464.263V464.273C523.285 464.398 523.525 464.598 523.709 464.874C523.899 465.144 523.995 465.469 523.995 465.851C523.995 466.508 523.794 467.034 523.393 467.428C522.992 467.809 522.332 468 521.411 468H518.779ZM520.11 466.768H521.717C522.348 466.768 522.664 466.462 522.664 465.851C522.664 465.568 522.578 465.351 522.407 465.2C522.243 465.042 522.016 464.963 521.727 464.963H520.11V466.768ZM520.11 463.879H521.539C521.809 463.879 522.019 463.816 522.171 463.691C522.328 463.56 522.407 463.369 522.407 463.119C522.407 462.856 522.332 462.659 522.18 462.528C522.029 462.396 521.816 462.331 521.539 462.331H520.11V463.879ZM527.647 468V461.098H530.447C531.157 461.098 531.729 461.299 532.163 461.7C532.603 462.094 532.823 462.626 532.823 463.297C532.823 463.796 532.692 464.22 532.429 464.569C532.173 464.917 531.818 465.164 531.364 465.308L532.833 468H531.394L530.003 465.436H528.978V468H527.647ZM528.978 464.283H530.339C531.095 464.283 531.472 463.954 531.472 463.297C531.472 462.633 531.095 462.301 530.339 462.301H528.978V464.283ZM536.794 468V467.497H536.775C536.761 467.517 536.745 467.543 536.725 467.576C536.706 467.602 536.656 467.652 536.577 467.724C536.499 467.796 536.41 467.862 536.311 467.921C536.213 467.98 536.078 468.033 535.907 468.079C535.736 468.125 535.552 468.148 535.355 468.148C534.724 468.148 534.25 468 533.935 467.704C533.626 467.402 533.472 467.034 533.472 466.6C533.472 466.146 533.606 465.801 533.876 465.565C534.145 465.328 534.602 465.131 535.246 464.973C535.844 464.828 536.219 464.713 536.37 464.628C536.522 464.542 536.597 464.421 536.597 464.263C536.597 464.105 536.522 463.974 536.37 463.869C536.226 463.764 536.006 463.711 535.71 463.711C535.361 463.711 535.112 463.79 534.96 463.948C534.809 464.099 534.691 464.306 534.605 464.569L533.541 464.125C533.665 463.685 533.909 463.326 534.27 463.05C534.632 462.768 535.105 462.626 535.69 462.626C536.328 462.626 536.85 462.794 537.258 463.129C537.665 463.464 537.869 463.984 537.869 464.687V468H536.794ZM535.503 465.86C535.174 465.939 534.957 466.035 534.852 466.146C534.753 466.252 534.704 466.373 534.704 466.511C534.704 466.866 534.96 467.044 535.473 467.044C535.861 467.044 536.15 466.971 536.341 466.827C536.538 466.675 536.637 466.491 536.637 466.275V465.367H536.617C536.591 465.42 536.561 465.463 536.528 465.496C536.502 465.522 536.403 465.571 536.232 465.643C536.061 465.709 535.818 465.782 535.503 465.86ZM539.417 468V463.859H538.609V462.774H539.447V462.035C539.447 461.588 539.562 461.272 539.792 461.088C540.029 460.898 540.37 460.802 540.817 460.802H541.843V461.936H541.084C540.926 461.936 540.814 461.969 540.748 462.035C540.689 462.094 540.66 462.199 540.66 462.35V462.774H541.981V463.859H540.699V468H539.417ZM542.941 466.136V463.859H542.133V462.774H542.971V461.492H544.184V462.774H545.505V463.859H544.203V466.018C544.203 466.294 544.249 466.488 544.341 466.6C544.433 466.712 544.621 466.768 544.903 466.768H545.327V468H544.785C544.082 468 543.599 467.852 543.336 467.556C543.073 467.261 542.941 466.787 542.941 466.136ZM549.88 466.196L550.777 466.984C550.245 467.76 549.525 468.148 548.618 468.148C547.888 468.148 547.293 467.898 546.833 467.399C546.373 466.892 546.143 466.222 546.143 465.387C546.143 464.552 546.37 463.885 546.823 463.386C547.284 462.879 547.862 462.626 548.559 462.626C549.255 462.626 549.827 462.879 550.274 463.386C550.728 463.885 550.955 464.552 550.955 465.387V465.772H547.445C547.464 466.173 547.573 466.482 547.77 466.698C547.974 466.909 548.25 467.014 548.598 467.014C548.894 467.014 549.137 466.942 549.328 466.797C549.525 466.646 549.709 466.445 549.88 466.196ZM547.445 464.815H549.712C549.679 464.48 549.564 464.22 549.367 464.036C549.17 463.846 548.901 463.75 548.559 463.75C548.243 463.75 547.984 463.852 547.78 464.056C547.583 464.26 547.471 464.513 547.445 464.815ZM551.986 468V462.774H553.199V463.326H553.219C553.317 463.129 553.462 462.971 553.653 462.853C553.85 462.735 554.063 462.676 554.293 462.676C554.458 462.676 554.616 462.709 554.767 462.774L554.57 464.017C554.425 463.964 554.29 463.938 554.165 463.938C553.567 463.938 553.268 464.335 553.268 465.131V468H551.986ZM555.212 466.275L556.366 465.979C556.458 466.708 556.849 467.073 557.539 467.073C557.855 467.073 558.104 467.024 558.289 466.925C558.479 466.82 558.574 466.675 558.574 466.491C558.574 466.34 558.502 466.229 558.358 466.156C558.213 466.077 557.911 465.972 557.45 465.841C557.326 465.808 557.23 465.782 557.165 465.762C556.56 465.591 556.116 465.39 555.833 465.16C555.551 464.924 555.409 464.611 555.409 464.224C555.409 463.79 555.584 463.415 555.932 463.1C556.287 462.784 556.77 462.626 557.381 462.626C558.551 462.626 559.284 463.139 559.58 464.164L558.515 464.49C558.423 464.24 558.292 464.043 558.121 463.898C557.957 463.754 557.713 463.681 557.391 463.681C557.142 463.681 556.941 463.731 556.79 463.829C556.645 463.921 556.573 464.033 556.573 464.164C556.573 464.309 556.658 464.424 556.829 464.51C557.007 464.588 557.444 464.727 558.141 464.924C558.752 465.088 559.166 465.298 559.383 465.555C559.606 465.805 559.718 466.127 559.718 466.521C559.718 466.942 559.534 467.32 559.166 467.655C558.805 467.984 558.279 468.148 557.588 468.148C556.865 468.148 556.307 467.967 555.912 467.606C555.524 467.237 555.291 466.794 555.212 466.275Z" fill="#7986A3"/>
<path d="M663.983 510V503.098H666.911C667.523 503.098 668.012 503.279 668.381 503.64C668.755 503.995 668.943 504.432 668.943 504.952C668.943 505.53 668.693 505.967 668.193 506.263V506.273C668.489 506.398 668.729 506.598 668.913 506.874C669.104 507.144 669.199 507.469 669.199 507.851C669.199 508.508 668.998 509.034 668.598 509.428C668.197 509.809 667.536 510 666.616 510H663.983ZM665.314 508.768H666.921C667.552 508.768 667.868 508.462 667.868 507.851C667.868 507.568 667.782 507.351 667.612 507.2C667.447 507.042 667.22 506.963 666.931 506.963H665.314V508.768ZM665.314 505.879H666.744C667.013 505.879 667.224 505.816 667.375 505.691C667.533 505.56 667.612 505.369 667.612 505.119C667.612 504.856 667.536 504.659 667.385 504.528C667.234 504.396 667.02 504.331 666.744 504.331H665.314V505.879ZM673.265 510V509.497H673.246C673.232 509.517 673.216 509.543 673.196 509.576C673.177 509.602 673.127 509.652 673.048 509.724C672.97 509.796 672.881 509.862 672.782 509.921C672.684 509.98 672.549 510.033 672.378 510.079C672.207 510.125 672.023 510.148 671.826 510.148C671.195 510.148 670.721 510 670.406 509.704C670.097 509.402 669.943 509.034 669.943 508.6C669.943 508.146 670.077 507.801 670.347 507.565C670.616 507.328 671.073 507.131 671.717 506.973C672.316 506.828 672.69 506.713 672.841 506.628C672.993 506.542 673.068 506.421 673.068 506.263C673.068 506.105 672.993 505.974 672.841 505.869C672.697 505.764 672.477 505.711 672.181 505.711C671.832 505.711 671.583 505.79 671.431 505.948C671.28 506.099 671.162 506.306 671.076 506.569L670.012 506.125C670.136 505.685 670.38 505.326 670.741 505.05C671.103 504.768 671.576 504.626 672.161 504.626C672.799 504.626 673.321 504.794 673.729 505.129C674.136 505.464 674.34 505.984 674.34 506.687V510H673.265ZM671.974 507.86C671.645 507.939 671.428 508.035 671.323 508.146C671.224 508.252 671.175 508.373 671.175 508.511C671.175 508.866 671.431 509.044 671.944 509.044C672.332 509.044 672.621 508.971 672.812 508.827C673.009 508.675 673.108 508.491 673.108 508.275V507.367H673.088C673.062 507.42 673.032 507.463 672.999 507.496C672.973 507.522 672.874 507.571 672.703 507.643C672.532 507.709 672.289 507.782 671.974 507.86ZM678.757 507.89L679.97 508.205C679.852 508.83 679.596 509.31 679.201 509.645C678.807 509.98 678.31 510.148 677.712 510.148C677.002 510.148 676.417 509.905 675.957 509.418C675.504 508.932 675.277 508.255 675.277 507.387C675.277 506.526 675.51 505.852 675.977 505.366C676.45 504.873 677.032 504.626 677.722 504.626C678.307 504.626 678.797 504.797 679.191 505.139C679.586 505.481 679.829 505.938 679.921 506.51L678.728 506.736C678.603 506.099 678.268 505.78 677.722 505.78C677.361 505.78 677.071 505.918 676.855 506.194C676.644 506.464 676.539 506.861 676.539 507.387C676.539 507.913 676.644 508.314 676.855 508.59C677.065 508.86 677.354 508.994 677.722 508.994C678.301 508.994 678.646 508.626 678.757 507.89ZM680.956 510V502.802H682.238V506.934H682.258L684.161 504.774H685.768L683.885 506.894L685.936 510H684.516L682.919 507.614H682.899L682.238 508.363V510H680.956ZM689.191 510V503.098H692.12C692.731 503.098 693.221 503.279 693.589 503.64C693.964 503.995 694.151 504.432 694.151 504.952C694.151 505.53 693.901 505.967 693.402 506.263V506.273C693.697 506.398 693.937 506.598 694.121 506.874C694.312 507.144 694.407 507.469 694.407 507.851C694.407 508.508 694.207 509.034 693.806 509.428C693.405 509.809 692.744 510 691.824 510H689.191ZM690.522 508.768H692.13C692.761 508.768 693.076 508.462 693.076 507.851C693.076 507.568 692.991 507.351 692.82 507.2C692.655 507.042 692.429 506.963 692.139 506.963H690.522V508.768ZM690.522 505.879H691.952C692.222 505.879 692.432 505.816 692.583 505.691C692.741 505.56 692.82 505.369 692.82 505.119C692.82 504.856 692.744 504.659 692.593 504.528C692.442 504.396 692.228 504.331 691.952 504.331H690.522V505.879Z" fill="#7986A3"/>
<path d="M601.277 316V309.098H604.205C604.816 309.098 605.306 309.279 605.674 309.64C606.049 309.995 606.236 310.432 606.236 310.952C606.236 311.53 605.987 311.967 605.487 312.263V312.273C605.783 312.398 606.023 312.598 606.207 312.874C606.397 313.144 606.493 313.469 606.493 313.851C606.493 314.508 606.292 315.034 605.891 315.428C605.49 315.809 604.83 316 603.909 316H601.277ZM602.608 314.768H604.215C604.846 314.768 605.162 314.462 605.162 313.851C605.162 313.568 605.076 313.351 604.905 313.2C604.741 313.042 604.514 312.963 604.225 312.963H602.608V314.768ZM602.608 311.879H604.038C604.307 311.879 604.517 311.816 604.669 311.691C604.826 311.56 604.905 311.369 604.905 311.119C604.905 310.856 604.83 310.659 604.678 310.528C604.527 310.396 604.314 310.331 604.038 310.331H602.608V311.879ZM610.145 316V309.098H611.515L613.517 313.574H613.537L615.538 309.098H616.919V316H615.617V311.76H615.597L613.635 316H613.418L611.456 311.76H611.437V316H610.145ZM621.372 316V315.497H621.352C621.339 315.517 621.323 315.543 621.303 315.576C621.283 315.602 621.234 315.652 621.155 315.724C621.076 315.796 620.988 315.862 620.889 315.921C620.79 315.98 620.656 316.033 620.485 316.079C620.314 316.125 620.13 316.148 619.933 316.148C619.302 316.148 618.828 316 618.513 315.704C618.204 315.402 618.049 315.034 618.049 314.6C618.049 314.146 618.184 313.801 618.454 313.565C618.723 313.328 619.18 313.131 619.824 312.973C620.422 312.828 620.797 312.713 620.948 312.628C621.099 312.542 621.175 312.421 621.175 312.263C621.175 312.105 621.099 311.974 620.948 311.869C620.804 311.764 620.583 311.711 620.288 311.711C619.939 311.711 619.689 311.79 619.538 311.948C619.387 312.099 619.269 312.306 619.183 312.569L618.118 312.125C618.243 311.685 618.487 311.326 618.848 311.05C619.21 310.768 619.683 310.626 620.268 310.626C620.905 310.626 621.428 310.794 621.836 311.129C622.243 311.464 622.447 311.984 622.447 312.687V316H621.372ZM620.081 313.86C619.752 313.939 619.535 314.035 619.43 314.146C619.331 314.252 619.282 314.373 619.282 314.511C619.282 314.866 619.538 315.044 620.051 315.044C620.439 315.044 620.728 314.971 620.919 314.827C621.116 314.675 621.214 314.491 621.214 314.275V313.367H621.195C621.168 313.42 621.139 313.463 621.106 313.496C621.08 313.522 620.981 313.571 620.81 313.643C620.639 313.709 620.396 313.782 620.081 313.86ZM623.729 316V310.774H625.011V316H623.729ZM623.729 310.015V308.802H625.011V310.015H623.729ZM626.386 316V310.774H627.619V311.277H627.639C627.783 311.093 627.98 310.939 628.23 310.814C628.48 310.689 628.743 310.626 629.019 310.626C629.597 310.626 630.051 310.801 630.38 311.149C630.708 311.491 630.873 311.967 630.873 312.579V316H629.591V312.894C629.591 312.533 629.522 312.263 629.384 312.086C629.246 311.902 629.009 311.81 628.674 311.81C628.358 311.81 628.112 311.902 627.934 312.086C627.757 312.263 627.668 312.503 627.668 312.805V316H626.386Z" fill="#7986A3"/>
<path d="M553.171 566V559.098H556.099C556.711 559.098 557.2 559.279 557.568 559.64C557.943 559.995 558.13 560.432 558.13 560.952C558.13 561.53 557.881 561.967 557.381 562.263V562.273C557.677 562.398 557.917 562.598 558.101 562.874C558.291 563.144 558.387 563.469 558.387 563.851C558.387 564.508 558.186 565.034 557.785 565.428C557.384 565.809 556.724 566 555.803 566H553.171ZM554.502 564.768H556.109C556.74 564.768 557.056 564.462 557.056 563.851C557.056 563.568 556.97 563.351 556.799 563.2C556.635 563.042 556.408 562.963 556.119 562.963H554.502V564.768ZM554.502 561.879H555.932C556.201 561.879 556.411 561.816 556.563 561.691C556.72 561.56 556.799 561.369 556.799 561.119C556.799 560.856 556.724 560.659 556.573 560.528C556.421 560.396 556.208 560.331 555.932 560.331H554.502V561.879ZM566.042 566L565.648 564.866H563.015L562.621 566H561.299L563.794 559.098H564.928L567.413 566H566.042ZM564.326 561.07L563.39 563.762H565.273L564.346 561.07H564.326ZM568.151 566V558.802H569.482V566H568.151ZM570.866 566V558.802H572.197V566H570.866ZM576.973 564.196L577.871 564.984C577.338 565.76 576.618 566.148 575.711 566.148C574.982 566.148 574.387 565.898 573.927 565.399C573.467 564.892 573.237 564.222 573.237 563.387C573.237 562.552 573.463 561.885 573.917 561.386C574.377 560.879 574.955 560.626 575.652 560.626C576.349 560.626 576.921 560.879 577.368 561.386C577.821 561.885 578.048 562.552 578.048 563.387V563.772H574.538C574.558 564.173 574.666 564.482 574.863 564.698C575.067 564.909 575.343 565.014 575.692 565.014C575.987 565.014 576.231 564.942 576.421 564.797C576.618 564.646 576.803 564.445 576.973 564.196ZM574.538 562.815H576.806C576.773 562.48 576.658 562.22 576.461 562.036C576.264 561.846 575.994 561.75 575.652 561.75C575.337 561.75 575.077 561.852 574.873 562.056C574.676 562.26 574.564 562.513 574.538 562.815ZM579.291 568.218L580.337 565.744L578.246 560.774H579.548L580.899 564.314H580.918L582.269 560.774H583.571L580.563 568.218H579.291Z" fill="#7986A3"/>
<path d="M415.197 493V486.098H418.125C418.737 486.098 419.226 486.279 419.594 486.64C419.969 486.995 420.156 487.432 420.156 487.952C420.156 488.53 419.907 488.967 419.407 489.263V489.273C419.703 489.398 419.943 489.598 420.127 489.874C420.318 490.144 420.413 490.469 420.413 490.851C420.413 491.508 420.212 492.034 419.811 492.428C419.41 492.809 418.75 493 417.83 493H415.197ZM416.528 491.768H418.135C418.766 491.768 419.082 491.462 419.082 490.851C419.082 490.568 418.996 490.351 418.825 490.2C418.661 490.042 418.434 489.963 418.145 489.963H416.528V491.768ZM416.528 488.879H417.958C418.227 488.879 418.438 488.816 418.589 488.691C418.746 488.56 418.825 488.369 418.825 488.119C418.825 487.856 418.75 487.659 418.599 487.528C418.447 487.396 418.234 487.331 417.958 487.331H416.528V488.879ZM423.621 490.693L425.021 490.387C425.107 490.926 425.245 491.317 425.436 491.56C425.633 491.797 425.952 491.915 426.392 491.915C426.767 491.915 427.066 491.85 427.289 491.718C427.513 491.58 427.625 491.38 427.625 491.117C427.625 490.841 427.516 490.63 427.299 490.486C427.089 490.335 426.602 490.141 425.84 489.904C425.123 489.68 424.614 489.411 424.312 489.095C424.016 488.773 423.868 488.379 423.868 487.912C423.868 487.373 424.075 486.913 424.489 486.532C424.91 486.144 425.478 485.95 426.195 485.95C426.846 485.95 427.404 486.108 427.871 486.423C428.344 486.739 428.64 487.209 428.758 487.833L427.467 488.159C427.263 487.508 426.839 487.183 426.195 487.183C425.853 487.183 425.597 487.248 425.426 487.38C425.261 487.511 425.179 487.686 425.179 487.902C425.179 488.106 425.275 488.264 425.465 488.376C425.656 488.481 426.146 488.668 426.934 488.938C427.697 489.201 428.219 489.487 428.502 489.796C428.785 490.098 428.926 490.509 428.926 491.028C428.926 491.639 428.696 492.145 428.236 492.546C427.776 492.947 427.161 493.148 426.392 493.148C425.61 493.148 424.975 492.944 424.489 492.537C424.009 492.122 423.72 491.508 423.621 490.693ZM430.126 491.136V488.859H429.317V487.774H430.155V486.492H431.368V487.774H432.689V488.859H431.388V491.018C431.388 491.294 431.434 491.488 431.526 491.6C431.618 491.712 431.805 491.768 432.088 491.768H432.512V493H431.969C431.266 493 430.783 492.852 430.52 492.556C430.257 492.261 430.126 491.787 430.126 491.136ZM436.554 493V492.497H436.534C436.521 492.517 436.504 492.543 436.485 492.576C436.465 492.602 436.416 492.652 436.337 492.724C436.258 492.796 436.169 492.862 436.071 492.921C435.972 492.98 435.837 493.033 435.666 493.079C435.495 493.125 435.311 493.148 435.114 493.148C434.483 493.148 434.01 493 433.694 492.704C433.385 492.402 433.231 492.034 433.231 491.6C433.231 491.146 433.366 490.801 433.635 490.565C433.905 490.328 434.362 490.131 435.006 489.973C435.604 489.828 435.979 489.713 436.13 489.628C436.281 489.542 436.357 489.421 436.357 489.263C436.357 489.105 436.281 488.974 436.13 488.869C435.985 488.764 435.765 488.711 435.469 488.711C435.121 488.711 434.871 488.79 434.72 488.948C434.569 489.099 434.45 489.306 434.365 489.569L433.3 489.125C433.425 488.685 433.668 488.326 434.03 488.05C434.391 487.768 434.864 487.626 435.449 487.626C436.087 487.626 436.61 487.794 437.017 488.129C437.425 488.464 437.628 488.984 437.628 489.687V493H436.554ZM435.262 490.86C434.933 490.939 434.717 491.035 434.611 491.146C434.513 491.252 434.463 491.373 434.463 491.511C434.463 491.866 434.72 492.044 435.233 492.044C435.62 492.044 435.91 491.971 436.1 491.827C436.297 491.675 436.396 491.491 436.396 491.275V490.367H436.376C436.35 490.42 436.32 490.463 436.288 490.496C436.261 490.522 436.163 490.571 435.992 490.643C435.821 490.709 435.578 490.782 435.262 490.86ZM438.91 493V487.774H440.192V493H438.91ZM438.91 487.015V485.802H440.192V487.015H438.91ZM441.568 493V487.774H442.781V488.326H442.8C442.899 488.129 443.044 487.971 443.234 487.853C443.431 487.735 443.645 487.676 443.875 487.676C444.04 487.676 444.197 487.709 444.348 487.774L444.151 489.017C444.007 488.964 443.872 488.938 443.747 488.938C443.149 488.938 442.85 489.335 442.85 490.131V493H441.568ZM444.794 491.275L445.948 490.979C446.04 491.708 446.431 492.073 447.121 492.073C447.436 492.073 447.686 492.024 447.87 491.925C448.061 491.82 448.156 491.675 448.156 491.491C448.156 491.34 448.084 491.229 447.939 491.156C447.795 491.077 447.492 490.972 447.032 490.841C446.907 490.808 446.812 490.782 446.746 490.762C446.142 490.591 445.698 490.39 445.415 490.16C445.133 489.924 444.991 489.611 444.991 489.224C444.991 488.79 445.165 488.415 445.514 488.1C445.869 487.784 446.352 487.626 446.963 487.626C448.133 487.626 448.866 488.139 449.162 489.164L448.097 489.49C448.005 489.24 447.874 489.043 447.703 488.898C447.538 488.754 447.295 488.681 446.973 488.681C446.723 488.681 446.523 488.731 446.372 488.829C446.227 488.921 446.155 489.033 446.155 489.164C446.155 489.309 446.24 489.424 446.411 489.51C446.589 489.588 447.026 489.727 447.722 489.924C448.334 490.088 448.748 490.298 448.965 490.555C449.188 490.805 449.3 491.127 449.3 491.521C449.3 491.942 449.116 492.32 448.748 492.655C448.386 492.984 447.86 493.148 447.17 493.148C446.447 493.148 445.888 492.967 445.494 492.606C445.106 492.237 444.873 491.794 444.794 491.275Z" fill="#7986A3"/>
<path opacity="0.5" d="M97 500.892C97 503.161 95.1607 505 92.8917 505H72.1083C69.8393 505 68 506.839 68 509.108V533.892C68 536.161 66.1607 538 63.8917 538H13.1083C10.8393 538 9 536.161 9 533.892V514.5C9 513.672 9.67157 513 10.5 513C11.3284 513 12 512.328 12 511.5L12 426.5C12 425.672 11.3284 425 10.5 425C9.67157 425 9 424.328 9 423.5V406.108C9 403.839 10.8393 402 13.1083 402H33.3707C34.4173 402 35.4243 402.399 36.1864 403.117L67.8136 432.883C68.5757 433.601 69.5827 434 70.6293 434H92.8917C95.1607 434 97 435.839 97 438.108L97 500.892Z" fill="#4D5F83" fill-opacity="0.15" stroke="#4D5F83" stroke-width="1.64332" stroke-miterlimit="16"/>
<g opacity="0.15">
<mask id="mask0" mask-type="alpha" maskUnits="userSpaceOnUse" x="9" y="402" width="88" height="136">
<path d="M97 500.892C97 503.161 95.1607 505 92.8917 505H72.1083C69.8393 505 68 506.839 68 509.108V533.892C68 536.161 66.1607 538 63.8917 538H13.1083C10.8393 538 9 536.161 9 533.892V514.5C9 513.672 9.67157 513 10.5 513C11.3284 513 12 512.328 12 511.5L12 426.5C12 425.672 11.3284 425 10.5 425C9.67157 425 9 424.328 9 423.5V406.108C9 403.839 10.8393 402 13.1083 402H33.3707C34.4173 402 35.4243 402.399 36.1864 403.117L67.8136 432.883C68.5757 433.601 69.5827 434 70.6293 434H92.8917C95.1607 434 97 435.839 97 438.108L97 500.892Z" fill="#C4C4C4"/>
</mask>
<g mask="url(#mask0)">
<rect width="182.241" height="3.70032" transform="matrix(-0.703677 0.703134 -0.703677 -0.703134 62.6989 354.186)" fill="#4D5F83"/>
<rect width="182.241" height="3.70032" transform="matrix(-0.703676 0.703134 -0.703676 -0.703134 67.9056 359.389)" fill="#4D5F83"/>
<rect width="182.241" height="3.70032" transform="matrix(-0.703676 0.703134 -0.703676 -0.703134 73.1138 364.594)" fill="#4D5F83"/>
<rect width="182.241" height="3.70032" transform="matrix(-0.703676 0.703134 -0.703676 -0.703134 78.3216 369.797)" fill="#4D5F83"/>
<rect width="182.241" height="3.70032" transform="matrix(-0.703676 0.703134 -0.703676 -0.703134 83.5292 375.001)" fill="#4D5F83"/>
<rect width="182.241" height="3.70032" transform="matrix(-0.703676 0.703134 -0.703676 -0.703134 88.7364 380.204)" fill="#4D5F83"/>
<rect width="182.241" height="3.70032" transform="matrix(-0.703676 0.703134 -0.703676 -0.703134 93.9446 385.408)" fill="#4D5F83"/>
<rect width="182.241" height="3.70032" transform="matrix(-0.703676 0.703134 -0.703676 -0.703134 99.1519 390.611)" fill="#4D5F83"/>
<rect width="182.241" height="3.70032" transform="matrix(-0.703676 0.703134 -0.703676 -0.703134 104.36 395.814)" fill="#4D5F83"/>
<rect width="182.241" height="3.70032" transform="matrix(-0.703676 0.703134 -0.703676 -0.703134 109.567 401.018)" fill="#4D5F83"/>
<rect width="182.241" height="3.70032" transform="matrix(-0.703676 0.703134 -0.703676 -0.703134 114.775 406.222)" fill="#4D5F83"/>
<rect width="182.241" height="3.70032" transform="matrix(-0.703676 0.703134 -0.703676 -0.703134 119.983 411.425)" fill="#4D5F83"/>
<rect width="182.241" height="3.70032" transform="matrix(-0.703676 0.703134 -0.703676 -0.703134 125.191 416.629)" fill="#4D5F83"/>
<rect width="182.241" height="3.70032" transform="matrix(-0.703677 0.703134 -0.703677 -0.703134 130.398 421.833)" fill="#4D5F83"/>
<rect width="182.241" height="3.70032" transform="matrix(-0.703677 0.703134 -0.703677 -0.703134 135.605 427.037)" fill="#4D5F83"/>
<rect width="182.241" height="3.70032" transform="matrix(-0.703676 0.703134 -0.703676 -0.703134 140.814 432.241)" fill="#4D5F83"/>
<rect width="182.241" height="3.70032" transform="matrix(-0.703676 0.703134 -0.703676 -0.703134 146.021 437.444)" fill="#4D5F83"/>
<rect width="182.241" height="3.70032" transform="matrix(-0.703676 0.703134 -0.703676 -0.703134 151.229 442.647)" fill="#4D5F83"/>
<rect width="182.241" height="3.70032" transform="matrix(-0.703676 0.703134 -0.703676 -0.703134 156.436 447.851)" fill="#4D5F83"/>
<rect width="182.241" height="3.70032" transform="matrix(-0.703676 0.703134 -0.703676 -0.703134 161.644 453.055)" fill="#4D5F83"/>
<rect width="182.241" height="3.70032" transform="matrix(-0.703676 0.703134 -0.703676 -0.703134 166.852 458.258)" fill="#4D5F83"/>
</g>
</g>
<rect opacity="0.5" x="542" y="456" width="86" height="50" rx="4.1083" fill="#4D5F83" fill-opacity="0.15" stroke="#4D5F83" stroke-width="1.64332" stroke-miterlimit="16"/>
<g opacity="0.15">
<mask id="mask1" mask-type="alpha" maskUnits="userSpaceOnUse" x="542" y="456" width="86" height="50">
<rect x="542" y="456" width="86" height="50" rx="4.1083" fill="#C4C4C4"/>
</mask>
<g mask="url(#mask1)">
<rect width="182.241" height="3.70032" transform="matrix(0.703677 -0.703134 0.703677 0.703134 574.28 615.967)" fill="#4D5F83"/>
<rect width="182.241" height="3.70032" transform="matrix(0.703676 -0.703134 0.703676 0.703134 569.073 610.763)" fill="#4D5F83"/>
<rect width="182.241" height="3.70032" transform="matrix(0.703676 -0.703134 0.703676 0.703134 563.865 605.559)" fill="#4D5F83"/>
<rect width="182.241" height="3.70032" transform="matrix(0.703676 -0.703134 0.703676 0.703134 558.657 600.356)" fill="#4D5F83"/>
<rect width="182.241" height="3.70032" transform="matrix(0.703676 -0.703134 0.703676 0.703134 553.45 595.152)" fill="#4D5F83"/>
<rect width="182.241" height="3.70032" transform="matrix(0.703676 -0.703134 0.703676 0.703134 548.242 589.948)" fill="#4D5F83"/>
<rect width="182.241" height="3.70032" transform="matrix(0.703676 -0.703134 0.703676 0.703134 543.034 584.745)" fill="#4D5F83"/>
<rect width="182.241" height="3.70032" transform="matrix(0.703676 -0.703134 0.703676 0.703134 537.827 579.541)" fill="#4D5F83"/>
<rect width="182.241" height="3.70032" transform="matrix(0.703676 -0.703134 0.703676 0.703134 532.619 574.338)" fill="#4D5F83"/>
<rect width="182.241" height="3.70032" transform="matrix(0.703676 -0.703134 0.703676 0.703134 527.412 569.134)" fill="#4D5F83"/>
<rect width="182.241" height="3.70032" transform="matrix(0.703676 -0.703134 0.703676 0.703134 522.204 563.93)" fill="#4D5F83"/>
<rect width="182.241" height="3.70032" transform="matrix(0.703676 -0.703134 0.703676 0.703134 516.996 558.727)" fill="#4D5F83"/>
<rect width="182.241" height="3.70032" transform="matrix(0.703676 -0.703134 0.703676 0.703134 511.788 553.523)" fill="#4D5F83"/>
<rect width="182.241" height="3.70032" transform="matrix(0.703676 -0.703134 0.703676 0.703134 506.581 548.319)" fill="#4D5F83"/>
<rect width="182.241" height="3.70032" transform="matrix(0.703676 -0.703134 0.703676 0.703134 501.373 543.115)" fill="#4D5F83"/>
<rect width="182.241" height="3.70032" transform="matrix(0.703676 -0.703134 0.703676 0.703134 496.165 537.912)" fill="#4D5F83"/>
<rect width="182.241" height="3.70032" transform="matrix(0.703676 -0.703134 0.703676 0.703134 490.958 532.708)" fill="#4D5F83"/>
<rect width="182.241" height="3.70032" transform="matrix(0.703676 -0.703134 0.703676 0.703134 485.75 527.505)" fill="#4D5F83"/>
<rect width="182.241" height="3.70032" transform="matrix(0.703676 -0.703134 0.703676 0.703134 480.543 522.301)" fill="#4D5F83"/>
<rect width="182.241" height="3.70032" transform="matrix(0.703676 -0.703134 0.703676 0.703134 475.335 517.097)" fill="#4D5F83"/>
<rect width="182.241" height="3.70032" transform="matrix(0.703676 -0.703134 0.703676 0.703134 470.127 511.894)" fill="#4D5F83"/>
</g>
</g>
<path d="M583.479 485V473.497H588.359C589.378 473.497 590.194 473.798 590.808 474.401C591.432 474.992 591.745 475.721 591.745 476.586C591.745 477.55 591.328 478.279 590.496 478.772V478.788C590.989 478.996 591.389 479.331 591.695 479.791C592.013 480.24 592.172 480.782 592.172 481.418C592.172 482.513 591.838 483.39 591.169 484.047C590.501 484.682 589.4 485 587.866 485H583.479ZM585.697 482.946H588.376C589.427 482.946 589.953 482.436 589.953 481.418C589.953 480.946 589.811 480.585 589.526 480.333C589.252 480.07 588.874 479.939 588.392 479.939H585.697V482.946ZM585.697 478.131H588.08C588.529 478.131 588.88 478.027 589.132 477.819C589.395 477.6 589.526 477.282 589.526 476.866C589.526 476.427 589.4 476.099 589.148 475.88C588.896 475.66 588.54 475.551 588.08 475.551H585.697V478.131Z" fill="#E5EBEF"/>
<path d="M57.311 473L56.6537 471.11H52.266L51.6087 473H49.4067L53.5643 461.497H55.4541L59.5953 473H57.311ZM54.4517 464.783L52.8905 469.27H56.0293L54.4845 464.783H54.4517Z" fill="#E5EBEF"/>
</g>
<defs>
<clipPath id="clip0">
<path d="M0 0H708V708H0V0Z" fill="white"/>
</clipPath>
</defs>
</svg>
